<svg width="644" height="327" viewBox="0 0 644 327" fill="none" xmlns="http://www.w3.org/2000/svg">
<line x1="27.5" y1="1.74598e-08" x2="27.5" y2="251.568" stroke="#CBCBCB"/>
<line x1="625" y1="252.068" x2="27.0001" y2="252.068" stroke="#CBCBCB"/>
<line x1="625" y1="12.7541" x2="27" y2="12.7541" stroke="#F2F2F2"/>
<line x1="625" y1="55.427" x2="27" y2="55.427" stroke="#F2F2F2"/>
<line x1="625" y1="98.0999" x2="27" y2="98.0999" stroke="#F2F2F2"/>
<line x1="625" y1="140.773" x2="27" y2="140.773" stroke="#F2F2F2"/>
<line x1="625" y1="183.446" x2="27" y2="183.446" stroke="#F2F2F2"/>
<line x1="625" y1="226.119" x2="27" y2="226.119" stroke="#F2F2F2"/>
<path d="M6.94 12.3465C6.70533 11.1625 5.97467 10.5705 4.748 10.5705C3.79867 10.5705 3.08933 10.9385 2.62 11.6745C2.15067 12.3998 1.92133 13.5998 1.932 15.2745C2.17733 14.7198 2.58267 14.2878 3.148 13.9785C3.724 13.6585 4.364 13.4985 5.068 13.4985C6.16667 13.4985 7.04133 13.8398 7.692 14.5225C8.35333 15.2051 8.684 16.1491 8.684 17.3545C8.684 18.0798 8.54 18.7305 8.252 19.3065C7.97467 19.8825 7.548 20.3411 6.972 20.6825C6.40667 21.0238 5.71867 21.1945 4.908 21.1945C3.80933 21.1945 2.95067 20.9491 2.332 20.4585C1.71333 19.9678 1.28133 19.2905 1.036 18.4265C0.790667 17.5625 0.668 16.4958 0.668 15.2265C0.668 11.3118 2.03333 9.35448 4.764 9.35448C5.80933 9.35448 6.63067 9.63714 7.228 10.2025C7.82533 10.7678 8.17733 11.4825 8.284 12.3465H6.94ZM4.764 14.7305C4.30533 14.7305 3.87333 14.8265 3.468 15.0185C3.06267 15.1998 2.732 15.4825 2.476 15.8665C2.23067 16.2398 2.108 16.6985 2.108 17.2425C2.108 18.0531 2.34267 18.7145 2.812 19.2265C3.28133 19.7278 3.95333 19.9785 4.828 19.9785C5.57467 19.9785 6.16667 19.7491 6.604 19.2905C7.052 18.8211 7.276 18.1918 7.276 17.4025C7.276 16.5705 7.06267 15.9198 6.636 15.4505C6.20933 14.9705 5.58533 14.7305 4.764 14.7305ZM10.6483 15.2585C10.6483 13.4238 10.9469 11.9945 11.5443 10.9705C12.1416 9.93581 13.1869 9.41848 14.6803 9.41848C16.1629 9.41848 17.2029 9.93581 17.8003 10.9705C18.3976 11.9945 18.6962 13.4238 18.6962 15.2585C18.6962 17.1251 18.3976 18.5758 17.8003 19.6105C17.2029 20.6451 16.1629 21.1625 14.6803 21.1625C13.1869 21.1625 12.1416 20.6451 11.5443 19.6105C10.9469 18.5758 10.6483 17.1251 10.6483 15.2585ZM17.2563 15.2585C17.2563 14.3305 17.1923 13.5465 17.0643 12.9065C16.9469 12.2558 16.6963 11.7331 16.3123 11.3385C15.9389 10.9438 15.3949 10.7465 14.6803 10.7465C13.9549 10.7465 13.4003 10.9438 13.0163 11.3385C12.6429 11.7331 12.3923 12.2558 12.2643 12.9065C12.1469 13.5465 12.0883 14.3305 12.0883 15.2585C12.0883 16.2185 12.1469 17.0238 12.2643 17.6745C12.3923 18.3251 12.6429 18.8478 13.0163 19.2425C13.4003 19.6371 13.9549 19.8345 14.6803 19.8345C15.3949 19.8345 15.9389 19.6371 16.3123 19.2425C16.6963 18.8478 16.9469 18.3251 17.0643 17.6745C17.1923 17.0238 17.2563 16.2185 17.2563 15.2585Z" fill="#4D4D4D"/>
<path d="M7.868 52.2238H2.252V55.8718C2.49733 55.5305 2.86 55.2532 3.34 55.0398C3.82 54.8158 4.33733 54.7038 4.892 54.7038C5.77733 54.7038 6.49733 54.8905 7.052 55.2638C7.60667 55.6265 8.00133 56.1012 8.236 56.6878C8.48133 57.2638 8.604 57.8772 8.604 58.5278C8.604 59.2958 8.46 59.9838 8.172 60.5918C7.884 61.1998 7.44133 61.6798 6.844 62.0318C6.25733 62.3838 5.52667 62.5598 4.652 62.5598C3.532 62.5598 2.62533 62.2718 1.932 61.6958C1.23867 61.1198 0.817333 60.3518 0.668 59.3918H2.092C2.23067 59.9998 2.524 60.4745 2.972 60.8158C3.42 61.1572 3.98533 61.3278 4.668 61.3278C5.51067 61.3278 6.14533 61.0772 6.572 60.5758C6.99867 60.0638 7.212 59.3918 7.212 58.5598C7.212 57.7278 6.99867 57.0878 6.572 56.6398C6.14533 56.1812 5.516 55.9518 4.684 55.9518C4.11867 55.9518 3.62267 56.0905 3.196 56.3678C2.78 56.6345 2.476 57.0025 2.284 57.4718H0.908V50.9438H7.868V52.2238ZM10.5389 56.6238C10.5389 54.7892 10.8375 53.3598 11.4349 52.3358C12.0322 51.3012 13.0775 50.7838 14.5709 50.7838C16.0535 50.7838 17.0935 51.3012 17.6909 52.3358C18.2882 53.3598 18.5869 54.7892 18.5869 56.6238C18.5869 58.4905 18.2882 59.9412 17.6909 60.9758C17.0935 62.0105 16.0535 62.5278 14.5709 62.5278C13.0775 62.5278 12.0322 62.0105 11.4349 60.9758C10.8375 59.9412 10.5389 58.4905 10.5389 56.6238ZM17.1469 56.6238C17.1469 55.6958 17.0829 54.9118 16.9549 54.2718C16.8375 53.6212 16.5869 53.0985 16.2029 52.7038C15.8295 52.3092 15.2855 52.1118 14.5709 52.1118C13.8455 52.1118 13.2909 52.3092 12.9069 52.7038C12.5335 53.0985 12.2829 53.6212 12.1549 54.2718C12.0375 54.9118 11.9789 55.6958 11.9789 56.6238C11.9789 57.5838 12.0375 58.3892 12.1549 59.0398C12.2829 59.6905 12.5335 60.2132 12.9069 60.6078C13.2909 61.0025 13.8455 61.1998 14.5709 61.1998C15.2855 61.1998 15.8295 61.0025 16.2029 60.6078C16.5869 60.2132 16.8375 59.6905 16.9549 59.0398C17.0829 58.3892 17.1469 57.5838 17.1469 56.6238Z" fill="#4D4D4D"/>
<path d="M0.14 101.317V100.213L5.756 92.4372H7.5V100.053H9.1V101.317H7.5V103.893H6.06V101.317H0.14ZM6.124 93.9572L1.82 100.053H6.124V93.9572ZM10.5545 97.9892C10.5545 96.1545 10.8532 94.7252 11.4505 93.7012C12.0478 92.6665 13.0932 92.1492 14.5865 92.1492C16.0692 92.1492 17.1092 92.6665 17.7065 93.7012C18.3038 94.7252 18.6025 96.1545 18.6025 97.9892C18.6025 99.8559 18.3038 101.307 17.7065 102.341C17.1092 103.376 16.0692 103.893 14.5865 103.893C13.0932 103.893 12.0478 103.376 11.4505 102.341C10.8532 101.307 10.5545 99.8559 10.5545 97.9892ZM17.1625 97.9892C17.1625 97.0612 17.0985 96.2772 16.9705 95.6372C16.8532 94.9865 16.6025 94.4639 16.2185 94.0692C15.8452 93.6745 15.3012 93.4772 14.5865 93.4772C13.8612 93.4772 13.3065 93.6745 12.9225 94.0692C12.5492 94.4639 12.2985 94.9865 12.1705 95.6372C12.0532 96.2772 11.9945 97.0612 11.9945 97.9892C11.9945 98.9492 12.0532 99.7545 12.1705 100.405C12.2985 101.056 12.5492 101.579 12.9225 101.973C13.3065 102.368 13.8612 102.565 14.5865 102.565C15.3012 102.565 15.8452 102.368 16.2185 101.973C16.6025 101.579 16.8532 101.056 16.9705 100.405C17.0985 99.7545 17.1625 98.9492 17.1625 97.9892Z" fill="#4D4D4D"/>
<path d="M0.96 136.603C1.03467 135.621 1.41333 134.853 2.096 134.299C2.77867 133.744 3.664 133.467 4.752 133.467C5.47733 133.467 6.10133 133.6 6.624 133.867C7.15733 134.123 7.55733 134.475 7.824 134.923C8.10133 135.371 8.24 135.877 8.24 136.443C8.24 137.104 8.048 137.675 7.664 138.155C7.29067 138.635 6.8 138.944 6.192 139.083V139.163C6.88533 139.333 7.43467 139.669 7.84 140.171C8.24533 140.672 8.448 141.328 8.448 142.139C8.448 142.747 8.30933 143.296 8.032 143.787C7.75467 144.267 7.33867 144.645 6.784 144.923C6.22933 145.2 5.56267 145.339 4.784 145.339C3.65333 145.339 2.72533 145.045 2 144.459C1.27467 143.861 0.869333 143.019 0.784 141.931H2.192C2.26667 142.571 2.528 143.093 2.976 143.499C3.424 143.904 4.02133 144.107 4.768 144.107C5.51467 144.107 6.08 143.915 6.464 143.531C6.85867 143.136 7.056 142.629 7.056 142.011C7.056 141.211 6.78933 140.635 6.256 140.283C5.72267 139.931 4.91733 139.755 3.84 139.755H3.472V138.539H3.856C4.83733 138.528 5.57867 138.368 6.08 138.059C6.58133 137.739 6.832 137.248 6.832 136.587C6.832 136.021 6.64533 135.568 6.272 135.227C5.90933 134.885 5.38667 134.715 4.704 134.715C4.04267 134.715 3.50933 134.885 3.104 135.227C2.69867 135.568 2.45867 136.027 2.384 136.603H0.96ZM10.4139 139.355C10.4139 137.52 10.7125 136.091 11.3099 135.067C11.9072 134.032 12.9525 133.515 14.4459 133.515C15.9285 133.515 16.9685 134.032 17.5659 135.067C18.1632 136.091 18.4619 137.52 18.4619 139.355C18.4619 141.221 18.1632 142.672 17.5659 143.707C16.9685 144.741 15.9285 145.259 14.4459 145.259C12.9525 145.259 11.9072 144.741 11.3099 143.707C10.7125 142.672 10.4139 141.221 10.4139 139.355ZM17.0219 139.355C17.0219 138.427 16.9579 137.643 16.8299 137.003C16.7125 136.352 16.4619 135.829 16.0779 135.435C15.7045 135.04 15.1605 134.843 14.4459 134.843C13.7205 134.843 13.1659 135.04 12.7819 135.435C12.4085 135.829 12.1579 136.352 12.0299 137.003C11.9125 137.643 11.8539 138.427 11.8539 139.355C11.8539 140.315 11.9125 141.12 12.0299 141.771C12.1579 142.421 12.4085 142.944 12.7819 143.339C13.1659 143.733 13.7205 143.931 14.4459 143.931C15.1605 143.931 15.7045 143.733 16.0779 143.339C16.4619 142.944 16.7125 142.421 16.8299 141.771C16.9579 141.12 17.0219 140.315 17.0219 139.355Z" fill="#4D4D4D"/>
<path d="M0.816 185.456C2.17067 184.368 3.232 183.477 4 182.784C4.768 182.08 5.41333 181.349 5.936 180.592C6.46933 179.824 6.736 179.072 6.736 178.336C6.736 177.643 6.56533 177.099 6.224 176.704C5.89333 176.299 5.35467 176.096 4.608 176.096C3.88267 176.096 3.31733 176.325 2.912 176.784C2.51733 177.232 2.304 177.835 2.272 178.592H0.864C0.906667 177.397 1.26933 176.475 1.952 175.824C2.63467 175.173 3.51467 174.848 4.592 174.848C5.69067 174.848 6.56 175.152 7.2 175.76C7.85067 176.368 8.176 177.205 8.176 178.272C8.176 179.157 7.90933 180.021 7.376 180.864C6.85333 181.696 6.256 182.432 5.584 183.072C4.912 183.701 4.05333 184.437 3.008 185.28H8.512V186.496H0.816V185.456ZM10.1951 180.72C10.1951 178.885 10.4938 177.456 11.0911 176.432C11.6885 175.397 12.7338 174.88 14.2271 174.88C15.7098 174.88 16.7498 175.397 17.3471 176.432C17.9445 177.456 18.2431 178.885 18.2431 180.72C18.2431 182.587 17.9445 184.037 17.3471 185.072C16.7498 186.107 15.7098 186.624 14.2271 186.624C12.7338 186.624 11.6885 186.107 11.0911 185.072C10.4938 184.037 10.1951 182.587 10.1951 180.72ZM16.8031 180.72C16.8031 179.792 16.7391 179.008 16.6111 178.368C16.4938 177.717 16.2431 177.195 15.8591 176.8C15.4858 176.405 14.9418 176.208 14.2271 176.208C13.5018 176.208 12.9471 176.405 12.5631 176.8C12.1898 177.195 11.9391 177.717 11.8111 178.368C11.6938 179.008 11.6351 179.792 11.6351 180.72C11.6351 181.68 11.6938 182.485 11.8111 183.136C11.9391 183.787 12.1898 184.309 12.5631 184.704C12.9471 185.099 13.5018 185.296 14.2271 185.296C14.9418 185.296 15.4858 185.099 15.8591 184.704C16.2431 184.309 16.4938 183.787 16.6111 183.136C16.7391 182.485 16.8031 181.68 16.8031 180.72Z" fill="#4D4D4D"/>
<path d="M2.608 217.749V216.421H5.616V227.989H4.144V217.749H2.608ZM8.117 222.085C8.117 220.251 8.41567 218.821 9.013 217.797C9.61033 216.763 10.6557 216.245 12.149 216.245C13.6317 216.245 14.6717 216.763 15.269 217.797C15.8663 218.821 16.165 220.251 16.165 222.085C16.165 223.952 15.8663 225.403 15.269 226.437C14.6717 227.472 13.6317 227.989 12.149 227.989C10.6557 227.989 9.61033 227.472 9.013 226.437C8.41567 225.403 8.117 223.952 8.117 222.085ZM14.725 222.085C14.725 221.157 14.661 220.373 14.533 219.733C14.4157 219.083 14.165 218.56 13.781 218.165C13.4077 217.771 12.8637 217.573 12.149 217.573C11.4237 217.573 10.869 217.771 10.485 218.165C10.1117 218.56 9.861 219.083 9.733 219.733C9.61567 220.373 9.557 221.157 9.557 222.085C9.557 223.045 9.61567 223.851 9.733 224.501C9.861 225.152 10.1117 225.675 10.485 226.069C10.869 226.464 11.4237 226.661 12.149 226.661C12.8637 226.661 13.4077 226.464 13.781 226.069C14.165 225.675 14.4157 225.152 14.533 224.501C14.661 223.851 14.725 223.045 14.725 222.085Z" fill="#4D4D4D"/>
<path d="M29.9115 280.649L31.6443 287.116C31.8372 287.836 31.7702 288.473 31.4431 289.027C31.1138 289.573 30.585 289.943 29.8567 290.138C29.1201 290.336 28.4716 290.276 27.9112 289.96C27.3487 289.635 26.9653 289.092 26.7612 288.33L27.9039 288.024C28.0267 288.448 28.2286 288.767 28.5096 288.978C28.7991 289.188 29.1573 289.236 29.5842 289.121C30.0111 289.007 30.2956 288.796 30.4376 288.489C30.5773 288.173 30.5945 287.819 30.4891 287.425L28.7563 280.958L29.9115 280.649ZM37.5393 288.107C36.8947 288.279 36.2694 288.29 35.6635 288.138C35.066 287.984 34.5447 287.68 34.0998 287.225C33.661 286.759 33.3463 286.171 33.1556 285.459C32.9672 284.756 32.9519 284.096 33.1097 283.48C33.2736 282.852 33.5812 282.326 34.0323 281.9C34.4812 281.466 35.0321 281.161 35.6851 280.986C36.3381 280.811 36.9675 280.799 37.5734 280.951C38.1771 281.094 38.7014 281.394 39.1463 281.849C39.5996 282.301 39.9216 282.883 40.1122 283.595C40.3029 284.307 40.3121 284.977 40.1398 285.606C39.9736 286.225 39.6618 286.753 39.2046 287.189C38.7473 287.626 38.1922 287.932 37.5393 288.107ZM37.2701 287.102C37.6803 286.992 38.0396 286.793 38.3479 286.504C38.6563 286.215 38.8677 285.849 38.9822 285.405C39.1051 284.96 39.0925 284.46 38.9444 283.908C38.7964 283.355 38.5619 282.916 38.2411 282.589C37.9203 282.262 37.5594 282.054 37.1584 281.964C36.7552 281.866 36.3485 281.871 35.9383 281.981C35.5198 282.094 35.1605 282.293 34.8605 282.58C34.5666 282.856 34.3666 283.214 34.2605 283.656C34.1544 284.097 34.1754 284.594 34.3234 285.146C34.4737 285.707 34.7009 286.153 35.005 286.484C35.3175 286.813 35.6711 287.028 36.0659 287.129C36.4585 287.221 36.8599 287.212 37.2701 287.102ZM44.078 278.724C44.597 278.585 45.0961 278.572 45.5752 278.686C46.0521 278.791 46.4672 279.035 46.8205 279.415C47.1821 279.794 47.4482 280.301 47.6187 280.938L48.7054 284.994L47.5753 285.296L46.5323 281.404C46.3483 280.717 46.0365 280.24 45.5968 279.972C45.1549 279.696 44.6368 279.637 44.0424 279.796C43.4397 279.958 43.0088 280.275 42.7498 280.748C42.4991 281.219 42.4702 281.815 42.6631 282.535L43.6826 286.339L42.5399 286.646L40.0501 277.353L41.1928 277.047L42.1012 280.438C42.2331 280.026 42.4699 279.67 42.8118 279.372C43.162 279.072 43.5841 278.856 44.078 278.724ZM52.0473 276.588C52.8844 276.364 53.6309 276.438 54.2868 276.809C54.9404 277.172 55.395 277.831 55.6507 278.786L56.7375 282.841L55.6074 283.144L54.5643 279.252C54.3804 278.565 54.0686 278.088 53.6289 277.82C53.187 277.544 52.6689 277.485 52.0745 277.644C51.4718 277.806 51.0409 278.123 50.7818 278.596C50.5312 279.067 50.5023 279.663 50.6952 280.383L51.7147 284.187L50.572 284.493L48.7282 277.612L49.8709 277.306L50.1333 278.285C50.2651 277.873 50.4978 277.519 50.8313 277.224C51.1731 276.926 51.5785 276.714 52.0473 276.588ZM62.3315 271.962C63.2859 271.706 64.1587 271.665 64.95 271.839C65.7474 272.002 66.4188 272.365 66.9644 272.928C67.5183 273.488 67.9153 274.216 68.1553 275.112C68.3953 276.008 68.4155 276.837 68.216 277.599C68.0227 278.351 67.6215 278.996 67.0125 279.536C66.4096 280.066 65.631 280.458 64.6767 280.714L61.9518 281.444L59.6067 272.692L62.3315 271.962ZM64.4244 279.772C65.5545 279.47 66.3371 278.941 66.7722 278.188C67.2051 277.426 67.2768 276.505 66.9875 275.425C66.6959 274.337 66.1668 273.568 65.4003 273.118C64.6422 272.666 63.7023 272.591 62.5805 272.891L60.9983 273.315L62.8422 280.196L64.4244 279.772ZM73.8615 278.374C73.2169 278.547 72.5916 278.557 71.9857 278.406C71.3882 278.252 70.8669 277.947 70.422 277.492C69.9832 277.027 69.6685 276.438 69.4778 275.727C69.2894 275.023 69.2741 274.364 69.4319 273.747C69.5959 273.12 69.9034 272.593 70.3545 272.167C70.8034 271.733 71.3543 271.428 72.0073 271.253C72.6603 271.079 73.2897 271.067 73.8956 271.219C74.4993 271.362 75.0236 271.661 75.4685 272.116C75.9218 272.569 76.2438 273.151 76.4344 273.863C76.6251 274.574 76.6343 275.245 76.462 275.874C76.2958 276.493 75.9841 277.02 75.5268 277.457C75.0695 277.893 74.5144 278.199 73.8615 278.374ZM73.5923 277.37C74.0025 277.26 74.3618 277.06 74.6701 276.771C74.9785 276.482 75.19 276.116 75.3044 275.673C75.4273 275.227 75.4147 274.728 75.2666 274.175C75.1186 273.623 74.8841 273.183 74.5633 272.857C74.2425 272.53 73.8816 272.321 73.4806 272.231C73.0774 272.133 72.6707 272.139 72.2605 272.249C71.842 272.361 71.4827 272.56 71.1827 272.847C70.8888 273.123 70.6888 273.482 70.5827 273.923C70.4766 274.364 70.4976 274.861 70.6456 275.414C70.7959 275.975 71.0231 276.421 71.3272 276.752C71.6397 277.081 71.9933 277.296 72.3881 277.396C72.7807 277.488 73.1821 277.48 73.5923 277.37ZM84.1481 271.527C84.2064 271.744 84.2555 271.978 84.2955 272.227L78.7955 273.701C79.019 274.368 79.3917 274.838 79.9134 275.111C80.4413 275.373 81.0066 275.423 81.6094 275.262C82.1033 275.13 82.4832 274.907 82.7491 274.593C83.0211 274.269 83.1726 273.896 83.2033 273.475L84.4339 273.146C84.4269 273.856 84.2033 274.495 83.7629 275.062C83.3203 275.62 82.6888 276.009 81.8684 276.229C81.2155 276.404 80.5902 276.414 79.9927 276.26C79.4035 276.104 78.8907 275.797 78.4541 275.34C78.0153 274.875 77.7006 274.286 77.5099 273.574C77.3193 272.863 77.2945 272.201 77.4355 271.589C77.5766 270.977 77.8643 270.46 78.2987 270.039C78.7392 269.607 79.2943 269.301 79.964 269.121C80.617 268.947 81.2328 268.934 81.8113 269.084C82.3899 269.234 82.8804 269.524 83.2828 269.955C83.6914 270.375 83.9798 270.899 84.1481 271.527ZM82.9038 271.604C82.7872 271.169 82.5911 270.822 82.3155 270.564C82.0377 270.297 81.7101 270.13 81.3326 270.06C80.9613 269.98 80.5747 269.994 80.1729 270.102C79.5953 270.257 79.1507 270.573 78.8392 271.051C78.5361 271.527 78.4427 272.1 78.5591 272.768L82.9038 271.604ZM88.3955 269.662C88.1667 268.808 88.154 267.99 88.3574 267.209C88.5585 266.419 88.9382 265.743 89.4963 265.181C90.0629 264.617 90.7521 264.225 91.5642 264.008C92.5185 263.752 93.4131 263.759 94.2481 264.029C95.083 264.299 95.777 264.813 96.33 265.571L94.9613 265.937C94.5772 265.475 94.1168 265.163 93.5801 265.002C93.0518 264.838 92.4696 264.842 91.8333 265.012C91.2222 265.176 90.712 265.465 90.3028 265.88C89.8935 266.295 89.6214 266.803 89.4864 267.404C89.3493 267.997 89.3749 268.646 89.5633 269.349C89.7495 270.044 90.0513 270.618 90.4689 271.071C90.8842 271.516 91.3728 271.816 91.9346 271.97C92.4964 272.125 93.0829 272.12 93.694 271.957C94.3302 271.786 94.8373 271.502 95.2154 271.105C95.5995 270.697 95.8423 270.196 95.9438 269.604L97.3125 269.237C97.2103 270.162 96.8651 270.95 96.2769 271.601C95.6865 272.244 94.9141 272.693 93.9598 272.949C93.1478 273.166 92.3564 273.176 91.5858 272.979C90.8213 272.771 90.1556 272.38 89.5888 271.805C89.0221 271.23 88.6243 270.516 88.3955 269.662ZM104.982 265.944C105.041 266.162 105.09 266.395 105.13 266.645L99.6299 268.118C99.8534 268.785 100.226 269.255 100.748 269.528C101.276 269.79 101.841 269.841 102.444 269.679C102.938 269.547 103.318 269.324 103.583 269.011C103.856 268.686 104.007 268.314 104.038 267.893L105.268 267.563C105.261 268.274 105.038 268.912 104.597 269.479C104.155 270.037 103.523 270.426 102.703 270.646C102.05 270.821 101.425 270.832 100.827 270.678C100.238 270.522 99.725 270.215 99.2885 269.758C98.8497 269.292 98.535 268.703 98.3443 267.992C98.1536 267.28 98.1288 266.618 98.2699 266.006C98.411 265.394 98.6987 264.878 99.1331 264.456C99.5736 264.024 100.129 263.718 100.798 263.539C101.451 263.364 102.067 263.351 102.646 263.502C103.224 263.652 103.715 263.942 104.117 264.372C104.526 264.792 104.814 265.316 104.982 265.944ZM103.738 266.022C103.622 265.586 103.425 265.24 103.15 264.981C102.872 264.715 102.544 264.547 102.167 264.478C101.796 264.398 101.409 264.412 101.007 264.519C100.43 264.674 99.9851 264.991 99.6736 265.469C99.3705 265.945 99.2771 266.517 99.3934 267.186L103.738 266.022ZM108.959 261.339C109.796 261.115 110.542 261.188 111.198 261.56C111.852 261.923 112.306 262.582 112.562 263.536L113.649 267.592L112.519 267.895L111.476 264.002C111.292 263.316 110.98 262.839 110.54 262.571C110.098 262.294 109.58 262.236 108.986 262.395C108.383 262.556 107.952 262.874 107.693 263.347C107.443 263.818 107.414 264.413 107.607 265.133L108.626 268.938L107.483 269.244L105.64 262.363L106.782 262.057L107.045 263.036C107.176 262.624 107.409 262.27 107.743 261.974C108.084 261.676 108.49 261.465 108.959 261.339ZM114.16 263.741C113.971 263.037 113.949 262.384 114.092 261.78C114.233 261.168 114.511 260.65 114.927 260.224C115.351 259.797 115.868 259.501 116.479 259.337C117.082 259.176 117.64 259.165 118.153 259.306C118.666 259.447 119.085 259.684 119.408 260.02L119.071 258.764L120.226 258.454L122.07 265.336L120.915 265.645L120.572 264.364C120.453 264.827 120.204 265.252 119.824 265.641C119.45 266.02 118.965 266.289 118.371 266.448C117.76 266.612 117.167 266.609 116.592 266.44C116.018 266.271 115.515 265.953 115.085 265.485C114.654 265.017 114.346 264.435 114.16 263.741ZM119.99 262.192C119.851 261.673 119.625 261.249 119.312 260.92C119 260.591 118.637 260.374 118.223 260.27C117.815 260.155 117.398 260.154 116.971 260.269C116.544 260.383 116.182 260.588 115.884 260.883C115.586 261.178 115.384 261.546 115.278 261.987C115.172 262.429 115.189 262.909 115.328 263.428C115.469 263.955 115.697 264.387 116.012 264.725C116.324 265.054 116.684 265.276 117.092 265.391C117.497 265.498 117.914 265.494 118.34 265.379C118.767 265.265 119.13 265.06 119.428 264.765C119.731 264.459 119.936 264.086 120.043 263.645C120.146 263.195 120.129 262.711 119.99 262.192Z" fill="#4D4D4D"/>
<path d="M159.655 280.649L161.387 287.116C161.58 287.836 161.513 288.473 161.186 289.027C160.857 289.573 160.328 289.943 159.6 290.138C158.863 290.336 158.215 290.276 157.654 289.96C157.092 289.635 156.708 289.092 156.504 288.33L157.647 288.024C157.77 288.448 157.972 288.767 158.253 288.978C158.542 289.188 158.9 289.236 159.327 289.121C159.754 289.007 160.039 288.796 160.181 288.489C160.32 288.173 160.338 287.819 160.232 287.425L158.499 280.958L159.655 280.649ZM167.282 288.107C166.638 288.279 166.012 288.29 165.407 288.138C164.809 287.984 164.288 287.68 163.843 287.225C163.404 286.759 163.089 286.171 162.899 285.459C162.71 284.756 162.695 284.096 162.853 283.48C163.017 282.852 163.324 282.326 163.775 281.9C164.224 281.466 164.775 281.161 165.428 280.986C166.081 280.811 166.711 280.799 167.316 280.951C167.92 281.094 168.444 281.394 168.889 281.849C169.343 282.301 169.665 282.883 169.855 283.595C170.046 284.307 170.055 284.977 169.883 285.606C169.717 286.225 169.405 286.753 168.948 287.189C168.49 287.626 167.935 287.932 167.282 288.107ZM167.013 287.102C167.423 286.992 167.783 286.793 168.091 286.504C168.399 286.215 168.611 285.849 168.725 285.405C168.848 284.96 168.836 284.46 168.687 283.908C168.539 283.355 168.305 282.916 167.984 282.589C167.663 282.262 167.302 282.054 166.901 281.964C166.498 281.866 166.092 281.871 165.681 281.981C165.263 282.094 164.904 282.293 164.604 282.58C164.31 282.856 164.11 283.214 164.004 283.656C163.897 284.097 163.918 284.594 164.066 285.146C164.217 285.707 164.444 286.153 164.748 286.484C165.061 286.813 165.414 287.028 165.809 287.129C166.202 287.221 166.603 287.212 167.013 287.102ZM173.821 278.724C174.34 278.585 174.839 278.572 175.318 278.686C175.795 278.791 176.21 279.035 176.564 279.415C176.925 279.794 177.191 280.301 177.362 280.938L178.448 284.994L177.318 285.296L176.275 281.404C176.091 280.717 175.78 280.24 175.34 279.972C174.898 279.696 174.38 279.637 173.785 279.796C173.183 279.958 172.752 280.275 172.493 280.748C172.242 281.219 172.213 281.815 172.406 282.535L173.426 286.339L172.283 286.646L169.793 277.353L170.936 277.047L171.844 280.438C171.976 280.026 172.213 279.67 172.555 279.372C172.905 279.072 173.327 278.856 173.821 278.724ZM181.79 276.588C182.627 276.364 183.374 276.438 184.03 276.809C184.683 277.172 185.138 277.831 185.394 278.786L186.481 282.841L185.35 283.144L184.307 279.252C184.123 278.565 183.812 278.088 183.372 277.82C182.93 277.544 182.412 277.485 181.818 277.644C181.215 277.806 180.784 278.123 180.525 278.596C180.274 279.067 180.245 279.663 180.438 280.383L181.458 284.187L180.315 284.493L178.471 277.612L179.614 277.306L179.876 278.285C180.008 277.873 180.241 277.519 180.574 277.224C180.916 276.926 181.322 276.714 181.79 276.588ZM192.075 271.962C193.029 271.706 193.902 271.665 194.693 271.839C195.49 272.002 196.162 272.365 196.707 272.928C197.261 273.488 197.658 274.216 197.898 275.112C198.138 276.008 198.159 276.837 197.959 277.599C197.766 278.351 197.365 278.996 196.756 279.536C196.153 280.066 195.374 280.458 194.42 280.714L191.695 281.444L189.35 272.692L192.075 271.962ZM194.167 279.772C195.298 279.47 196.08 278.941 196.515 278.188C196.948 277.426 197.02 276.505 196.731 275.425C196.439 274.337 195.91 273.568 195.143 273.118C194.385 272.666 193.445 272.591 192.324 272.891L190.741 273.315L192.585 280.196L194.167 279.772ZM203.605 278.374C202.96 278.547 202.335 278.557 201.729 278.406C201.131 278.252 200.61 277.947 200.165 277.492C199.726 277.027 199.412 276.438 199.221 275.727C199.032 275.023 199.017 274.364 199.175 273.747C199.339 273.12 199.646 272.593 200.098 272.167C200.546 271.733 201.097 271.428 201.75 271.253C202.403 271.079 203.033 271.067 203.639 271.219C204.242 271.362 204.767 271.661 205.212 272.116C205.665 272.569 205.987 273.151 206.177 273.863C206.368 274.574 206.377 275.245 206.205 275.874C206.039 276.493 205.727 277.02 205.27 277.457C204.813 277.893 204.257 278.199 203.605 278.374ZM203.335 277.37C203.746 277.26 204.105 277.06 204.413 276.771C204.722 276.482 204.933 276.116 205.047 275.673C205.17 275.227 205.158 274.728 205.01 274.175C204.862 273.623 204.627 273.183 204.306 272.857C203.986 272.53 203.625 272.321 203.224 272.231C202.82 272.133 202.414 272.139 202.004 272.249C201.585 272.361 201.226 272.56 200.926 272.847C200.632 273.123 200.432 273.482 200.326 273.923C200.22 274.364 200.241 274.861 200.389 275.414C200.539 275.975 200.766 276.421 201.07 276.752C201.383 277.081 201.736 277.296 202.131 277.396C202.524 277.488 202.925 277.48 203.335 277.37ZM213.891 271.527C213.949 271.744 213.999 271.978 214.039 272.227L208.539 273.701C208.762 274.368 209.135 274.838 209.656 275.111C210.184 275.373 210.75 275.423 211.352 275.262C211.846 275.13 212.226 274.907 212.492 274.593C212.764 274.269 212.916 273.896 212.946 273.475L214.177 273.146C214.17 273.856 213.946 274.495 213.506 275.062C213.063 275.62 212.432 276.009 211.611 276.229C210.959 276.404 210.333 276.414 209.736 276.26C209.147 276.104 208.634 275.797 208.197 275.34C207.758 274.875 207.444 274.286 207.253 273.574C207.062 272.863 207.037 272.201 207.179 271.589C207.32 270.977 207.607 270.46 208.042 270.039C208.482 269.607 209.037 269.301 209.707 269.121C210.36 268.947 210.976 268.934 211.554 269.084C212.133 269.234 212.623 269.524 213.026 269.955C213.434 270.375 213.723 270.899 213.891 271.527ZM212.647 271.604C212.53 271.169 212.334 270.822 212.059 270.564C211.781 270.297 211.453 270.13 211.076 270.06C210.704 269.98 210.318 269.994 209.916 270.102C209.338 270.257 208.894 270.573 208.582 271.051C208.279 271.527 208.186 272.1 208.302 272.768L212.647 271.604ZM218.139 269.662C217.91 268.808 217.897 267.99 218.1 267.209C218.302 266.419 218.681 265.743 219.239 265.181C219.806 264.617 220.495 264.225 221.307 264.008C222.262 263.752 223.156 263.759 223.991 264.029C224.826 264.299 225.52 264.813 226.073 265.571L224.704 265.937C224.32 265.475 223.86 265.163 223.323 265.002C222.795 264.838 222.213 264.842 221.576 265.012C220.965 265.176 220.455 265.465 220.046 265.88C219.637 266.295 219.364 266.803 219.229 267.404C219.092 267.997 219.118 268.646 219.306 269.349C219.493 270.044 219.794 270.618 220.212 271.071C220.627 271.516 221.116 271.816 221.678 271.97C222.239 272.125 222.826 272.12 223.437 271.957C224.073 271.786 224.58 271.502 224.958 271.105C225.343 270.697 225.585 270.196 225.687 269.604L227.056 269.237C226.953 270.162 226.608 270.95 226.02 271.601C225.43 272.244 224.657 272.693 223.703 272.949C222.891 273.166 222.099 273.176 221.329 272.979C220.564 272.771 219.899 272.38 219.332 271.805C218.765 271.23 218.367 270.516 218.139 269.662ZM234.726 265.944C234.784 266.162 234.833 266.395 234.873 266.645L229.373 268.118C229.596 268.785 229.969 269.255 230.491 269.528C231.019 269.79 231.584 269.841 232.187 269.679C232.681 269.547 233.061 269.324 233.327 269.011C233.599 268.686 233.75 268.314 233.781 267.893L235.011 267.563C235.004 268.274 234.781 268.912 234.34 269.479C233.898 270.037 233.266 270.426 232.446 270.646C231.793 270.821 231.168 270.832 230.57 270.678C229.981 270.522 229.468 270.215 229.032 269.758C228.593 269.292 228.278 268.703 228.087 267.992C227.897 267.28 227.872 266.618 228.013 266.006C228.154 265.394 228.442 264.878 228.876 264.456C229.317 264.024 229.872 263.718 230.541 263.539C231.194 263.364 231.81 263.351 232.389 263.502C232.967 263.652 233.458 263.942 233.86 264.372C234.269 264.792 234.557 265.316 234.726 265.944ZM233.481 266.022C233.365 265.586 233.168 265.24 232.893 264.981C232.615 264.715 232.288 264.547 231.91 264.478C231.539 264.398 231.152 264.412 230.75 264.519C230.173 264.674 229.728 264.991 229.417 265.469C229.113 265.945 229.02 266.517 229.136 267.186L233.481 266.022ZM238.702 261.339C239.539 261.115 240.285 261.188 240.941 261.56C241.595 261.923 242.049 262.582 242.305 263.536L243.392 267.592L242.262 267.895L241.219 264.002C241.035 263.316 240.723 262.839 240.283 262.571C239.841 262.294 239.323 262.236 238.729 262.395C238.126 262.556 237.695 262.874 237.436 263.347C237.186 263.818 237.157 264.413 237.35 265.133L238.369 268.938L237.226 269.244L235.383 262.363L236.525 262.057L236.788 263.036C236.92 262.624 237.152 262.27 237.486 261.974C237.828 261.676 238.233 261.465 238.702 261.339ZM243.903 263.741C243.714 263.037 243.692 262.384 243.835 261.78C243.976 261.168 244.255 260.65 244.67 260.224C245.094 259.797 245.611 259.501 246.222 259.337C246.825 259.176 247.383 259.165 247.896 259.306C248.409 259.447 248.828 259.684 249.151 260.02L248.814 258.764L249.969 258.454L251.813 265.336L250.658 265.645L250.315 264.364C250.196 264.827 249.947 265.252 249.567 265.641C249.193 266.02 248.708 266.289 248.114 266.448C247.503 266.612 246.91 266.609 246.335 266.44C245.761 266.271 245.258 265.953 244.828 265.485C244.397 265.017 244.089 264.435 243.903 263.741ZM249.733 262.192C249.594 261.673 249.368 261.249 249.055 260.92C248.743 260.591 248.38 260.374 247.966 260.27C247.558 260.155 247.141 260.154 246.714 260.269C246.287 260.383 245.925 260.588 245.627 260.883C245.329 261.178 245.127 261.546 245.021 261.987C244.915 262.429 244.932 262.909 245.071 263.428C245.212 263.955 245.44 264.387 245.755 264.725C246.067 265.054 246.427 265.276 246.835 265.391C247.24 265.498 247.657 265.494 248.084 265.379C248.51 265.265 248.873 265.06 249.171 264.765C249.474 264.459 249.679 264.086 249.786 263.645C249.889 263.195 249.872 262.711 249.733 262.192Z" fill="#4D4D4D"/>
<path d="M289.398 280.649L291.13 287.116C291.323 287.836 291.256 288.473 290.929 289.027C290.6 289.573 290.071 289.943 289.343 290.138C288.606 290.336 287.958 290.276 287.397 289.96C286.835 289.635 286.451 289.092 286.247 288.33L287.39 288.024C287.513 288.448 287.715 288.767 287.996 288.978C288.285 289.188 288.643 289.236 289.07 289.121C289.497 289.007 289.782 288.796 289.924 288.489C290.063 288.173 290.081 287.819 289.975 287.425L288.242 280.958L289.398 280.649ZM297.025 288.107C296.381 288.279 295.756 288.29 295.15 288.138C294.552 287.984 294.031 287.68 293.586 287.225C293.147 286.759 292.832 286.171 292.642 285.459C292.453 284.756 292.438 284.096 292.596 283.48C292.76 282.852 293.067 282.326 293.518 281.9C293.967 281.466 294.518 281.161 295.171 280.986C295.824 280.811 296.454 280.799 297.06 280.951C297.663 281.094 298.187 281.394 298.632 281.849C299.086 282.301 299.408 282.883 299.598 283.595C299.789 284.307 299.798 284.977 299.626 285.606C299.46 286.225 299.148 286.753 298.691 287.189C298.233 287.626 297.678 287.932 297.025 288.107ZM296.756 287.102C297.166 286.992 297.526 286.793 297.834 286.504C298.142 286.215 298.354 285.849 298.468 285.405C298.591 284.96 298.579 284.46 298.431 283.908C298.282 283.355 298.048 282.916 297.727 282.589C297.406 282.262 297.045 282.054 296.645 281.964C296.241 281.866 295.835 281.871 295.424 281.981C295.006 282.094 294.647 282.293 294.347 282.58C294.053 282.856 293.853 283.214 293.747 283.656C293.641 284.097 293.661 284.594 293.81 285.146C293.96 285.707 294.187 286.153 294.491 286.484C294.804 286.813 295.157 287.028 295.552 287.129C295.945 287.221 296.346 287.212 296.756 287.102ZM303.564 278.724C304.083 278.585 304.582 278.572 305.061 278.686C305.538 278.791 305.953 279.035 306.307 279.415C306.668 279.794 306.934 280.301 307.105 280.938L308.192 284.994L307.061 285.296L306.018 281.404C305.834 280.717 305.523 280.24 305.083 279.972C304.641 279.696 304.123 279.637 303.529 279.796C302.926 279.958 302.495 280.275 302.236 280.748C301.985 281.219 301.956 281.815 302.149 282.535L303.169 286.339L302.026 286.646L299.536 277.353L300.679 277.047L301.587 280.438C301.719 280.026 301.956 279.67 302.298 279.372C302.648 279.072 303.07 278.856 303.564 278.724ZM311.533 276.588C312.371 276.364 313.117 276.438 313.773 276.809C314.426 277.172 314.881 277.831 315.137 278.786L316.224 282.841L315.094 283.144L314.05 279.252C313.867 278.565 313.555 278.088 313.115 277.82C312.673 277.544 312.155 277.485 311.561 277.644C310.958 277.806 310.527 278.123 310.268 278.596C310.017 279.067 309.988 279.663 310.181 280.383L311.201 284.187L310.058 284.493L308.214 277.612L309.357 277.306L309.619 278.285C309.751 277.873 309.984 277.519 310.317 277.224C310.659 276.926 311.065 276.714 311.533 276.588ZM321.818 271.962C322.772 271.706 323.645 271.665 324.436 271.839C325.233 272.002 325.905 272.365 326.451 272.928C327.004 273.488 327.401 274.216 327.641 275.112C327.881 276.008 327.902 276.837 327.702 277.599C327.509 278.351 327.108 278.996 326.499 279.536C325.896 280.066 325.117 280.458 324.163 280.714L321.438 281.444L319.093 272.692L321.818 271.962ZM323.91 279.772C325.041 279.47 325.823 278.941 326.258 278.188C326.691 277.426 326.763 276.505 326.474 275.425C326.182 274.337 325.653 273.568 324.886 273.118C324.128 272.666 323.188 272.591 322.067 272.891L320.484 273.315L322.328 280.196L323.91 279.772ZM333.348 278.374C332.703 278.547 332.078 278.557 331.472 278.406C330.874 278.252 330.353 277.947 329.908 277.492C329.469 277.027 329.155 276.438 328.964 275.727C328.776 275.023 328.76 274.364 328.918 273.747C329.082 273.12 329.39 272.593 329.841 272.167C330.29 271.733 330.84 271.428 331.493 271.253C332.146 271.079 332.776 271.067 333.382 271.219C333.985 271.362 334.51 271.661 334.955 272.116C335.408 272.569 335.73 273.151 335.921 273.863C336.111 274.574 336.12 275.245 335.948 275.874C335.782 276.493 335.47 277.02 335.013 277.457C334.556 277.893 334.001 278.199 333.348 278.374ZM333.078 277.37C333.489 277.26 333.848 277.06 334.156 276.771C334.465 276.482 334.676 276.116 334.791 275.673C334.913 275.227 334.901 274.728 334.753 274.175C334.605 273.623 334.37 273.183 334.049 272.857C333.729 272.53 333.368 272.321 332.967 272.231C332.564 272.133 332.157 272.139 331.747 272.249C331.328 272.361 330.969 272.56 330.669 272.847C330.375 273.123 330.175 273.482 330.069 273.923C329.963 274.364 329.984 274.861 330.132 275.414C330.282 275.975 330.509 276.421 330.813 276.752C331.126 277.081 331.479 277.296 331.874 277.396C332.267 277.488 332.668 277.48 333.078 277.37ZM343.634 271.527C343.693 271.744 343.742 271.978 343.782 272.227L338.282 273.701C338.505 274.368 338.878 274.838 339.4 275.111C339.927 275.373 340.493 275.423 341.095 275.262C341.589 275.13 341.969 274.907 342.235 274.593C342.507 274.269 342.659 273.896 342.689 273.475L343.92 273.146C343.913 273.856 343.689 274.495 343.249 275.062C342.806 275.62 342.175 276.009 341.355 276.229C340.702 276.404 340.076 276.414 339.479 276.26C338.89 276.104 338.377 275.797 337.94 275.34C337.501 274.875 337.187 274.286 336.996 273.574C336.805 272.863 336.781 272.201 336.922 271.589C337.063 270.977 337.35 270.46 337.785 270.039C338.225 269.607 338.78 269.301 339.45 269.121C340.103 268.947 340.719 268.934 341.297 269.084C341.876 269.234 342.366 269.524 342.769 269.955C343.178 270.375 343.466 270.899 343.634 271.527ZM342.39 271.604C342.273 271.169 342.077 270.822 341.802 270.564C341.524 270.297 341.196 270.13 340.819 270.06C340.447 269.98 340.061 269.994 339.659 270.102C339.081 270.257 338.637 270.573 338.325 271.051C338.022 271.527 337.929 272.1 338.045 272.768L342.39 271.604ZM347.882 269.662C347.653 268.808 347.64 267.99 347.843 267.209C348.045 266.419 348.424 265.743 348.982 265.181C349.549 264.617 350.238 264.225 351.05 264.008C352.005 263.752 352.899 263.759 353.734 264.029C354.569 264.299 355.263 264.813 355.816 265.571L354.447 265.937C354.063 265.475 353.603 265.163 353.066 265.002C352.538 264.838 351.956 264.842 351.319 265.012C350.708 265.176 350.198 265.465 349.789 265.88C349.38 266.295 349.107 266.803 348.973 267.404C348.835 267.997 348.861 268.646 349.049 269.349C349.236 270.044 349.537 270.618 349.955 271.071C350.37 271.516 350.859 271.816 351.421 271.97C351.983 272.125 352.569 272.12 353.18 271.957C353.816 271.786 354.323 271.502 354.701 271.105C355.086 270.697 355.328 270.196 355.43 269.604L356.799 269.237C356.696 270.162 356.351 270.95 355.763 271.601C355.173 272.244 354.4 272.693 353.446 272.949C352.634 273.166 351.843 273.176 351.072 272.979C350.307 272.771 349.642 272.38 349.075 271.805C348.508 271.23 348.11 270.516 347.882 269.662ZM364.469 265.944C364.527 266.162 364.576 266.395 364.616 266.645L359.116 268.118C359.34 268.785 359.712 269.255 360.234 269.528C360.762 269.79 361.327 269.841 361.93 269.679C362.424 269.547 362.804 269.324 363.07 269.011C363.342 268.686 363.493 268.314 363.524 267.893L364.754 267.563C364.747 268.274 364.524 268.912 364.083 269.479C363.641 270.037 363.009 270.426 362.189 270.646C361.536 270.821 360.911 270.832 360.313 270.678C359.724 270.522 359.211 270.215 358.775 269.758C358.336 269.292 358.021 268.703 357.83 267.992C357.64 267.28 357.615 266.618 357.756 266.006C357.897 265.394 358.185 264.878 358.619 264.456C359.06 264.024 359.615 263.718 360.285 263.539C360.938 263.364 361.553 263.351 362.132 263.502C362.71 263.652 363.201 263.942 363.603 264.372C364.012 264.792 364.3 265.316 364.469 265.944ZM363.224 266.022C363.108 265.586 362.912 265.24 362.636 264.981C362.358 264.715 362.031 264.547 361.653 264.478C361.282 264.398 360.895 264.412 360.493 264.519C359.916 264.674 359.471 264.991 359.16 265.469C358.857 265.945 358.763 266.517 358.88 267.186L363.224 266.022ZM368.445 261.339C369.282 261.115 370.028 261.188 370.684 261.56C371.338 261.923 371.792 262.582 372.048 263.536L373.135 267.592L372.005 267.895L370.962 264.002C370.778 263.316 370.466 262.839 370.026 262.571C369.584 262.294 369.066 262.236 368.472 262.395C367.869 262.556 367.438 262.874 367.179 263.347C366.929 263.818 366.9 264.413 367.093 265.133L368.112 268.938L366.969 269.244L365.126 262.363L366.268 262.057L366.531 263.036C366.663 262.624 366.895 262.27 367.229 261.974C367.571 261.676 367.976 261.465 368.445 261.339ZM373.646 263.741C373.458 263.037 373.435 262.384 373.578 261.78C373.719 261.168 373.998 260.65 374.413 260.224C374.837 259.797 375.354 259.501 375.965 259.337C376.568 259.176 377.126 259.165 377.639 259.306C378.152 259.447 378.571 259.684 378.894 260.02L378.557 258.764L379.712 258.454L381.556 265.336L380.401 265.645L380.058 264.364C379.94 264.827 379.69 265.252 379.31 265.641C378.936 266.02 378.452 266.289 377.857 266.448C377.246 266.612 376.653 266.609 376.079 266.44C375.504 266.271 375.001 265.953 374.571 265.485C374.14 265.017 373.832 264.435 373.646 263.741ZM379.476 262.192C379.337 261.673 379.111 261.249 378.798 260.92C378.486 260.591 378.123 260.374 377.709 260.27C377.301 260.155 376.884 260.154 376.457 260.269C376.03 260.383 375.668 260.588 375.37 260.883C375.072 261.178 374.87 261.546 374.764 261.987C374.658 262.429 374.675 262.909 374.814 263.428C374.955 263.955 375.183 264.387 375.498 264.725C375.81 265.054 376.17 265.276 376.578 265.391C376.983 265.498 377.4 265.494 377.827 265.379C378.254 265.265 378.616 265.06 378.914 264.765C379.218 264.459 379.423 264.086 379.529 263.645C379.632 263.195 379.615 262.711 379.476 262.192Z" fill="#4D4D4D"/>
<path d="M419.141 280.649L420.874 287.116C421.066 287.836 420.999 288.473 420.672 289.027C420.343 289.573 419.814 289.943 419.086 290.138C418.349 290.336 417.701 290.276 417.14 289.96C416.578 289.635 416.195 289.092 415.99 288.33L417.133 288.024C417.256 288.448 417.458 288.767 417.739 288.978C418.028 289.188 418.386 289.236 418.813 289.121C419.24 289.007 419.525 288.796 419.667 288.489C419.807 288.173 419.824 287.819 419.718 287.425L417.985 280.958L419.141 280.649ZM426.768 288.107C426.124 288.279 425.499 288.29 424.893 288.138C424.295 287.984 423.774 287.68 423.329 287.225C422.89 286.759 422.575 286.171 422.385 285.459C422.196 284.756 422.181 284.096 422.339 283.48C422.503 282.852 422.81 282.326 423.261 281.9C423.71 281.466 424.261 281.161 424.914 280.986C425.567 280.811 426.197 280.799 426.803 280.951C427.406 281.094 427.931 281.394 428.375 281.849C428.829 282.301 429.151 282.883 429.341 283.595C429.532 284.307 429.541 284.977 429.369 285.606C429.203 286.225 428.891 286.753 428.434 287.189C427.977 287.626 427.421 287.932 426.768 288.107ZM426.499 287.102C426.909 286.992 427.269 286.793 427.577 286.504C427.886 286.215 428.097 285.849 428.211 285.405C428.334 284.96 428.322 284.46 428.174 283.908C428.026 283.355 427.791 282.916 427.47 282.589C427.149 282.262 426.789 282.054 426.388 281.964C425.984 281.866 425.578 281.871 425.168 281.981C424.749 282.094 424.39 282.293 424.09 282.58C423.796 282.856 423.596 283.214 423.49 283.656C423.384 284.097 423.405 284.594 423.553 285.146C423.703 285.707 423.93 286.153 424.234 286.484C424.547 286.813 424.9 287.028 425.295 287.129C425.688 287.221 426.089 287.212 426.499 287.102ZM433.307 278.724C433.826 278.585 434.325 278.572 434.804 278.686C435.281 278.791 435.696 279.035 436.05 279.415C436.411 279.794 436.677 280.301 436.848 280.938L437.935 284.994L436.804 285.296L435.761 281.404C435.578 280.717 435.266 280.24 434.826 279.972C434.384 279.696 433.866 279.637 433.272 279.796C432.669 279.958 432.238 280.275 431.979 280.748C431.728 281.219 431.699 281.815 431.892 282.535L432.912 286.339L431.769 286.646L429.279 277.353L430.422 277.047L431.33 280.438C431.462 280.026 431.699 279.67 432.041 279.372C432.391 279.072 432.813 278.856 433.307 278.724ZM441.276 276.588C442.114 276.364 442.86 276.438 443.516 276.809C444.17 277.172 444.624 277.831 444.88 278.786L445.967 282.841L444.837 283.144L443.794 279.252C443.61 278.565 443.298 278.088 442.858 277.82C442.416 277.544 441.898 277.485 441.304 277.644C440.701 277.806 440.27 278.123 440.011 278.596C439.76 279.067 439.731 279.663 439.924 280.383L440.944 284.187L439.801 284.493L437.957 277.612L439.1 277.306L439.363 278.285C439.494 277.873 439.727 277.519 440.06 277.224C440.402 276.926 440.808 276.714 441.276 276.588ZM451.561 271.962C452.515 271.706 453.388 271.665 454.179 271.839C454.977 272.002 455.648 272.365 456.194 272.928C456.747 273.488 457.144 274.216 457.384 275.112C457.624 276.008 457.645 276.837 457.445 277.599C457.252 278.351 456.851 278.996 456.242 279.536C455.639 280.066 454.86 280.458 453.906 280.714L451.181 281.444L448.836 272.692L451.561 271.962ZM453.654 279.772C454.784 279.47 455.566 278.941 456.001 278.188C456.434 277.426 456.506 276.505 456.217 275.425C455.925 274.337 455.396 273.568 454.63 273.118C453.871 272.666 452.931 272.591 451.81 272.891L450.228 273.315L452.071 280.196L453.654 279.772ZM463.091 278.374C462.446 278.547 461.821 278.557 461.215 278.406C460.617 278.252 460.096 277.947 459.651 277.492C459.212 277.027 458.898 276.438 458.707 275.727C458.519 275.023 458.503 274.364 458.661 273.747C458.825 273.12 459.133 272.593 459.584 272.167C460.033 271.733 460.584 271.428 461.236 271.253C461.889 271.079 462.519 271.067 463.125 271.219C463.728 271.362 464.253 271.661 464.698 272.116C465.151 272.569 465.473 273.151 465.664 273.863C465.854 274.574 465.863 275.245 465.691 275.874C465.525 276.493 465.213 277.02 464.756 277.457C464.299 277.893 463.744 278.199 463.091 278.374ZM462.821 277.37C463.232 277.26 463.591 277.06 463.899 276.771C464.208 276.482 464.419 276.116 464.534 275.673C464.656 275.227 464.644 274.728 464.496 274.175C464.348 273.623 464.113 273.183 463.792 272.857C463.472 272.53 463.111 272.321 462.71 272.231C462.307 272.133 461.9 272.139 461.49 272.249C461.071 272.361 460.712 272.56 460.412 272.847C460.118 273.123 459.918 273.482 459.812 273.923C459.706 274.364 459.727 274.861 459.875 275.414C460.025 275.975 460.252 276.421 460.556 276.752C460.869 277.081 461.223 277.296 461.617 277.396C462.01 277.488 462.411 277.48 462.821 277.37ZM473.377 271.527C473.436 271.744 473.485 271.978 473.525 272.227L468.025 273.701C468.248 274.368 468.621 274.838 469.143 275.111C469.67 275.373 470.236 275.423 470.839 275.262C471.332 275.13 471.712 274.907 471.978 274.593C472.25 274.269 472.402 273.896 472.432 273.475L473.663 273.146C473.656 273.856 473.432 274.495 472.992 275.062C472.55 275.62 471.918 276.009 471.098 276.229C470.445 276.404 469.819 276.414 469.222 276.26C468.633 276.104 468.12 275.797 467.683 275.34C467.244 274.875 466.93 274.286 466.739 273.574C466.548 272.863 466.524 272.201 466.665 271.589C466.806 270.977 467.094 270.46 467.528 270.039C467.968 269.607 468.524 269.301 469.193 269.121C469.846 268.947 470.462 268.934 471.04 269.084C471.619 269.234 472.11 269.524 472.512 269.955C472.921 270.375 473.209 270.899 473.377 271.527ZM472.133 271.604C472.016 271.169 471.82 270.822 471.545 270.564C471.267 270.297 470.939 270.13 470.562 270.06C470.19 269.98 469.804 269.994 469.402 270.102C468.824 270.257 468.38 270.573 468.068 271.051C467.765 271.527 467.672 272.1 467.788 272.768L472.133 271.604ZM477.625 269.662C477.396 268.808 477.383 267.99 477.587 267.209C477.788 266.419 478.167 265.743 478.726 265.181C479.292 264.617 479.981 264.225 480.793 264.008C481.748 263.752 482.642 263.759 483.477 264.029C484.312 264.299 485.006 264.813 485.559 265.571L484.19 265.937C483.806 265.475 483.346 265.163 482.809 265.002C482.281 264.838 481.699 264.842 481.063 265.012C480.451 265.176 479.941 265.465 479.532 265.88C479.123 266.295 478.851 266.803 478.716 267.404C478.578 267.997 478.604 268.646 478.792 269.349C478.979 270.044 479.281 270.618 479.698 271.071C480.113 271.516 480.602 271.816 481.164 271.97C481.726 272.125 482.312 272.12 482.923 271.957C483.559 271.786 484.067 271.502 484.445 271.105C484.829 270.697 485.072 270.196 485.173 269.604L486.542 269.237C486.44 270.162 486.094 270.95 485.506 271.601C484.916 272.244 484.143 272.693 483.189 272.949C482.377 273.166 481.586 273.176 480.815 272.979C480.05 272.771 479.385 272.38 478.818 271.805C478.251 271.23 477.853 270.516 477.625 269.662ZM494.212 265.944C494.27 266.162 494.319 266.395 494.359 266.645L488.859 268.118C489.083 268.785 489.455 269.255 489.977 269.528C490.505 269.79 491.07 269.841 491.673 269.679C492.167 269.547 492.547 269.324 492.813 269.011C493.085 268.686 493.236 268.314 493.267 267.893L494.497 267.563C494.491 268.274 494.267 268.912 493.826 269.479C493.384 270.037 492.752 270.426 491.932 270.646C491.279 270.821 490.654 270.832 490.056 270.678C489.467 270.522 488.954 270.215 488.518 269.758C488.079 269.292 487.764 268.703 487.573 267.992C487.383 267.28 487.358 266.618 487.499 266.006C487.64 265.394 487.928 264.878 488.362 264.456C488.803 264.024 489.358 263.718 490.028 263.539C490.681 263.364 491.296 263.351 491.875 263.502C492.453 263.652 492.944 263.942 493.346 264.372C493.755 264.792 494.043 265.316 494.212 265.944ZM492.967 266.022C492.851 265.586 492.655 265.24 492.379 264.981C492.101 264.715 491.774 264.547 491.396 264.478C491.025 264.398 490.638 264.412 490.236 264.519C489.659 264.674 489.214 264.991 488.903 265.469C488.6 265.945 488.506 266.517 488.623 267.186L492.967 266.022ZM498.188 261.339C499.025 261.115 499.771 261.188 500.427 261.56C501.081 261.923 501.536 262.582 501.791 263.536L502.878 267.592L501.748 267.895L500.705 264.002C500.521 263.316 500.209 262.839 499.769 262.571C499.328 262.294 498.809 262.236 498.215 262.395C497.612 262.556 497.181 262.874 496.922 263.347C496.672 263.818 496.643 264.413 496.836 265.133L497.855 268.938L496.713 269.244L494.869 262.363L496.011 262.057L496.274 263.036C496.406 262.624 496.638 262.27 496.972 261.974C497.314 261.676 497.719 261.465 498.188 261.339ZM503.389 263.741C503.201 263.037 503.178 262.384 503.321 261.78C503.462 261.168 503.741 260.65 504.156 260.224C504.58 259.797 505.097 259.501 505.708 259.337C506.311 259.176 506.869 259.165 507.382 259.306C507.896 259.447 508.314 259.684 508.637 260.02L508.3 258.764L509.456 258.454L511.299 265.336L510.144 265.645L509.801 264.364C509.683 264.827 509.433 265.252 509.053 265.641C508.679 266.02 508.195 266.289 507.6 266.448C506.989 266.612 506.396 266.609 505.822 266.44C505.247 266.271 504.744 265.953 504.314 265.485C503.884 265.017 503.575 264.435 503.389 263.741ZM509.219 262.192C509.08 261.673 508.854 261.249 508.542 260.92C508.229 260.591 507.866 260.374 507.452 260.27C507.044 260.155 506.627 260.154 506.2 260.269C505.773 260.383 505.411 260.588 505.113 260.883C504.815 261.178 504.613 261.546 504.507 261.987C504.401 262.429 504.418 262.909 504.557 263.428C504.698 263.955 504.926 264.387 505.241 264.725C505.553 265.054 505.913 265.276 506.321 265.391C506.727 265.498 507.143 265.494 507.57 265.379C507.997 265.265 508.359 265.06 508.657 264.765C508.961 264.459 509.166 264.086 509.272 263.645C509.376 263.195 509.358 262.711 509.219 262.192Z" fill="#4D4D4D"/>
<path d="M548.884 280.649L550.617 287.116C550.809 287.836 550.742 288.473 550.415 289.027C550.086 289.573 549.557 289.943 548.829 290.138C548.092 290.336 547.444 290.276 546.883 289.96C546.321 289.635 545.938 289.092 545.733 288.33L546.876 288.024C546.999 288.448 547.201 288.767 547.482 288.978C547.771 289.188 548.129 289.236 548.556 289.121C548.983 289.007 549.268 288.796 549.41 288.489C549.55 288.173 549.567 287.819 549.461 287.425L547.729 280.958L548.884 280.649ZM556.511 288.107C555.867 288.279 555.242 288.29 554.636 288.138C554.038 287.984 553.517 287.68 553.072 287.225C552.633 286.759 552.319 286.171 552.128 285.459C551.939 284.756 551.924 284.096 552.082 283.48C552.246 282.852 552.553 282.326 553.005 281.9C553.453 281.466 554.004 281.161 554.657 280.986C555.31 280.811 555.94 280.799 556.546 280.951C557.149 281.094 557.674 281.394 558.119 281.849C558.572 282.301 558.894 282.883 559.084 283.595C559.275 284.307 559.284 284.977 559.112 285.606C558.946 286.225 558.634 286.753 558.177 287.189C557.72 287.626 557.164 287.932 556.511 288.107ZM556.242 287.102C556.653 286.992 557.012 286.793 557.32 286.504C557.629 286.215 557.84 285.849 557.954 285.405C558.077 284.96 558.065 284.46 557.917 283.908C557.769 283.355 557.534 282.916 557.213 282.589C556.892 282.262 556.532 282.054 556.131 281.964C555.727 281.866 555.321 281.871 554.911 281.981C554.492 282.094 554.133 282.293 553.833 282.58C553.539 282.856 553.339 283.214 553.233 283.656C553.127 284.097 553.148 284.594 553.296 285.146C553.446 285.707 553.673 286.153 553.977 286.484C554.29 286.813 554.643 287.028 555.038 287.129C555.431 287.221 555.832 287.212 556.242 287.102ZM563.05 278.724C563.569 278.585 564.068 278.572 564.547 278.686C565.024 278.791 565.439 279.035 565.793 279.415C566.154 279.794 566.42 280.301 566.591 280.938L567.678 284.994L566.548 285.296L565.504 281.404C565.321 280.717 565.009 280.24 564.569 279.972C564.127 279.696 563.609 279.637 563.015 279.796C562.412 279.958 561.981 280.275 561.722 280.748C561.471 281.219 561.442 281.815 561.635 282.535L562.655 286.339L561.512 286.646L559.022 277.353L560.165 277.047L561.073 280.438C561.205 280.026 561.442 279.67 561.784 279.372C562.134 279.072 562.556 278.856 563.05 278.724ZM571.02 276.588C571.857 276.364 572.603 276.438 573.259 276.809C573.913 277.172 574.367 277.831 574.623 278.786L575.71 282.841L574.58 283.144L573.537 279.252C573.353 278.565 573.041 278.088 572.601 277.82C572.159 277.544 571.641 277.485 571.047 277.644C570.444 277.806 570.013 278.123 569.754 278.596C569.503 279.067 569.475 279.663 569.667 280.383L570.687 284.187L569.544 284.493L567.7 277.612L568.843 277.306L569.106 278.285C569.237 277.873 569.47 277.519 569.804 277.224C570.145 276.926 570.551 276.714 571.02 276.588ZM581.304 271.962C582.258 271.706 583.131 271.665 583.922 271.839C584.72 272.002 585.391 272.365 585.937 272.928C586.491 273.488 586.887 274.216 587.128 275.112C587.368 276.008 587.388 276.837 587.188 277.599C586.995 278.351 586.594 278.996 585.985 279.536C585.382 280.066 584.603 280.458 583.649 280.714L580.924 281.444L578.579 272.692L581.304 271.962ZM583.397 279.772C584.527 279.47 585.309 278.941 585.744 278.188C586.177 277.426 586.249 276.505 585.96 275.425C585.668 274.337 585.139 273.568 584.373 273.118C583.614 272.666 582.675 272.591 581.553 272.891L579.971 273.315L581.814 280.196L583.397 279.772ZM592.834 278.374C592.189 278.547 591.564 278.557 590.958 278.406C590.36 278.252 589.839 277.947 589.394 277.492C588.955 277.027 588.641 276.438 588.45 275.727C588.262 275.023 588.246 274.364 588.404 273.747C588.568 273.12 588.876 272.593 589.327 272.167C589.776 271.733 590.327 271.428 590.98 271.253C591.632 271.079 592.262 271.067 592.868 271.219C593.471 271.362 593.996 271.661 594.441 272.116C594.894 272.569 595.216 273.151 595.407 273.863C595.597 274.574 595.606 275.245 595.434 275.874C595.268 276.493 594.956 277.02 594.499 277.457C594.042 277.893 593.487 278.199 592.834 278.374ZM592.565 277.37C592.975 277.26 593.334 277.06 593.642 276.771C593.951 276.482 594.162 276.116 594.277 275.673C594.399 275.227 594.387 274.728 594.239 274.175C594.091 273.623 593.856 273.183 593.536 272.857C593.215 272.53 592.854 272.321 592.453 272.231C592.05 272.133 591.643 272.139 591.233 272.249C590.814 272.361 590.455 272.56 590.155 272.847C589.861 273.123 589.661 273.482 589.555 273.923C589.449 274.364 589.47 274.861 589.618 275.414C589.768 275.975 589.995 276.421 590.299 276.752C590.612 277.081 590.966 277.296 591.36 277.396C591.753 277.488 592.154 277.48 592.565 277.37ZM603.12 271.527C603.179 271.744 603.228 271.978 603.268 272.227L597.768 273.701C597.991 274.368 598.364 274.838 598.886 275.111C599.414 275.373 599.979 275.423 600.582 275.262C601.075 275.13 601.455 274.907 601.721 274.593C601.993 274.269 602.145 273.896 602.176 273.475L603.406 273.146C603.399 273.856 603.176 274.495 602.735 275.062C602.293 275.62 601.661 276.009 600.841 276.229C600.188 276.404 599.562 276.414 598.965 276.26C598.376 276.104 597.863 275.797 597.426 275.34C596.988 274.875 596.673 274.286 596.482 273.574C596.291 272.863 596.267 272.201 596.408 271.589C596.549 270.977 596.837 270.46 597.271 270.039C597.711 269.607 598.267 269.301 598.936 269.121C599.589 268.947 600.205 268.934 600.784 269.084C601.362 269.234 601.853 269.524 602.255 269.955C602.664 270.375 602.952 270.899 603.12 271.527ZM601.876 271.604C601.759 271.169 601.563 270.822 601.288 270.564C601.01 270.297 600.682 270.13 600.305 270.06C599.934 269.98 599.547 269.994 599.145 270.102C598.567 270.257 598.123 270.573 597.811 271.051C597.508 271.527 597.415 272.1 597.531 272.768L601.876 271.604ZM607.368 269.662C607.139 268.808 607.126 267.99 607.33 267.209C607.531 266.419 607.91 265.743 608.469 265.181C609.035 264.617 609.724 264.225 610.536 264.008C611.491 263.752 612.385 263.759 613.22 264.029C614.055 264.299 614.749 264.813 615.302 265.571L613.934 265.937C613.549 265.475 613.089 265.163 612.552 265.002C612.024 264.838 611.442 264.842 610.806 265.012C610.194 265.176 609.684 265.465 609.275 265.88C608.866 266.295 608.594 266.803 608.459 267.404C608.321 267.997 608.347 268.646 608.536 269.349C608.722 270.044 609.024 270.618 609.441 271.071C609.856 271.516 610.345 271.816 610.907 271.97C611.469 272.125 612.055 272.12 612.666 271.957C613.302 271.786 613.81 271.502 614.188 271.105C614.572 270.697 614.815 270.196 614.916 269.604L616.285 269.237C616.183 270.162 615.837 270.95 615.249 271.601C614.659 272.244 613.886 272.693 612.932 272.949C612.12 273.166 611.329 273.176 610.558 272.979C609.793 272.771 609.128 272.38 608.561 271.805C607.994 271.23 607.597 270.516 607.368 269.662ZM623.955 265.944C624.013 266.162 624.062 266.395 624.102 266.645L618.602 268.118C618.826 268.785 619.198 269.255 619.72 269.528C620.248 269.79 620.813 269.841 621.416 269.679C621.91 269.547 622.29 269.324 622.556 269.011C622.828 268.686 622.979 268.314 623.01 267.893L624.241 267.563C624.234 268.274 624.01 268.912 623.57 269.479C623.127 270.037 622.495 270.426 621.675 270.646C621.022 270.821 620.397 270.832 619.799 270.678C619.21 270.522 618.697 270.215 618.261 269.758C617.822 269.292 617.507 268.703 617.317 267.992C617.126 267.28 617.101 266.618 617.242 266.006C617.383 265.394 617.671 264.878 618.105 264.456C618.546 264.024 619.101 263.718 619.771 263.539C620.424 263.364 621.039 263.351 621.618 263.502C622.196 263.652 622.687 263.942 623.089 264.372C623.498 264.792 623.786 265.316 623.955 265.944ZM622.71 266.022C622.594 265.586 622.398 265.24 622.122 264.981C621.844 264.715 621.517 264.547 621.139 264.478C620.768 264.398 620.381 264.412 619.98 264.519C619.402 264.674 618.957 264.991 618.646 265.469C618.343 265.945 618.249 266.517 618.366 267.186L622.71 266.022ZM627.931 261.339C628.768 261.115 629.514 261.188 630.17 261.56C630.824 261.923 631.279 262.582 631.534 263.536L632.621 267.592L631.491 267.895L630.448 264.002C630.264 263.316 629.952 262.839 629.512 262.571C629.071 262.294 628.552 262.236 627.958 262.395C627.355 262.556 626.924 262.874 626.665 263.347C626.415 263.818 626.386 264.413 626.579 265.133L627.598 268.938L626.456 269.244L624.612 262.363L625.754 262.057L626.017 263.036C626.149 262.624 626.381 262.27 626.715 261.974C627.057 261.676 627.462 261.465 627.931 261.339ZM633.132 263.741C632.944 263.037 632.921 262.384 633.064 261.78C633.205 261.168 633.484 260.65 633.899 260.224C634.323 259.797 634.84 259.501 635.451 259.337C636.054 259.176 636.612 259.165 637.125 259.306C637.639 259.447 638.057 259.684 638.38 260.02L638.043 258.764L639.199 258.454L641.042 265.336L639.887 265.645L639.544 264.364C639.426 264.827 639.176 265.252 638.796 265.641C638.422 266.02 637.938 266.289 637.343 266.448C636.732 266.612 636.139 266.609 635.565 266.44C634.99 266.271 634.487 265.953 634.057 265.485C633.627 265.017 633.318 264.435 633.132 263.741ZM638.962 262.192C638.823 261.673 638.597 261.249 638.285 260.92C637.972 260.591 637.609 260.374 637.195 260.27C636.788 260.155 636.37 260.154 635.943 260.269C635.516 260.383 635.154 260.588 634.856 260.883C634.558 261.178 634.357 261.546 634.25 261.987C634.144 262.429 634.161 262.909 634.3 263.428C634.441 263.955 634.669 264.387 634.984 264.725C635.296 265.054 635.656 265.276 636.064 265.391C636.47 265.498 636.886 265.494 637.313 265.379C637.74 265.265 638.102 265.06 638.4 264.765C638.704 264.459 638.909 264.086 639.015 263.645C639.119 263.195 639.101 262.711 638.962 262.192Z" fill="#4D4D4D"/>
<path d="M46 129.424C46 127.215 47.7909 125.424 50 125.424H83C85.2091 125.424 87 127.215 87 129.424V251.568H46V129.424Z" fill="#38BAE0"/>
<path d="M321 16.2541C321 14.045 322.791 12.2541 325 12.2541H358C360.209 12.2541 362 14.045 362 16.2541V251.568H321V16.2541Z" fill="#38BAE0"/>
<path d="M450 60.2244C450 58.0152 451.791 56.2244 454 56.2244H487C489.209 56.2244 491 58.0152 491 60.2244V251.568H450V60.2244Z" fill="#38BAE0"/>
<path d="M181 118.611C181 116.402 182.791 114.611 185 114.611H218C220.209 114.611 222 116.402 222 118.611V251.568H181V118.611Z" fill="#38BAE0"/>
<rect x="232" y="310.071" width="16" height="16" rx="2" fill="#38BAE0"/>
<path d="M263.084 313.313V314.349H260.424V323.071H259.15V314.349H256.476V313.313H263.084ZM267.998 323.197C267.28 323.197 266.626 323.034 266.038 322.707C265.46 322.38 265.002 321.918 264.666 321.321C264.34 320.714 264.176 320.014 264.176 319.221C264.176 318.437 264.344 317.746 264.68 317.149C265.026 316.542 265.492 316.08 266.08 315.763C266.668 315.436 267.326 315.273 268.054 315.273C268.782 315.273 269.44 315.436 270.028 315.763C270.616 316.08 271.078 316.538 271.414 317.135C271.76 317.732 271.932 318.428 271.932 319.221C271.932 320.014 271.755 320.714 271.4 321.321C271.055 321.918 270.584 322.38 269.986 322.707C269.389 323.034 268.726 323.197 267.998 323.197ZM267.998 322.077C268.456 322.077 268.885 321.97 269.286 321.755C269.688 321.54 270.01 321.218 270.252 320.789C270.504 320.36 270.63 319.837 270.63 319.221C270.63 318.605 270.509 318.082 270.266 317.653C270.024 317.224 269.706 316.906 269.314 316.701C268.922 316.486 268.498 316.379 268.04 316.379C267.574 316.379 267.144 316.486 266.752 316.701C266.37 316.906 266.062 317.224 265.828 317.653C265.595 318.082 265.478 318.605 265.478 319.221C265.478 319.846 265.59 320.374 265.814 320.803C266.048 321.232 266.356 321.554 266.738 321.769C267.121 321.974 267.541 322.077 267.998 322.077ZM274.881 316.813C275.133 316.374 275.507 316.01 276.001 315.721C276.505 315.422 277.089 315.273 277.751 315.273C278.433 315.273 279.049 315.436 279.599 315.763C280.159 316.09 280.598 316.552 280.915 317.149C281.233 317.737 281.391 318.423 281.391 319.207C281.391 319.982 281.233 320.672 280.915 321.279C280.598 321.886 280.159 322.357 279.599 322.693C279.049 323.029 278.433 323.197 277.751 323.197C277.098 323.197 276.519 323.052 276.015 322.763C275.521 322.464 275.143 322.096 274.881 321.657V326.711H273.607V315.399H274.881V316.813ZM280.089 319.207C280.089 318.628 279.973 318.124 279.739 317.695C279.506 317.266 279.189 316.939 278.787 316.715C278.395 316.491 277.961 316.379 277.485 316.379C277.019 316.379 276.585 316.496 276.183 316.729C275.791 316.953 275.474 317.284 275.231 317.723C274.998 318.152 274.881 318.652 274.881 319.221C274.881 319.8 274.998 320.308 275.231 320.747C275.474 321.176 275.791 321.508 276.183 321.741C276.585 321.965 277.019 322.077 277.485 322.077C277.961 322.077 278.395 321.965 278.787 321.741C279.189 321.508 279.506 321.176 279.739 320.747C279.973 320.308 280.089 319.795 280.089 319.207ZM293.045 314.055H288.131V317.247C288.345 316.948 288.663 316.706 289.083 316.519C289.503 316.323 289.955 316.225 290.441 316.225C291.215 316.225 291.845 316.388 292.331 316.715C292.816 317.032 293.161 317.448 293.367 317.961C293.581 318.465 293.689 319.002 293.689 319.571C293.689 320.243 293.563 320.845 293.311 321.377C293.059 321.909 292.671 322.329 292.149 322.637C291.635 322.945 290.996 323.099 290.231 323.099C289.251 323.099 288.457 322.847 287.851 322.343C287.244 321.839 286.875 321.167 286.745 320.327H287.991C288.112 320.859 288.369 321.274 288.761 321.573C289.153 321.872 289.647 322.021 290.245 322.021C290.982 322.021 291.537 321.802 291.911 321.363C292.284 320.915 292.471 320.327 292.471 319.599C292.471 318.871 292.284 318.311 291.911 317.919C291.537 317.518 290.987 317.317 290.259 317.317C289.764 317.317 289.33 317.438 288.957 317.681C288.593 317.914 288.327 318.236 288.159 318.647H286.955V312.935H293.045V314.055ZM305.092 320.901H300.836L300.052 323.071H298.708L302.236 313.369H303.706L307.22 323.071H305.876L305.092 320.901ZM304.728 319.865L302.964 314.937L301.2 319.865H304.728ZM310.032 316.813C310.284 316.374 310.657 316.01 311.152 315.721C311.656 315.422 312.239 315.273 312.902 315.273C313.583 315.273 314.199 315.436 314.75 315.763C315.31 316.09 315.748 316.552 316.066 317.149C316.383 317.737 316.542 318.423 316.542 319.207C316.542 319.982 316.383 320.672 316.066 321.279C315.748 321.886 315.31 322.357 314.75 322.693C314.199 323.029 313.583 323.197 312.902 323.197C312.248 323.197 311.67 323.052 311.166 322.763C310.671 322.464 310.293 322.096 310.032 321.657V326.711H308.758V315.399H310.032V316.813ZM315.24 319.207C315.24 318.628 315.123 318.124 314.89 317.695C314.656 317.266 314.339 316.939 313.938 316.715C313.546 316.491 313.112 316.379 312.636 316.379C312.169 316.379 311.735 316.496 311.334 316.729C310.942 316.953 310.624 317.284 310.382 317.723C310.148 318.152 310.032 318.652 310.032 319.221C310.032 319.8 310.148 320.308 310.382 320.747C310.624 321.176 310.942 321.508 311.334 321.741C311.735 321.965 312.169 322.077 312.636 322.077C313.112 322.077 313.546 321.965 313.938 321.741C314.339 321.508 314.656 321.176 314.89 320.747C315.123 320.308 315.24 319.795 315.24 319.207ZM319.493 316.813C319.745 316.374 320.118 316.01 320.613 315.721C321.117 315.422 321.7 315.273 322.363 315.273C323.044 315.273 323.66 315.436 324.211 315.763C324.771 316.09 325.209 316.552 325.527 317.149C325.844 317.737 326.003 318.423 326.003 319.207C326.003 319.982 325.844 320.672 325.527 321.279C325.209 321.886 324.771 322.357 324.211 322.693C323.66 323.029 323.044 323.197 322.363 323.197C321.709 323.197 321.131 323.052 320.627 322.763C320.132 322.464 319.754 322.096 319.493 321.657V326.711H318.219V315.399H319.493V316.813ZM324.701 319.207C324.701 318.628 324.584 318.124 324.351 317.695C324.117 317.266 323.8 316.939 323.399 316.715C323.007 316.491 322.573 316.379 322.097 316.379C321.63 316.379 321.196 316.496 320.795 316.729C320.403 316.953 320.085 317.284 319.843 317.723C319.609 318.152 319.493 318.652 319.493 319.221C319.493 319.8 319.609 320.308 319.843 320.747C320.085 321.176 320.403 321.508 320.795 321.741C321.196 321.965 321.63 322.077 322.097 322.077C322.573 322.077 323.007 321.965 323.399 321.741C323.8 321.508 324.117 321.176 324.351 320.747C324.584 320.308 324.701 319.795 324.701 319.207ZM328.954 312.711V323.071H327.68V312.711H328.954ZM331.783 314.153C331.54 314.153 331.335 314.069 331.167 313.901C330.999 313.733 330.915 313.528 330.915 313.285C330.915 313.042 330.999 312.837 331.167 312.669C331.335 312.501 331.54 312.417 331.783 312.417C332.016 312.417 332.212 312.501 332.371 312.669C332.539 312.837 332.623 313.042 332.623 313.285C332.623 313.528 332.539 313.733 332.371 313.901C332.212 314.069 332.016 314.153 331.783 314.153ZM332.399 315.399V323.071H331.125V315.399H332.399ZM334.094 319.221C334.094 318.428 334.253 317.737 334.57 317.149C334.888 316.552 335.326 316.09 335.886 315.763C336.456 315.436 337.104 315.273 337.832 315.273C338.775 315.273 339.55 315.502 340.156 315.959C340.772 316.416 341.178 317.051 341.374 317.863H340.002C339.872 317.396 339.615 317.028 339.232 316.757C338.859 316.486 338.392 316.351 337.832 316.351C337.104 316.351 336.516 316.603 336.068 317.107C335.62 317.602 335.396 318.306 335.396 319.221C335.396 320.145 335.62 320.859 336.068 321.363C336.516 321.867 337.104 322.119 337.832 322.119C338.392 322.119 338.859 321.988 339.232 321.727C339.606 321.466 339.862 321.092 340.002 320.607H341.374C341.169 321.391 340.758 322.021 340.142 322.497C339.526 322.964 338.756 323.197 337.832 323.197C337.104 323.197 336.456 323.034 335.886 322.707C335.326 322.38 334.888 321.918 334.57 321.321C334.253 320.724 334.094 320.024 334.094 319.221ZM342.598 319.207C342.598 318.423 342.757 317.737 343.074 317.149C343.391 316.552 343.825 316.09 344.376 315.763C344.936 315.436 345.557 315.273 346.238 315.273C346.91 315.273 347.493 315.418 347.988 315.707C348.483 315.996 348.851 316.36 349.094 316.799V315.399H350.382V323.071H349.094V321.643C348.842 322.091 348.464 322.464 347.96 322.763C347.465 323.052 346.887 323.197 346.224 323.197C345.543 323.197 344.927 323.029 344.376 322.693C343.825 322.357 343.391 321.886 343.074 321.279C342.757 320.672 342.598 319.982 342.598 319.207ZM349.094 319.221C349.094 318.642 348.977 318.138 348.744 317.709C348.511 317.28 348.193 316.953 347.792 316.729C347.4 316.496 346.966 316.379 346.49 316.379C346.014 316.379 345.58 316.491 345.188 316.715C344.796 316.939 344.483 317.266 344.25 317.695C344.017 318.124 343.9 318.628 343.9 319.207C343.9 319.795 344.017 320.308 344.25 320.747C344.483 321.176 344.796 321.508 345.188 321.741C345.58 321.965 346.014 322.077 346.49 322.077C346.966 322.077 347.4 321.965 347.792 321.741C348.193 321.508 348.511 321.176 348.744 320.747C348.977 320.308 349.094 319.8 349.094 319.221ZM354.089 316.449V320.971C354.089 321.344 354.168 321.61 354.327 321.769C354.486 321.918 354.761 321.993 355.153 321.993H356.091V323.071H354.943C354.234 323.071 353.702 322.908 353.347 322.581C352.992 322.254 352.815 321.718 352.815 320.971V316.449H351.821V315.399H352.815V313.467H354.089V315.399H356.091V316.449H354.089ZM358.293 314.153C358.05 314.153 357.845 314.069 357.677 313.901C357.509 313.733 357.425 313.528 357.425 313.285C357.425 313.042 357.509 312.837 357.677 312.669C357.845 312.501 358.05 312.417 358.293 312.417C358.526 312.417 358.722 312.501 358.881 312.669C359.049 312.837 359.133 313.042 359.133 313.285C359.133 313.528 359.049 313.733 358.881 313.901C358.722 314.069 358.526 314.153 358.293 314.153ZM358.909 315.399V323.071H357.635V315.399H358.909ZM364.426 323.197C363.707 323.197 363.054 323.034 362.466 322.707C361.887 322.38 361.43 321.918 361.094 321.321C360.767 320.714 360.604 320.014 360.604 319.221C360.604 318.437 360.772 317.746 361.108 317.149C361.453 316.542 361.92 316.08 362.508 315.763C363.096 315.436 363.754 315.273 364.482 315.273C365.21 315.273 365.868 315.436 366.456 315.763C367.044 316.08 367.506 316.538 367.842 317.135C368.187 317.732 368.36 318.428 368.36 319.221C368.36 320.014 368.183 320.714 367.828 321.321C367.483 321.918 367.011 322.38 366.414 322.707C365.817 323.034 365.154 323.197 364.426 323.197ZM364.426 322.077C364.883 322.077 365.313 321.97 365.714 321.755C366.115 321.54 366.437 321.218 366.68 320.789C366.932 320.36 367.058 319.837 367.058 319.221C367.058 318.605 366.937 318.082 366.694 317.653C366.451 317.224 366.134 316.906 365.742 316.701C365.35 316.486 364.925 316.379 364.468 316.379C364.001 316.379 363.572 316.486 363.18 316.701C362.797 316.906 362.489 317.224 362.256 317.653C362.023 318.082 361.906 318.605 361.906 319.221C361.906 319.846 362.018 320.374 362.242 320.803C362.475 321.232 362.783 321.554 363.166 321.769C363.549 321.974 363.969 322.077 364.426 322.077ZM373.773 315.259C374.706 315.259 375.462 315.544 376.041 316.113C376.62 316.673 376.909 317.485 376.909 318.549V323.071H375.649V318.731C375.649 317.966 375.458 317.382 375.075 316.981C374.692 316.57 374.17 316.365 373.507 316.365C372.835 316.365 372.298 316.575 371.897 316.995C371.505 317.415 371.309 318.026 371.309 318.829V323.071H370.035V315.399H371.309V316.491C371.561 316.099 371.902 315.796 372.331 315.581C372.77 315.366 373.25 315.259 373.773 315.259ZM383.969 313.313V319.487C383.969 320.355 384.179 320.999 384.599 321.419C385.028 321.839 385.621 322.049 386.377 322.049C387.123 322.049 387.707 321.839 388.127 321.419C388.556 320.999 388.771 320.355 388.771 319.487V313.313H390.045V319.473C390.045 320.285 389.881 320.971 389.555 321.531C389.228 322.082 388.785 322.492 388.225 322.763C387.674 323.034 387.053 323.169 386.363 323.169C385.672 323.169 385.047 323.034 384.487 322.763C383.936 322.492 383.497 322.082 383.171 321.531C382.853 320.971 382.695 320.285 382.695 319.473V313.313H383.969ZM394.886 323.197C394.298 323.197 393.77 323.099 393.304 322.903C392.837 322.698 392.468 322.418 392.198 322.063C391.927 321.699 391.778 321.284 391.75 320.817H393.066C393.103 321.2 393.28 321.512 393.598 321.755C393.924 321.998 394.349 322.119 394.872 322.119C395.357 322.119 395.74 322.012 396.02 321.797C396.3 321.582 396.44 321.312 396.44 320.985C396.44 320.649 396.29 320.402 395.992 320.243C395.693 320.075 395.231 319.912 394.606 319.753C394.036 319.604 393.57 319.454 393.206 319.305C392.851 319.146 392.543 318.918 392.282 318.619C392.03 318.311 391.904 317.91 391.904 317.415C391.904 317.023 392.02 316.664 392.254 316.337C392.487 316.01 392.818 315.754 393.248 315.567C393.677 315.371 394.167 315.273 394.718 315.273C395.567 315.273 396.253 315.488 396.776 315.917C397.298 316.346 397.578 316.934 397.616 317.681H396.342C396.314 317.28 396.15 316.958 395.852 316.715C395.562 316.472 395.17 316.351 394.676 316.351C394.218 316.351 393.854 316.449 393.584 316.645C393.313 316.841 393.178 317.098 393.178 317.415C393.178 317.667 393.257 317.877 393.416 318.045C393.584 318.204 393.789 318.334 394.032 318.437C394.284 318.53 394.629 318.638 395.068 318.759C395.618 318.908 396.066 319.058 396.412 319.207C396.757 319.347 397.051 319.562 397.294 319.851C397.546 320.14 397.676 320.518 397.686 320.985C397.686 321.405 397.569 321.783 397.336 322.119C397.102 322.455 396.771 322.721 396.342 322.917C395.922 323.104 395.436 323.197 394.886 323.197ZM406.484 318.941C406.484 319.184 406.47 319.44 406.442 319.711H400.31C400.357 320.467 400.614 321.06 401.08 321.489C401.556 321.909 402.13 322.119 402.802 322.119C403.353 322.119 403.81 321.993 404.174 321.741C404.548 321.48 404.809 321.134 404.958 320.705H406.33C406.125 321.442 405.714 322.044 405.098 322.511C404.482 322.968 403.717 323.197 402.802 323.197C402.074 323.197 401.421 323.034 400.842 322.707C400.273 322.38 399.825 321.918 399.498 321.321C399.172 320.714 399.008 320.014 399.008 319.221C399.008 318.428 399.167 317.732 399.484 317.135C399.802 316.538 400.245 316.08 400.814 315.763C401.393 315.436 402.056 315.273 402.802 315.273C403.53 315.273 404.174 315.432 404.734 315.749C405.294 316.066 405.724 316.505 406.022 317.065C406.33 317.616 406.484 318.241 406.484 318.941ZM405.168 318.675C405.168 318.19 405.061 317.774 404.846 317.429C404.632 317.074 404.338 316.808 403.964 316.631C403.6 316.444 403.194 316.351 402.746 316.351C402.102 316.351 401.552 316.556 401.094 316.967C400.646 317.378 400.39 317.947 400.324 318.675H405.168ZM409.44 316.645C409.664 316.206 409.981 315.866 410.392 315.623C410.812 315.38 411.321 315.259 411.918 315.259V316.575H411.582C410.154 316.575 409.44 317.35 409.44 318.899V323.071H408.166V315.399H409.44V316.645ZM416.105 323.197C415.517 323.197 414.989 323.099 414.523 322.903C414.056 322.698 413.687 322.418 413.417 322.063C413.146 321.699 412.997 321.284 412.969 320.817H414.285C414.322 321.2 414.499 321.512 414.817 321.755C415.143 321.998 415.568 322.119 416.091 322.119C416.576 322.119 416.959 322.012 417.239 321.797C417.519 321.582 417.659 321.312 417.659 320.985C417.659 320.649 417.509 320.402 417.211 320.243C416.912 320.075 416.45 319.912 415.825 319.753C415.255 319.604 414.789 319.454 414.425 319.305C414.07 319.146 413.762 318.918 413.501 318.619C413.249 318.311 413.123 317.91 413.123 317.415C413.123 317.023 413.239 316.664 413.473 316.337C413.706 316.01 414.037 315.754 414.467 315.567C414.896 315.371 415.386 315.273 415.937 315.273C416.786 315.273 417.472 315.488 417.995 315.917C418.517 316.346 418.797 316.934 418.835 317.681H417.561C417.533 317.28 417.369 316.958 417.071 316.715C416.781 316.472 416.389 316.351 415.895 316.351C415.437 316.351 415.073 316.449 414.803 316.645C414.532 316.841 414.397 317.098 414.397 317.415C414.397 317.667 414.476 317.877 414.635 318.045C414.803 318.204 415.008 318.334 415.251 318.437C415.503 318.53 415.848 318.638 416.287 318.759C416.837 318.908 417.285 319.058 417.631 319.207C417.976 319.347 418.27 319.562 418.513 319.851C418.765 320.14 418.895 320.518 418.905 320.985C418.905 321.405 418.788 321.783 418.555 322.119C418.321 322.455 417.99 322.721 417.561 322.917C417.141 323.104 416.655 323.197 416.105 323.197Z" fill="#4D4D4D"/>
<path d="M571 154.653C571 152.443 572.791 150.653 575 150.653H608C610.209 150.653 612 152.443 612 154.653V251.568H571V154.653Z" fill="#38BAE0"/>
</svg>
