<svg width="625" height="353" viewBox="0 0 625 353" fill="none" xmlns="http://www.w3.org/2000/svg">
<line x1="27.5" y1="1.74598e-08" x2="27.5" y2="286.876" stroke="#CBCBCB"/>
<line x1="625" y1="287.376" x2="27.0001" y2="287.376" stroke="#CBCBCB"/>
<line x1="625" y1="11.6902" x2="27" y2="11.6902" stroke="#F2F2F2"/>
<line x1="625" y1="51.5341" x2="27" y2="51.5341" stroke="#F2F2F2"/>
<line x1="625" y1="91.3779" x2="27" y2="91.3779" stroke="#F2F2F2"/>
<line x1="625" y1="131.222" x2="27" y2="131.222" stroke="#F2F2F2"/>
<line x1="625" y1="171.066" x2="27" y2="171.066" stroke="#F2F2F2"/>
<line x1="625" y1="210.91" x2="27" y2="210.91" stroke="#F2F2F2"/>
<line x1="625" y1="250.754" x2="27" y2="250.754" stroke="#F2F2F2"/>
<path d="M2.608 10.7945V9.46655H5.616V21.0345H4.144V10.7945H2.608ZM7.765 18.4585V17.3545L13.381 9.57855H15.125V17.1945H16.725V18.4585H15.125V21.0345H13.685V18.4585H7.765ZM13.749 11.0985L9.445 17.1945H13.749V11.0985Z" fill="#4D4D4D"/>
<path d="M3.108 50.0351V48.7071H6.116V60.2751H4.644V50.0351H3.108ZM8.441 59.1071C9.79567 58.0191 10.857 57.1285 11.625 56.4351C12.393 55.7311 13.0383 55.0005 13.561 54.2431C14.0943 53.4751 14.361 52.7231 14.361 51.9871C14.361 51.2938 14.1903 50.7498 13.849 50.3551C13.5183 49.9498 12.9797 49.7471 12.233 49.7471C11.5077 49.7471 10.9423 49.9765 10.537 50.4351C10.1423 50.8831 9.929 51.4858 9.897 52.2431H8.489C8.53167 51.0485 8.89433 50.1258 9.577 49.4751C10.2597 48.8245 11.1397 48.4991 12.217 48.4991C13.3157 48.4991 14.185 48.8031 14.825 49.4111C15.4757 50.0191 15.801 50.8565 15.801 51.9231C15.801 52.8085 15.5343 53.6725 15.001 54.5151C14.4783 55.3471 13.881 56.0831 13.209 56.7231C12.537 57.3525 11.6783 58.0885 10.633 58.9311H16.137V60.1471H8.441V59.1071Z" fill="#4D4D4D"/>
<path d="M2.608 89.2759V87.9479H5.616V99.5159H4.144V89.2759H2.608ZM8.117 93.6119C8.117 91.7772 8.41567 90.3479 9.013 89.3239C9.61033 88.2892 10.6557 87.7719 12.149 87.7719C13.6317 87.7719 14.6717 88.2892 15.269 89.3239C15.8663 90.3479 16.165 91.7772 16.165 93.6119C16.165 95.4785 15.8663 96.9292 15.269 97.9639C14.6717 98.9985 13.6317 99.5159 12.149 99.5159C10.6557 99.5159 9.61033 98.9985 9.013 97.9639C8.41567 96.9292 8.117 95.4785 8.117 93.6119ZM14.725 93.6119C14.725 92.6839 14.661 91.8999 14.533 91.2599C14.4157 90.6092 14.165 90.0865 13.781 89.6919C13.4077 89.2972 12.8637 89.0999 12.149 89.0999C11.4237 89.0999 10.869 89.2972 10.485 89.6919C10.1117 90.0865 9.861 90.6092 9.733 91.2599C9.61567 91.8999 9.557 92.6839 9.557 93.6119C9.557 94.5719 9.61567 95.3772 9.733 96.0279C9.861 96.6785 10.1117 97.2012 10.485 97.5959C10.869 97.9905 11.4237 98.1879 12.149 98.1879C12.8637 98.1879 13.4077 97.9905 13.781 97.5959C14.165 97.2012 14.4157 96.6785 14.533 96.0279C14.661 95.3772 14.725 94.5719 14.725 93.6119Z" fill="#4D4D4D"/>
<path d="M7.604 132.74C7.00667 132.506 6.548 132.164 6.228 131.716C5.908 131.268 5.748 130.724 5.748 130.084C5.748 129.508 5.892 128.991 6.18 128.532C6.468 128.063 6.89467 127.695 7.46 127.428C8.036 127.151 8.72933 127.012 9.54 127.012C10.3507 127.012 11.0387 127.151 11.604 127.428C12.18 127.695 12.612 128.063 12.9 128.532C13.1987 128.991 13.348 129.508 13.348 130.084C13.348 130.703 13.1827 131.247 12.852 131.716C12.5213 132.175 12.068 132.516 11.492 132.74C12.1533 132.943 12.676 133.3 13.06 133.812C13.4547 134.314 13.652 134.922 13.652 135.636C13.652 136.33 13.4813 136.938 13.14 137.46C12.7987 137.972 12.3133 138.372 11.684 138.66C11.0653 138.938 10.3507 139.076 9.54 139.076C8.72933 139.076 8.01467 138.938 7.396 138.66C6.788 138.372 6.31333 137.972 5.972 137.46C5.63067 136.938 5.46 136.33 5.46 135.636C5.46 134.922 5.652 134.308 6.036 133.796C6.42 133.284 6.94267 132.932 7.604 132.74ZM11.94 130.26C11.94 129.61 11.7267 129.108 11.3 128.756C10.8733 128.404 10.2867 128.228 9.54 128.228C8.804 128.228 8.22267 128.404 7.796 128.756C7.36933 129.108 7.156 129.615 7.156 130.276C7.156 130.874 7.37467 131.354 7.812 131.716C8.26 132.079 8.836 132.26 9.54 132.26C10.2547 132.26 10.8307 132.079 11.268 131.716C11.716 131.343 11.94 130.858 11.94 130.26ZM9.54 133.38C8.75067 133.38 8.10533 133.567 7.604 133.94C7.10267 134.303 6.852 134.852 6.852 135.588C6.852 136.271 7.092 136.82 7.572 137.236C8.06267 137.652 8.71867 137.86 9.54 137.86C10.3613 137.86 11.012 137.652 11.492 137.236C11.972 136.82 12.212 136.271 12.212 135.588C12.212 134.874 11.9667 134.33 11.476 133.956C10.9853 133.572 10.34 133.38 9.54 133.38Z" fill="#4D4D4D"/>
<path d="M11.94 169.181C11.7053 167.997 10.9747 167.405 9.748 167.405C8.79867 167.405 8.08933 167.773 7.62 168.509C7.15067 169.234 6.92133 170.434 6.932 172.109C7.17733 171.554 7.58267 171.122 8.148 170.813C8.724 170.493 9.364 170.333 10.068 170.333C11.1667 170.333 12.0413 170.674 12.692 171.357C13.3533 172.04 13.684 172.984 13.684 174.189C13.684 174.914 13.54 175.565 13.252 176.141C12.9747 176.717 12.548 177.176 11.972 177.517C11.4067 177.858 10.7187 178.029 9.908 178.029C8.80933 178.029 7.95067 177.784 7.332 177.293C6.71333 176.802 6.28133 176.125 6.036 175.261C5.79067 174.397 5.668 173.33 5.668 172.061C5.668 168.146 7.03333 166.189 9.764 166.189C10.8093 166.189 11.6307 166.472 12.228 167.037C12.8253 167.602 13.1773 168.317 13.284 169.181H11.94ZM9.764 171.565C9.30533 171.565 8.87333 171.661 8.468 171.853C8.06267 172.034 7.732 172.317 7.476 172.701C7.23067 173.074 7.108 173.533 7.108 174.077C7.108 174.888 7.34267 175.549 7.812 176.061C8.28133 176.562 8.95333 176.813 9.828 176.813C10.5747 176.813 11.1667 176.584 11.604 176.125C12.052 175.656 12.276 175.026 12.276 174.237C12.276 173.405 12.0627 172.754 11.636 172.285C11.2093 171.805 10.5853 171.565 9.764 171.565Z" fill="#4D4D4D"/>
<path d="M5.14 214.662V213.558L10.756 205.782H12.5V213.398H14.1V214.662H12.5V217.238H11.06V214.662H5.14ZM11.124 207.302L6.82 213.398H11.124V207.302Z" fill="#4D4D4D"/>
<path d="M5.816 255.31C7.17067 254.222 8.232 253.332 9 252.638C9.768 251.934 10.4133 251.204 10.936 250.446C11.4693 249.678 11.736 248.926 11.736 248.19C11.736 247.497 11.5653 246.953 11.224 246.558C10.8933 246.153 10.3547 245.95 9.608 245.95C8.88267 245.95 8.31733 246.18 7.912 246.638C7.51733 247.086 7.304 247.689 7.272 248.446H5.864C5.90667 247.252 6.26933 246.329 6.952 245.678C7.63467 245.028 8.51467 244.702 9.592 244.702C10.6907 244.702 11.56 245.006 12.2 245.614C12.8507 246.222 13.176 247.06 13.176 248.126C13.176 249.012 12.9093 249.876 12.376 250.718C11.8533 251.55 11.256 252.286 10.584 252.926C9.912 253.556 9.05333 254.292 8.008 255.134H13.512V256.35H5.816V255.31Z" fill="#4D4D4D"/>
<path d="M54.608 305.016V303.688H57.616V315.256H56.144V305.016H54.608ZM60.117 309.352C60.117 307.518 60.4157 306.088 61.013 305.064C61.6103 304.03 62.6557 303.512 64.149 303.512C65.6317 303.512 66.6717 304.03 67.269 305.064C67.8663 306.088 68.165 307.518 68.165 309.352C68.165 311.219 67.8663 312.67 67.269 313.704C66.6717 314.739 65.6317 315.256 64.149 315.256C62.6557 315.256 61.6103 314.739 61.013 313.704C60.4157 312.67 60.117 311.219 60.117 309.352ZM66.725 309.352C66.725 308.424 66.661 307.64 66.533 307C66.4157 306.35 66.165 305.827 65.781 305.432C65.4077 305.038 64.8637 304.84 64.149 304.84C63.4237 304.84 62.869 305.038 62.485 305.432C62.1117 305.827 61.861 306.35 61.733 307C61.6157 307.64 61.557 308.424 61.557 309.352C61.557 310.312 61.6157 311.118 61.733 311.768C61.861 312.419 62.1117 312.942 62.485 313.336C62.869 313.731 63.4237 313.928 64.149 313.928C64.8637 313.928 65.4077 313.731 65.781 313.336C66.165 312.942 66.4157 312.419 66.533 311.768C66.661 311.118 66.725 310.312 66.725 309.352ZM76.9959 312.776H72.1319L71.2359 315.256H69.6999L73.7319 304.168H75.4119L79.4279 315.256H77.8919L76.9959 312.776ZM76.5799 311.592L74.5639 305.96L72.5479 311.592H76.5799Z" fill="#4D4D4D"/>
<path d="M189.608 305.016V303.688H192.616V315.256H191.144V305.016H189.608ZM195.117 309.352C195.117 307.518 195.416 306.088 196.013 305.064C196.61 304.03 197.656 303.512 199.149 303.512C200.632 303.512 201.672 304.03 202.269 305.064C202.866 306.088 203.165 307.518 203.165 309.352C203.165 311.219 202.866 312.67 202.269 313.704C201.672 314.739 200.632 315.256 199.149 315.256C197.656 315.256 196.61 314.739 196.013 313.704C195.416 312.67 195.117 311.219 195.117 309.352ZM201.725 309.352C201.725 308.424 201.661 307.64 201.533 307C201.416 306.35 201.165 305.827 200.781 305.432C200.408 305.038 199.864 304.84 199.149 304.84C198.424 304.84 197.869 305.038 197.485 305.432C197.112 305.827 196.861 306.35 196.733 307C196.616 307.64 196.557 308.424 196.557 309.352C196.557 310.312 196.616 311.118 196.733 311.768C196.861 312.419 197.112 312.942 197.485 313.336C197.869 313.731 198.424 313.928 199.149 313.928C199.864 313.928 200.408 313.731 200.781 313.336C201.165 312.942 201.416 312.419 201.533 311.768C201.661 311.118 201.725 310.312 201.725 309.352ZM210.988 309.512C211.393 309.576 211.761 309.742 212.092 310.008C212.433 310.275 212.7 310.606 212.892 311C213.095 311.395 213.196 311.816 213.196 312.264C213.196 312.83 213.052 313.342 212.764 313.8C212.476 314.248 212.055 314.606 211.5 314.872C210.956 315.128 210.311 315.256 209.564 315.256H205.404V304.104H209.404C210.161 304.104 210.807 304.232 211.34 304.488C211.873 304.734 212.273 305.07 212.54 305.496C212.807 305.923 212.94 306.403 212.94 306.936C212.94 307.598 212.759 308.147 212.396 308.584C212.044 309.011 211.575 309.32 210.988 309.512ZM206.86 308.92H209.308C209.991 308.92 210.519 308.76 210.892 308.44C211.265 308.12 211.452 307.678 211.452 307.112C211.452 306.547 211.265 306.104 210.892 305.784C210.519 305.464 209.98 305.304 209.276 305.304H206.86V308.92ZM209.436 314.056C210.161 314.056 210.727 313.886 211.132 313.544C211.537 313.203 211.74 312.728 211.74 312.12C211.74 311.502 211.527 311.016 211.1 310.664C210.673 310.302 210.103 310.12 209.388 310.12H206.86V314.056H209.436Z" fill="#4D4D4D"/>
<path d="M325.864 312.152C325.971 312.76 326.216 313.23 326.6 313.56C326.995 313.891 327.523 314.056 328.184 314.056C329.069 314.056 329.72 313.71 330.136 313.016C330.563 312.323 330.765 311.155 330.744 309.512C330.52 309.992 330.147 310.371 329.624 310.648C329.101 310.915 328.52 311.048 327.88 311.048C327.165 311.048 326.525 310.904 325.96 310.616C325.405 310.318 324.968 309.886 324.648 309.32C324.328 308.755 324.168 308.072 324.168 307.272C324.168 306.131 324.499 305.214 325.16 304.52C325.821 303.816 326.76 303.464 327.976 303.464C329.469 303.464 330.515 303.95 331.112 304.92C331.72 305.891 332.024 307.336 332.024 309.256C332.024 310.6 331.901 311.71 331.656 312.584C331.421 313.459 331.016 314.126 330.44 314.584C329.875 315.043 329.096 315.272 328.104 315.272C327.016 315.272 326.168 314.979 325.56 314.392C324.952 313.806 324.605 313.059 324.52 312.152H325.864ZM328.12 309.816C328.835 309.816 329.421 309.598 329.88 309.16C330.339 308.712 330.568 308.11 330.568 307.352C330.568 306.552 330.344 305.907 329.896 305.416C329.448 304.926 328.819 304.68 328.008 304.68C327.261 304.68 326.664 304.915 326.216 305.384C325.779 305.854 325.56 306.472 325.56 307.24C325.56 308.019 325.779 308.643 326.216 309.112C326.653 309.582 327.288 309.816 328.12 309.816ZM339.894 309.512C340.299 309.576 340.667 309.742 340.998 310.008C341.339 310.275 341.606 310.606 341.798 311C342.001 311.395 342.102 311.816 342.102 312.264C342.102 312.83 341.958 313.342 341.67 313.8C341.382 314.248 340.961 314.606 340.406 314.872C339.862 315.128 339.217 315.256 338.47 315.256H334.31V304.104H338.31C339.067 304.104 339.713 304.232 340.246 304.488C340.779 304.734 341.179 305.07 341.446 305.496C341.713 305.923 341.846 306.403 341.846 306.936C341.846 307.598 341.665 308.147 341.302 308.584C340.95 309.011 340.481 309.32 339.894 309.512ZM335.766 308.92H338.214C338.897 308.92 339.425 308.76 339.798 308.44C340.171 308.12 340.358 307.678 340.358 307.112C340.358 306.547 340.171 306.104 339.798 305.784C339.425 305.464 338.886 305.304 338.182 305.304H335.766V308.92ZM338.342 314.056C339.067 314.056 339.633 313.886 340.038 313.544C340.443 313.203 340.646 312.728 340.646 312.12C340.646 311.502 340.433 311.016 340.006 310.664C339.579 310.302 339.009 310.12 338.294 310.12H335.766V314.056H338.342Z" fill="#4D4D4D"/>
<path d="M455.104 309.24C454.507 309.006 454.048 308.664 453.728 308.216C453.408 307.768 453.248 307.224 453.248 306.584C453.248 306.008 453.392 305.491 453.68 305.032C453.968 304.563 454.395 304.195 454.96 303.928C455.536 303.651 456.229 303.512 457.04 303.512C457.851 303.512 458.539 303.651 459.104 303.928C459.68 304.195 460.112 304.563 460.4 305.032C460.699 305.491 460.848 306.008 460.848 306.584C460.848 307.203 460.683 307.747 460.352 308.216C460.021 308.675 459.568 309.016 458.992 309.24C459.653 309.443 460.176 309.8 460.56 310.312C460.955 310.814 461.152 311.422 461.152 312.136C461.152 312.83 460.981 313.438 460.64 313.96C460.299 314.472 459.813 314.872 459.184 315.16C458.565 315.438 457.851 315.576 457.04 315.576C456.229 315.576 455.515 315.438 454.896 315.16C454.288 314.872 453.813 314.472 453.472 313.96C453.131 313.438 452.96 312.83 452.96 312.136C452.96 311.422 453.152 310.808 453.536 310.296C453.92 309.784 454.443 309.432 455.104 309.24ZM459.44 306.76C459.44 306.11 459.227 305.608 458.8 305.256C458.373 304.904 457.787 304.728 457.04 304.728C456.304 304.728 455.723 304.904 455.296 305.256C454.869 305.608 454.656 306.115 454.656 306.776C454.656 307.374 454.875 307.854 455.312 308.216C455.76 308.579 456.336 308.76 457.04 308.76C457.755 308.76 458.331 308.579 458.768 308.216C459.216 307.843 459.44 307.358 459.44 306.76ZM457.04 309.88C456.251 309.88 455.605 310.067 455.104 310.44C454.603 310.803 454.352 311.352 454.352 312.088C454.352 312.771 454.592 313.32 455.072 313.736C455.563 314.152 456.219 314.36 457.04 314.36C457.861 314.36 458.512 314.152 458.992 313.736C459.472 313.32 459.712 312.771 459.712 312.088C459.712 311.374 459.467 310.83 458.976 310.456C458.485 310.072 457.84 309.88 457.04 309.88ZM469.918 312.776H465.054L464.158 315.256H462.622L466.654 304.168H468.334L472.35 315.256H470.814L469.918 312.776ZM469.502 311.592L467.486 305.96L465.47 311.592H469.502Z" fill="#4D4D4D"/>
<path d="M590.112 304.824L585.664 315.256H584.192L588.704 304.968H582.528V303.72H590.112V304.824ZM597.55 309.512C597.956 309.576 598.324 309.742 598.654 310.008C598.996 310.275 599.262 310.606 599.454 311C599.657 311.395 599.758 311.816 599.758 312.264C599.758 312.83 599.614 313.342 599.326 313.8C599.038 314.248 598.617 314.606 598.062 314.872C597.518 315.128 596.873 315.256 596.126 315.256H591.966V304.104H595.966C596.724 304.104 597.369 304.232 597.902 304.488C598.436 304.734 598.836 305.07 599.102 305.496C599.369 305.923 599.502 306.403 599.502 306.936C599.502 307.598 599.321 308.147 598.958 308.584C598.606 309.011 598.137 309.32 597.55 309.512ZM593.422 308.92H595.87C596.553 308.92 597.081 308.76 597.454 308.44C597.828 308.12 598.014 307.678 598.014 307.112C598.014 306.547 597.828 306.104 597.454 305.784C597.081 305.464 596.542 305.304 595.838 305.304H593.422V308.92ZM595.998 314.056C596.724 314.056 597.289 313.886 597.694 313.544C598.1 313.203 598.302 312.728 598.302 312.12C598.302 311.502 598.089 311.016 597.662 310.664C597.236 310.302 596.665 310.12 595.95 310.12H593.422V314.056H595.998Z" fill="#4D4D4D"/>
<path d="M46 112.85C46 110.641 47.7909 108.85 50 108.85H83C85.2091 108.85 87 110.641 87 112.85V286.876H46V112.85Z" fill="#38BAE0"/>
<path d="M311 195.251C311 193.042 312.791 191.251 315 191.251H348C350.209 191.251 352 193.042 352 195.251V286.876H311V195.251Z" fill="#38BAE0"/>
<rect x="272" y="333.81" width="16" height="16" rx="2" fill="#38BAE0"/>
<path d="M302.846 344.64H298.59L297.806 346.81H296.462L299.99 337.108H301.46L304.974 346.81H303.63L302.846 344.64ZM302.482 343.604L300.718 338.676L298.954 343.604H302.482ZM309.228 346.936C308.64 346.936 308.112 346.838 307.646 346.642C307.179 346.436 306.81 346.156 306.54 345.802C306.269 345.438 306.12 345.022 306.092 344.556H307.408C307.445 344.938 307.622 345.251 307.94 345.494C308.266 345.736 308.691 345.858 309.214 345.858C309.699 345.858 310.082 345.75 310.362 345.536C310.642 345.321 310.782 345.05 310.782 344.724C310.782 344.388 310.632 344.14 310.334 343.982C310.035 343.814 309.573 343.65 308.948 343.492C308.378 343.342 307.912 343.193 307.548 343.044C307.193 342.885 306.885 342.656 306.624 342.358C306.372 342.05 306.246 341.648 306.246 341.154C306.246 340.762 306.362 340.402 306.596 340.076C306.829 339.749 307.16 339.492 307.59 339.306C308.019 339.11 308.509 339.012 309.06 339.012C309.909 339.012 310.595 339.226 311.118 339.656C311.64 340.085 311.92 340.673 311.958 341.42H310.684C310.656 341.018 310.492 340.696 310.194 340.454C309.904 340.211 309.512 340.09 309.018 340.09C308.56 340.09 308.196 340.188 307.926 340.384C307.655 340.58 307.52 340.836 307.52 341.154C307.52 341.406 307.599 341.616 307.758 341.784C307.926 341.942 308.131 342.073 308.374 342.176C308.626 342.269 308.971 342.376 309.41 342.498C309.96 342.647 310.408 342.796 310.754 342.946C311.099 343.086 311.393 343.3 311.636 343.59C311.888 343.879 312.018 344.257 312.028 344.724C312.028 345.144 311.911 345.522 311.678 345.858C311.444 346.194 311.113 346.46 310.684 346.656C310.264 346.842 309.778 346.936 309.228 346.936ZM316.542 346.936C315.954 346.936 315.427 346.838 314.96 346.642C314.493 346.436 314.125 346.156 313.854 345.802C313.583 345.438 313.434 345.022 313.406 344.556H314.722C314.759 344.938 314.937 345.251 315.254 345.494C315.581 345.736 316.005 345.858 316.528 345.858C317.013 345.858 317.396 345.75 317.676 345.536C317.956 345.321 318.096 345.05 318.096 344.724C318.096 344.388 317.947 344.14 317.648 343.982C317.349 343.814 316.887 343.65 316.262 343.492C315.693 343.342 315.226 343.193 314.862 343.044C314.507 342.885 314.199 342.656 313.938 342.358C313.686 342.05 313.56 341.648 313.56 341.154C313.56 340.762 313.677 340.402 313.91 340.076C314.143 339.749 314.475 339.492 314.904 339.306C315.333 339.11 315.823 339.012 316.374 339.012C317.223 339.012 317.909 339.226 318.432 339.656C318.955 340.085 319.235 340.673 319.272 341.42H317.998C317.97 341.018 317.807 340.696 317.508 340.454C317.219 340.211 316.827 340.09 316.332 340.09C315.875 340.09 315.511 340.188 315.24 340.384C314.969 340.58 314.834 340.836 314.834 341.154C314.834 341.406 314.913 341.616 315.072 341.784C315.24 341.942 315.445 342.073 315.688 342.176C315.94 342.269 316.285 342.376 316.724 342.498C317.275 342.647 317.723 342.796 318.068 342.946C318.413 343.086 318.707 343.3 318.95 343.59C319.202 343.879 319.333 344.257 319.342 344.724C319.342 345.144 319.225 345.522 318.992 345.858C318.759 346.194 318.427 346.46 317.998 346.656C317.578 346.842 317.093 346.936 316.542 346.936ZM321.799 337.892C321.556 337.892 321.351 337.808 321.183 337.64C321.015 337.472 320.931 337.266 320.931 337.024C320.931 336.781 321.015 336.576 321.183 336.408C321.351 336.24 321.556 336.156 321.799 336.156C322.032 336.156 322.228 336.24 322.387 336.408C322.555 336.576 322.639 336.781 322.639 337.024C322.639 337.266 322.555 337.472 322.387 337.64C322.228 337.808 322.032 337.892 321.799 337.892ZM322.415 339.138V346.81H321.141V339.138H322.415ZM327.75 339.012C328.412 339.012 328.991 339.156 329.486 339.446C329.99 339.735 330.363 340.099 330.606 340.538V339.138H331.894V346.978C331.894 347.678 331.744 348.298 331.446 348.84C331.147 349.39 330.718 349.82 330.158 350.128C329.607 350.436 328.963 350.59 328.226 350.59C327.218 350.59 326.378 350.352 325.706 349.876C325.034 349.4 324.637 348.751 324.516 347.93H325.776C325.916 348.396 326.205 348.77 326.644 349.05C327.082 349.339 327.61 349.484 328.226 349.484C328.926 349.484 329.495 349.264 329.934 348.826C330.382 348.387 330.606 347.771 330.606 346.978V345.368C330.354 345.816 329.98 346.189 329.486 346.488C328.991 346.786 328.412 346.936 327.75 346.936C327.068 346.936 326.448 346.768 325.888 346.432C325.337 346.096 324.903 345.624 324.586 345.018C324.268 344.411 324.11 343.72 324.11 342.946C324.11 342.162 324.268 341.476 324.586 340.888C324.903 340.29 325.337 339.828 325.888 339.502C326.448 339.175 327.068 339.012 327.75 339.012ZM330.606 342.96C330.606 342.381 330.489 341.877 330.256 341.448C330.022 341.018 329.705 340.692 329.304 340.468C328.912 340.234 328.478 340.118 328.002 340.118C327.526 340.118 327.092 340.23 326.7 340.454C326.308 340.678 325.995 341.004 325.762 341.434C325.528 341.863 325.412 342.367 325.412 342.946C325.412 343.534 325.528 344.047 325.762 344.486C325.995 344.915 326.308 345.246 326.7 345.48C327.092 345.704 327.526 345.816 328.002 345.816C328.478 345.816 328.912 345.704 329.304 345.48C329.705 345.246 330.022 344.915 330.256 344.486C330.489 344.047 330.606 343.538 330.606 342.96ZM337.785 338.998C338.718 338.998 339.474 339.282 340.053 339.852C340.631 340.412 340.921 341.224 340.921 342.288V346.81H339.661V342.47C339.661 341.704 339.469 341.121 339.087 340.72C338.704 340.309 338.181 340.104 337.519 340.104C336.847 340.104 336.31 340.314 335.909 340.734C335.517 341.154 335.321 341.765 335.321 342.568V346.81H334.047V339.138H335.321V340.23C335.573 339.838 335.913 339.534 336.343 339.32C336.781 339.105 337.262 338.998 337.785 338.998ZM352.228 338.998C352.825 338.998 353.357 339.124 353.824 339.376C354.29 339.618 354.659 339.987 354.93 340.482C355.2 340.976 355.336 341.578 355.336 342.288V346.81H354.076V342.47C354.076 341.704 353.884 341.121 353.502 340.72C353.128 340.309 352.62 340.104 351.976 340.104C351.313 340.104 350.786 340.318 350.394 340.748C350.002 341.168 349.806 341.779 349.806 342.582V346.81H348.546V342.47C348.546 341.704 348.354 341.121 347.972 340.72C347.598 340.309 347.09 340.104 346.446 340.104C345.783 340.104 345.256 340.318 344.864 340.748C344.472 341.168 344.276 341.779 344.276 342.582V346.81H343.002V339.138H344.276V340.244C344.528 339.842 344.864 339.534 345.284 339.32C345.713 339.105 346.184 338.998 346.698 338.998C347.342 338.998 347.911 339.142 348.406 339.432C348.9 339.721 349.269 340.146 349.512 340.706C349.726 340.164 350.081 339.744 350.576 339.446C351.07 339.147 351.621 338.998 352.228 338.998ZM364.426 342.68C364.426 342.922 364.412 343.179 364.384 343.45H358.252C358.298 344.206 358.555 344.798 359.022 345.228C359.498 345.648 360.072 345.858 360.744 345.858C361.294 345.858 361.752 345.732 362.116 345.48C362.489 345.218 362.75 344.873 362.9 344.444H364.272C364.066 345.181 363.656 345.783 363.04 346.25C362.424 346.707 361.658 346.936 360.744 346.936C360.016 346.936 359.362 346.772 358.784 346.446C358.214 346.119 357.766 345.657 357.44 345.06C357.113 344.453 356.95 343.753 356.95 342.96C356.95 342.166 357.108 341.471 357.426 340.874C357.743 340.276 358.186 339.819 358.756 339.502C359.334 339.175 359.997 339.012 360.744 339.012C361.472 339.012 362.116 339.17 362.676 339.488C363.236 339.805 363.665 340.244 363.964 340.804C364.272 341.354 364.426 341.98 364.426 342.68ZM363.11 342.414C363.11 341.928 363.002 341.513 362.788 341.168C362.573 340.813 362.279 340.547 361.906 340.37C361.542 340.183 361.136 340.09 360.688 340.09C360.044 340.09 359.493 340.295 359.036 340.706C358.588 341.116 358.331 341.686 358.266 342.414H363.11ZM369.845 338.998C370.779 338.998 371.535 339.282 372.113 339.852C372.692 340.412 372.981 341.224 372.981 342.288V346.81H371.721V342.47C371.721 341.704 371.53 341.121 371.147 340.72C370.765 340.309 370.242 340.104 369.579 340.104C368.907 340.104 368.371 340.314 367.969 340.734C367.577 341.154 367.381 341.765 367.381 342.568V346.81H366.107V339.138H367.381V340.23C367.633 339.838 367.974 339.534 368.403 339.32C368.842 339.105 369.323 338.998 369.845 338.998ZM376.616 340.188V344.71C376.616 345.083 376.696 345.349 376.854 345.508C377.013 345.657 377.288 345.732 377.68 345.732H378.618V346.81H377.47C376.761 346.81 376.229 346.646 375.874 346.32C375.52 345.993 375.342 345.456 375.342 344.71V340.188H374.348V339.138H375.342V337.206H376.616V339.138H378.618V340.188H376.616Z" fill="#4D4D4D"/>
<g filter="url(#filter0_d_864_5719)">
<rect x="77" y="85" width="178" height="72" rx="8" fill="#FDFDFD" shape-rendering="crispEdges"/>
<rect x="76.5" y="84.5" width="179" height="73" rx="8.5" stroke="#E0E0E0" shape-rendering="crispEdges"/>
<path d="M89.9272 108.114C89.9272 107.162 90.1419 106.308 90.5712 105.552C91.0005 104.787 91.5839 104.189 92.3212 103.76C93.0679 103.331 93.8939 103.116 94.7992 103.116C95.8632 103.116 96.7919 103.373 97.5852 103.886C98.3785 104.399 98.9572 105.127 99.3212 106.07H97.7952C97.5245 105.482 97.1325 105.029 96.6192 104.712C96.1152 104.395 95.5085 104.236 94.7992 104.236C94.1179 104.236 93.5065 104.395 92.9652 104.712C92.4239 105.029 91.9992 105.482 91.6912 106.07C91.3832 106.649 91.2292 107.33 91.2292 108.114C91.2292 108.889 91.3832 109.57 91.6912 110.158C91.9992 110.737 92.4239 111.185 92.9652 111.502C93.5065 111.819 94.1179 111.978 94.7992 111.978C95.5085 111.978 96.1152 111.824 96.6192 111.516C97.1325 111.199 97.5245 110.746 97.7952 110.158H99.3212C98.9572 111.091 98.3785 111.815 97.5852 112.328C96.7919 112.832 95.8632 113.084 94.7992 113.084C93.8939 113.084 93.0679 112.874 92.3212 112.454C91.5839 112.025 91.0005 111.432 90.5712 110.676C90.1419 109.92 89.9272 109.066 89.9272 108.114ZM102.492 102.64V113H101.218V102.64H102.492ZM104.187 109.136C104.187 108.352 104.346 107.666 104.663 107.078C104.98 106.481 105.414 106.019 105.965 105.692C106.525 105.365 107.146 105.202 107.827 105.202C108.499 105.202 109.082 105.347 109.577 105.636C110.072 105.925 110.44 106.289 110.683 106.728V105.328H111.971V113H110.683V111.572C110.431 112.02 110.053 112.393 109.549 112.692C109.054 112.981 108.476 113.126 107.813 113.126C107.132 113.126 106.516 112.958 105.965 112.622C105.414 112.286 104.98 111.815 104.663 111.208C104.346 110.601 104.187 109.911 104.187 109.136ZM110.683 109.15C110.683 108.571 110.566 108.067 110.333 107.638C110.1 107.209 109.782 106.882 109.381 106.658C108.989 106.425 108.555 106.308 108.079 106.308C107.603 106.308 107.169 106.42 106.777 106.644C106.385 106.868 106.072 107.195 105.839 107.624C105.606 108.053 105.489 108.557 105.489 109.136C105.489 109.724 105.606 110.237 105.839 110.676C106.072 111.105 106.385 111.437 106.777 111.67C107.169 111.894 107.603 112.006 108.079 112.006C108.555 112.006 108.989 111.894 109.381 111.67C109.782 111.437 110.1 111.105 110.333 110.676C110.566 110.237 110.683 109.729 110.683 109.15ZM116.84 113.126C116.252 113.126 115.725 113.028 115.258 112.832C114.791 112.627 114.423 112.347 114.152 111.992C113.881 111.628 113.732 111.213 113.704 110.746H115.02C115.057 111.129 115.235 111.441 115.552 111.684C115.879 111.927 116.303 112.048 116.826 112.048C117.311 112.048 117.694 111.941 117.974 111.726C118.254 111.511 118.394 111.241 118.394 110.914C118.394 110.578 118.245 110.331 117.946 110.172C117.647 110.004 117.185 109.841 116.56 109.682C115.991 109.533 115.524 109.383 115.16 109.234C114.805 109.075 114.497 108.847 114.236 108.548C113.984 108.24 113.858 107.839 113.858 107.344C113.858 106.952 113.975 106.593 114.208 106.266C114.441 105.939 114.773 105.683 115.202 105.496C115.631 105.3 116.121 105.202 116.672 105.202C117.521 105.202 118.207 105.417 118.73 105.846C119.253 106.275 119.533 106.863 119.57 107.61H118.296C118.268 107.209 118.105 106.887 117.806 106.644C117.517 106.401 117.125 106.28 116.63 106.28C116.173 106.28 115.809 106.378 115.538 106.574C115.267 106.77 115.132 107.027 115.132 107.344C115.132 107.596 115.211 107.806 115.37 107.974C115.538 108.133 115.743 108.263 115.986 108.366C116.238 108.459 116.583 108.567 117.022 108.688C117.573 108.837 118.021 108.987 118.366 109.136C118.711 109.276 119.005 109.491 119.248 109.78C119.5 110.069 119.631 110.447 119.64 110.914C119.64 111.334 119.523 111.712 119.29 112.048C119.057 112.384 118.725 112.65 118.296 112.846C117.876 113.033 117.391 113.126 116.84 113.126ZM124.154 113.126C123.566 113.126 123.039 113.028 122.572 112.832C122.106 112.627 121.737 112.347 121.466 111.992C121.196 111.628 121.046 111.213 121.018 110.746H122.334C122.372 111.129 122.549 111.441 122.866 111.684C123.193 111.927 123.618 112.048 124.14 112.048C124.626 112.048 125.008 111.941 125.288 111.726C125.568 111.511 125.708 111.241 125.708 110.914C125.708 110.578 125.559 110.331 125.26 110.172C124.962 110.004 124.5 109.841 123.874 109.682C123.305 109.533 122.838 109.383 122.474 109.234C122.12 109.075 121.812 108.847 121.55 108.548C121.298 108.24 121.172 107.839 121.172 107.344C121.172 106.952 121.289 106.593 121.522 106.266C121.756 105.939 122.087 105.683 122.516 105.496C122.946 105.3 123.436 105.202 123.986 105.202C124.836 105.202 125.522 105.417 126.044 105.846C126.567 106.275 126.847 106.863 126.884 107.61H125.61C125.582 107.209 125.419 106.887 125.12 106.644C124.831 106.401 124.439 106.28 123.944 106.28C123.487 106.28 123.123 106.378 122.852 106.574C122.582 106.77 122.446 107.027 122.446 107.344C122.446 107.596 122.526 107.806 122.684 107.974C122.852 108.133 123.058 108.263 123.3 108.366C123.552 108.459 123.898 108.567 124.336 108.688C124.887 108.837 125.335 108.987 125.68 109.136C126.026 109.276 126.32 109.491 126.562 109.78C126.814 110.069 126.945 110.447 126.954 110.914C126.954 111.334 126.838 111.712 126.604 112.048C126.371 112.384 126.04 112.65 125.61 112.846C125.19 113.033 124.705 113.126 124.154 113.126Z" fill="#2D2D2D"/>
<path d="M220.678 104.04V102.878H223.31V113H222.022V104.04H220.678ZM225.498 107.834C225.498 106.229 225.759 104.978 226.282 104.082C226.805 103.177 227.719 102.724 229.026 102.724C230.323 102.724 231.233 103.177 231.756 104.082C232.279 104.978 232.54 106.229 232.54 107.834C232.54 109.467 232.279 110.737 231.756 111.642C231.233 112.547 230.323 113 229.026 113C227.719 113 226.805 112.547 226.282 111.642C225.759 110.737 225.498 109.467 225.498 107.834ZM231.28 107.834C231.28 107.022 231.224 106.336 231.112 105.776C231.009 105.207 230.79 104.749 230.454 104.404C230.127 104.059 229.651 103.886 229.026 103.886C228.391 103.886 227.906 104.059 227.57 104.404C227.243 104.749 227.024 105.207 226.912 105.776C226.809 106.336 226.758 107.022 226.758 107.834C226.758 108.674 226.809 109.379 226.912 109.948C227.024 110.517 227.243 110.975 227.57 111.32C227.906 111.665 228.391 111.838 229.026 111.838C229.651 111.838 230.127 111.665 230.454 111.32C230.79 110.975 231.009 110.517 231.112 109.948C231.224 109.379 231.28 108.674 231.28 107.834ZM240.267 110.83H236.011L235.227 113H233.883L237.411 103.298H238.881L242.395 113H241.051L240.267 110.83ZM239.903 109.794L238.139 104.866L236.375 109.794H239.903Z" fill="#2D2D2D"/>
<rect x="89" y="126" width="16" height="16" rx="2" fill="#38BAE0"/>
<path d="M116.147 136.83H111.891L111.107 139H109.763L113.291 129.298H114.761L118.275 139H116.931L116.147 136.83ZM115.783 135.794L114.019 130.866L112.255 135.794H115.783ZM122.528 139.126C121.94 139.126 121.413 139.028 120.946 138.832C120.48 138.627 120.111 138.347 119.84 137.992C119.57 137.628 119.42 137.213 119.392 136.746H120.708C120.746 137.129 120.923 137.441 121.24 137.684C121.567 137.927 121.992 138.048 122.514 138.048C123 138.048 123.382 137.941 123.662 137.726C123.942 137.511 124.082 137.241 124.082 136.914C124.082 136.578 123.933 136.331 123.634 136.172C123.336 136.004 122.874 135.841 122.248 135.682C121.679 135.533 121.212 135.383 120.848 135.234C120.494 135.075 120.186 134.847 119.924 134.548C119.672 134.24 119.546 133.839 119.546 133.344C119.546 132.952 119.663 132.593 119.896 132.266C120.13 131.939 120.461 131.683 120.89 131.496C121.32 131.3 121.81 131.202 122.36 131.202C123.21 131.202 123.896 131.417 124.418 131.846C124.941 132.275 125.221 132.863 125.258 133.61H123.984C123.956 133.209 123.793 132.887 123.494 132.644C123.205 132.401 122.813 132.28 122.318 132.28C121.861 132.28 121.497 132.378 121.226 132.574C120.956 132.77 120.82 133.027 120.82 133.344C120.82 133.596 120.9 133.806 121.058 133.974C121.226 134.133 121.432 134.263 121.674 134.366C121.926 134.459 122.272 134.567 122.71 134.688C123.261 134.837 123.709 134.987 124.054 135.136C124.4 135.276 124.694 135.491 124.936 135.78C125.188 136.069 125.319 136.447 125.328 136.914C125.328 137.334 125.212 137.712 124.978 138.048C124.745 138.384 124.414 138.65 123.984 138.846C123.564 139.033 123.079 139.126 122.528 139.126ZM129.843 139.126C129.255 139.126 128.727 139.028 128.261 138.832C127.794 138.627 127.425 138.347 127.155 137.992C126.884 137.628 126.735 137.213 126.707 136.746H128.023C128.06 137.129 128.237 137.441 128.555 137.684C128.881 137.927 129.306 138.048 129.829 138.048C130.314 138.048 130.697 137.941 130.977 137.726C131.257 137.511 131.397 137.241 131.397 136.914C131.397 136.578 131.247 136.331 130.949 136.172C130.65 136.004 130.188 135.841 129.563 135.682C128.993 135.533 128.527 135.383 128.163 135.234C127.808 135.075 127.5 134.847 127.239 134.548C126.987 134.24 126.861 133.839 126.861 133.344C126.861 132.952 126.977 132.593 127.211 132.266C127.444 131.939 127.775 131.683 128.205 131.496C128.634 131.3 129.124 131.202 129.675 131.202C130.524 131.202 131.21 131.417 131.733 131.846C132.255 132.275 132.535 132.863 132.573 133.61H131.299C131.271 133.209 131.107 132.887 130.809 132.644C130.519 132.401 130.127 132.28 129.633 132.28C129.175 132.28 128.811 132.378 128.541 132.574C128.27 132.77 128.135 133.027 128.135 133.344C128.135 133.596 128.214 133.806 128.373 133.974C128.541 134.133 128.746 134.263 128.989 134.366C129.241 134.459 129.586 134.567 130.025 134.688C130.575 134.837 131.023 134.987 131.369 135.136C131.714 135.276 132.008 135.491 132.251 135.78C132.503 136.069 132.633 136.447 132.643 136.914C132.643 137.334 132.526 137.712 132.293 138.048C132.059 138.384 131.728 138.65 131.299 138.846C130.879 139.033 130.393 139.126 129.843 139.126ZM135.099 130.082C134.857 130.082 134.651 129.998 134.483 129.83C134.315 129.662 134.231 129.457 134.231 129.214C134.231 128.971 134.315 128.766 134.483 128.598C134.651 128.43 134.857 128.346 135.099 128.346C135.333 128.346 135.529 128.43 135.687 128.598C135.855 128.766 135.939 128.971 135.939 129.214C135.939 129.457 135.855 129.662 135.687 129.83C135.529 129.998 135.333 130.082 135.099 130.082ZM135.715 131.328V139H134.441V131.328H135.715ZM141.051 131.202C141.713 131.202 142.292 131.347 142.787 131.636C143.291 131.925 143.664 132.289 143.907 132.728V131.328H145.195V139.168C145.195 139.868 145.045 140.489 144.747 141.03C144.448 141.581 144.019 142.01 143.459 142.318C142.908 142.626 142.264 142.78 141.527 142.78C140.519 142.78 139.679 142.542 139.007 142.066C138.335 141.59 137.938 140.941 137.817 140.12H139.077C139.217 140.587 139.506 140.96 139.945 141.24C140.383 141.529 140.911 141.674 141.527 141.674C142.227 141.674 142.796 141.455 143.235 141.016C143.683 140.577 143.907 139.961 143.907 139.168V137.558C143.655 138.006 143.281 138.379 142.787 138.678C142.292 138.977 141.713 139.126 141.051 139.126C140.369 139.126 139.749 138.958 139.189 138.622C138.638 138.286 138.204 137.815 137.887 137.208C137.569 136.601 137.411 135.911 137.411 135.136C137.411 134.352 137.569 133.666 137.887 133.078C138.204 132.481 138.638 132.019 139.189 131.692C139.749 131.365 140.369 131.202 141.051 131.202ZM143.907 135.15C143.907 134.571 143.79 134.067 143.557 133.638C143.323 133.209 143.006 132.882 142.605 132.658C142.213 132.425 141.779 132.308 141.303 132.308C140.827 132.308 140.393 132.42 140.001 132.644C139.609 132.868 139.296 133.195 139.063 133.624C138.829 134.053 138.713 134.557 138.713 135.136C138.713 135.724 138.829 136.237 139.063 136.676C139.296 137.105 139.609 137.437 140.001 137.67C140.393 137.894 140.827 138.006 141.303 138.006C141.779 138.006 142.213 137.894 142.605 137.67C143.006 137.437 143.323 137.105 143.557 136.676C143.79 136.237 143.907 135.729 143.907 135.15ZM151.086 131.188C152.019 131.188 152.775 131.473 153.354 132.042C153.932 132.602 154.222 133.414 154.222 134.478V139H152.962V134.66C152.962 133.895 152.77 133.311 152.388 132.91C152.005 132.499 151.482 132.294 150.82 132.294C150.148 132.294 149.611 132.504 149.21 132.924C148.818 133.344 148.622 133.955 148.622 134.758V139H147.348V131.328H148.622V132.42C148.874 132.028 149.214 131.725 149.644 131.51C150.082 131.295 150.563 131.188 151.086 131.188ZM165.529 131.188C166.126 131.188 166.658 131.314 167.125 131.566C167.591 131.809 167.96 132.177 168.231 132.672C168.501 133.167 168.637 133.769 168.637 134.478V139H167.377V134.66C167.377 133.895 167.185 133.311 166.803 132.91C166.429 132.499 165.921 132.294 165.277 132.294C164.614 132.294 164.087 132.509 163.695 132.938C163.303 133.358 163.107 133.969 163.107 134.772V139H161.847V134.66C161.847 133.895 161.655 133.311 161.273 132.91C160.899 132.499 160.391 132.294 159.747 132.294C159.084 132.294 158.557 132.509 158.165 132.938C157.773 133.358 157.577 133.969 157.577 134.772V139H156.303V131.328H157.577V132.434C157.829 132.033 158.165 131.725 158.585 131.51C159.014 131.295 159.485 131.188 159.999 131.188C160.643 131.188 161.212 131.333 161.707 131.622C162.201 131.911 162.57 132.336 162.813 132.896C163.027 132.355 163.382 131.935 163.877 131.636C164.371 131.337 164.922 131.188 165.529 131.188ZM177.726 134.87C177.726 135.113 177.712 135.369 177.684 135.64H171.552C171.599 136.396 171.856 136.989 172.322 137.418C172.798 137.838 173.372 138.048 174.044 138.048C174.595 138.048 175.052 137.922 175.416 137.67C175.79 137.409 176.051 137.063 176.2 136.634H177.572C177.367 137.371 176.956 137.973 176.34 138.44C175.724 138.897 174.959 139.126 174.044 139.126C173.316 139.126 172.663 138.963 172.084 138.636C171.515 138.309 171.067 137.847 170.74 137.25C170.414 136.643 170.25 135.943 170.25 135.15C170.25 134.357 170.409 133.661 170.726 133.064C171.044 132.467 171.487 132.009 172.056 131.692C172.635 131.365 173.298 131.202 174.044 131.202C174.772 131.202 175.416 131.361 175.976 131.678C176.536 131.995 176.966 132.434 177.264 132.994C177.572 133.545 177.726 134.17 177.726 134.87ZM176.41 134.604C176.41 134.119 176.303 133.703 176.088 133.358C175.874 133.003 175.58 132.737 175.206 132.56C174.842 132.373 174.436 132.28 173.988 132.28C173.344 132.28 172.794 132.485 172.336 132.896C171.888 133.307 171.632 133.876 171.566 134.604H176.41ZM183.146 131.188C184.079 131.188 184.835 131.473 185.414 132.042C185.993 132.602 186.282 133.414 186.282 134.478V139H185.022V134.66C185.022 133.895 184.831 133.311 184.448 132.91C184.065 132.499 183.543 132.294 182.88 132.294C182.208 132.294 181.671 132.504 181.27 132.924C180.878 133.344 180.682 133.955 180.682 134.758V139H179.408V131.328H180.682V132.42C180.934 132.028 181.275 131.725 181.704 131.51C182.143 131.295 182.623 131.188 183.146 131.188ZM189.917 132.378V136.9C189.917 137.273 189.996 137.539 190.155 137.698C190.314 137.847 190.589 137.922 190.981 137.922H191.919V139H190.771C190.062 139 189.53 138.837 189.175 138.51C188.82 138.183 188.643 137.647 188.643 136.9V132.378H187.649V131.328H188.643V129.396H189.917V131.328H191.919V132.378H189.917ZM196.179 139.126C195.591 139.126 195.063 139.028 194.597 138.832C194.13 138.627 193.761 138.347 193.491 137.992C193.22 137.628 193.071 137.213 193.043 136.746H194.359C194.396 137.129 194.573 137.441 194.891 137.684C195.217 137.927 195.642 138.048 196.165 138.048C196.65 138.048 197.033 137.941 197.313 137.726C197.593 137.511 197.733 137.241 197.733 136.914C197.733 136.578 197.583 136.331 197.285 136.172C196.986 136.004 196.524 135.841 195.899 135.682C195.329 135.533 194.863 135.383 194.499 135.234C194.144 135.075 193.836 134.847 193.575 134.548C193.323 134.24 193.197 133.839 193.197 133.344C193.197 132.952 193.313 132.593 193.547 132.266C193.78 131.939 194.111 131.683 194.541 131.496C194.97 131.3 195.46 131.202 196.011 131.202C196.86 131.202 197.546 131.417 198.069 131.846C198.591 132.275 198.871 132.863 198.909 133.61H197.635C197.607 133.209 197.443 132.887 197.145 132.644C196.855 132.401 196.463 132.28 195.969 132.28C195.511 132.28 195.147 132.378 194.877 132.574C194.606 132.77 194.471 133.027 194.471 133.344C194.471 133.596 194.55 133.806 194.709 133.974C194.877 134.133 195.082 134.263 195.325 134.366C195.577 134.459 195.922 134.567 196.361 134.688C196.911 134.837 197.359 134.987 197.705 135.136C198.05 135.276 198.344 135.491 198.587 135.78C198.839 136.069 198.969 136.447 198.979 136.914C198.979 137.334 198.862 137.712 198.629 138.048C198.395 138.384 198.064 138.65 197.635 138.846C197.215 139.033 196.729 139.126 196.179 139.126Z" fill="#2D2D2D"/>
<path d="M236.597 136.284C236.69 136.816 236.905 137.227 237.241 137.516C237.586 137.805 238.048 137.95 238.627 137.95C239.401 137.95 239.971 137.647 240.335 137.04C240.708 136.433 240.885 135.411 240.867 133.974C240.671 134.394 240.344 134.725 239.887 134.968C239.429 135.201 238.921 135.318 238.361 135.318C237.735 135.318 237.175 135.192 236.681 134.94C236.195 134.679 235.813 134.301 235.533 133.806C235.253 133.311 235.113 132.714 235.113 132.014C235.113 131.015 235.402 130.213 235.981 129.606C236.559 128.99 237.381 128.682 238.445 128.682C239.751 128.682 240.666 129.107 241.189 129.956C241.721 130.805 241.987 132.07 241.987 133.75C241.987 134.926 241.879 135.897 241.665 136.662C241.459 137.427 241.105 138.011 240.601 138.412C240.106 138.813 239.425 139.014 238.557 139.014C237.605 139.014 236.863 138.757 236.331 138.244C235.799 137.731 235.495 137.077 235.421 136.284H236.597ZM238.571 134.24C239.196 134.24 239.709 134.049 240.111 133.666C240.512 133.274 240.713 132.747 240.713 132.084C240.713 131.384 240.517 130.819 240.125 130.39C239.733 129.961 239.182 129.746 238.473 129.746C237.819 129.746 237.297 129.951 236.905 130.362C236.522 130.773 236.331 131.314 236.331 131.986C236.331 132.667 236.522 133.213 236.905 133.624C237.287 134.035 237.843 134.24 238.571 134.24Z" fill="#2D2D2D"/>
<path d="M69 119L78 113.804V124.196L69 119Z" fill="#FDFDFD"/>
</g>
<path d="M571 148.455C571 146.246 572.791 144.455 575 144.455H608C610.209 144.455 612 146.246 612 148.455V286.876H571V148.455Z" fill="#38BAE0"/>
<defs>
<filter id="filter0_d_864_5719" x="53" y="68" width="219" height="106" filterUnits="userSpaceOnUse" color-interpolation-filters="sRGB">
<feFlood flood-opacity="0" result="BackgroundImageFix"/>
<feColorMatrix in="SourceAlpha" type="matrix" values="0 0 0 0 0 0 0 0 0 0 0 0 0 0 0 0 0 0 127 0" result="hardAlpha"/>
<feOffset/>
<feGaussianBlur stdDeviation="8"/>
<feComposite in2="hardAlpha" operator="out"/>
<feColorMatrix type="matrix" values="0 0 0 0 0 0 0 0 0 0 0 0 0 0 0 0 0 0 0.15 0"/>
<feBlend mode="normal" in2="BackgroundImageFix" result="effect1_dropShadow_864_5719"/>
<feBlend mode="normal" in="SourceGraphic" in2="effect1_dropShadow_864_5719" result="shape"/>
</filter>
</defs>
</svg>
