<svg width="355" height="71" viewBox="0 0 355 71" fill="none" xmlns="http://www.w3.org/2000/svg">
<rect x="5.5" y="5" width="11" height="11" rx="3.5" stroke="#38BAE0"/>
<path d="M27.578 5.939V6.901H25.108V15H23.925V6.901H21.442V5.939H27.578ZM32.1412 15.117C31.4739 15.117 30.8672 14.9653 30.3212 14.662C29.7839 14.3587 29.3592 13.9297 29.0472 13.375C28.7439 12.8117 28.5922 12.1617 28.5922 11.425C28.5922 10.697 28.7482 10.0557 29.0602 9.501C29.3809 8.93767 29.8142 8.50867 30.3602 8.214C30.9062 7.91067 31.5172 7.759 32.1932 7.759C32.8692 7.759 33.4802 7.91067 34.0262 8.214C34.5722 8.50867 35.0012 8.93333 35.3132 9.488C35.6339 10.0427 35.7942 10.6883 35.7942 11.425C35.7942 12.1617 35.6295 12.8117 35.3002 13.375C34.9795 13.9297 34.5419 14.3587 33.9872 14.662C33.4325 14.9653 32.8172 15.117 32.1412 15.117ZM32.1412 14.077C32.5659 14.077 32.9645 13.9773 33.3372 13.778C33.7099 13.5787 34.0089 13.2797 34.2342 12.881C34.4682 12.4823 34.5852 11.997 34.5852 11.425C34.5852 10.853 34.4725 10.3677 34.2472 9.969C34.0219 9.57033 33.7272 9.27567 33.3632 9.085C32.9992 8.88567 32.6049 8.786 32.1802 8.786C31.7469 8.786 31.3482 8.88567 30.9842 9.085C30.6289 9.27567 30.3429 9.57033 30.1262 9.969C29.9095 10.3677 29.8012 10.853 29.8012 11.425C29.8012 12.0057 29.9052 12.4953 30.1132 12.894C30.3299 13.2927 30.6159 13.5917 30.9712 13.791C31.3265 13.9817 31.7165 14.077 32.1412 14.077ZM36.9076 11.412C36.9076 10.684 37.055 10.047 37.3496 9.501C37.6443 8.94633 38.0473 8.51733 38.5586 8.214C39.0786 7.91067 39.6593 7.759 40.3006 7.759C40.8553 7.759 41.371 7.889 41.8476 8.149C42.3243 8.40033 42.6883 8.734 42.9396 9.15V5.38H44.1356V15H42.9396V13.661C42.7056 14.0857 42.359 14.4367 41.8996 14.714C41.4403 14.9827 40.903 15.117 40.2876 15.117C39.655 15.117 39.0786 14.961 38.5586 14.649C38.0473 14.337 37.6443 13.8993 37.3496 13.336C37.055 12.7727 36.9076 12.1313 36.9076 11.412ZM42.9396 11.425C42.9396 10.8877 42.8313 10.4197 42.6146 10.021C42.398 9.62233 42.1033 9.319 41.7306 9.111C41.3666 8.89433 40.9636 8.786 40.5216 8.786C40.0796 8.786 39.6766 8.89 39.3126 9.098C38.9486 9.306 38.6583 9.60933 38.4416 10.008C38.225 10.4067 38.1166 10.8747 38.1166 11.412C38.1166 11.958 38.225 12.4347 38.4416 12.842C38.6583 13.2407 38.9486 13.5483 39.3126 13.765C39.6766 13.973 40.0796 14.077 40.5216 14.077C40.9636 14.077 41.3666 13.973 41.7306 13.765C42.1033 13.5483 42.398 13.2407 42.6146 12.842C42.8313 12.4347 42.9396 11.9623 42.9396 11.425ZM45.6928 11.412C45.6928 10.684 45.8401 10.047 46.1348 9.501C46.4295 8.94633 46.8325 8.51733 47.3438 8.214C47.8638 7.91067 48.4401 7.759 49.0728 7.759C49.6968 7.759 50.2385 7.89333 50.6978 8.162C51.1571 8.43067 51.4995 8.76867 51.7248 9.176V7.876H52.9208V15H51.7248V13.674C51.4908 14.09 51.1398 14.4367 50.6718 14.714C50.2125 14.9827 49.6751 15.117 49.0598 15.117C48.4271 15.117 47.8551 14.961 47.3438 14.649C46.8325 14.337 46.4295 13.8993 46.1348 13.336C45.8401 12.7727 45.6928 12.1313 45.6928 11.412ZM51.7248 11.425C51.7248 10.8877 51.6165 10.4197 51.3998 10.021C51.1831 9.62233 50.8885 9.319 50.5158 9.111C50.1518 8.89433 49.7488 8.786 49.3068 8.786C48.8648 8.786 48.4618 8.89 48.0978 9.098C47.7338 9.306 47.4435 9.60933 47.2268 10.008C47.0101 10.4067 46.9018 10.8747 46.9018 11.412C46.9018 11.958 47.0101 12.4347 47.2268 12.842C47.4435 13.2407 47.7338 13.5483 48.0978 13.765C48.4618 13.973 48.8648 14.077 49.3068 14.077C49.7488 14.077 50.1518 13.973 50.5158 13.765C50.8885 13.5483 51.1831 13.2407 51.3998 12.842C51.6165 12.4347 51.7248 11.9623 51.7248 11.425ZM61.0559 7.876L56.7659 18.354H55.5439L56.9479 14.922L54.0749 7.876H55.3879L57.6239 13.648L59.8339 7.876H61.0559ZM62.4271 5.939H63.7401L62.4921 8.89H61.6601L62.4271 5.939ZM67.6109 15.117C67.0649 15.117 66.5752 15.026 66.1419 14.844C65.7086 14.6533 65.3662 14.3933 65.1149 14.064C64.8636 13.726 64.7249 13.3403 64.6989 12.907H65.9209C65.9556 13.2623 66.1202 13.5527 66.4149 13.778C66.7182 14.0033 67.1126 14.116 67.5979 14.116C68.0486 14.116 68.4039 14.0163 68.6639 13.817C68.9239 13.6177 69.0539 13.3663 69.0539 13.063C69.0539 12.751 68.9152 12.5213 68.6379 12.374C68.3606 12.218 67.9316 12.0663 67.3509 11.919C66.8222 11.7803 66.3889 11.6417 66.0509 11.503C65.7216 11.3557 65.4356 11.1433 65.1929 10.866C64.9589 10.58 64.8419 10.2073 64.8419 9.748C64.8419 9.384 64.9502 9.05033 65.1669 8.747C65.3836 8.44367 65.6912 8.20533 66.0899 8.032C66.4886 7.85 66.9436 7.759 67.4549 7.759C68.2436 7.759 68.8806 7.95833 69.3659 8.357C69.8512 8.75567 70.1112 9.30167 70.1459 9.995H68.9629C68.9369 9.62233 68.7852 9.32333 68.5079 9.098C68.2392 8.87267 67.8752 8.76 67.4159 8.76C66.9912 8.76 66.6532 8.851 66.4019 9.033C66.1506 9.215 66.0249 9.45333 66.0249 9.748C66.0249 9.982 66.0986 10.177 66.2459 10.333C66.4019 10.4803 66.5926 10.6017 66.8179 10.697C67.0519 10.7837 67.3726 10.8833 67.7799 10.996C68.2912 11.1347 68.7072 11.2733 69.0279 11.412C69.3486 11.542 69.6216 11.7413 69.8469 12.01C70.0809 12.2787 70.2022 12.6297 70.2109 13.063C70.2109 13.453 70.1026 13.804 69.8859 14.116C69.6692 14.428 69.3616 14.675 68.9629 14.857C68.5729 15.0303 68.1222 15.117 67.6109 15.117ZM78.1677 5.939C79.1557 5.939 80.0094 6.12533 80.7287 6.498C81.4567 6.862 82.0114 7.38633 82.3927 8.071C82.7827 8.75567 82.9777 9.56167 82.9777 10.489C82.9777 11.4163 82.7827 12.2223 82.3927 12.907C82.0114 13.583 81.4567 14.103 80.7287 14.467C80.0094 14.8223 79.1557 15 78.1677 15H75.3467V5.939H78.1677ZM78.1677 14.025C79.3377 14.025 80.2304 13.7173 80.8457 13.102C81.461 12.478 81.7687 11.607 81.7687 10.489C81.7687 9.36233 81.4567 8.48267 80.8327 7.85C80.2174 7.21733 79.329 6.901 78.1677 6.901H76.5297V14.025H78.1677ZM84.0961 11.412C84.0961 10.684 84.2434 10.047 84.5381 9.501C84.8328 8.94633 85.2358 8.51733 85.7471 8.214C86.2671 7.91067 86.8434 7.759 87.4761 7.759C88.1001 7.759 88.6418 7.89333 89.1011 8.162C89.5604 8.43067 89.9028 8.76867 90.1281 9.176V7.876H91.3241V15H90.1281V13.674C89.8941 14.09 89.5431 14.4367 89.0751 14.714C88.6158 14.9827 88.0784 15.117 87.4631 15.117C86.8304 15.117 86.2584 14.961 85.7471 14.649C85.2358 14.337 84.8328 13.8993 84.5381 13.336C84.2434 12.7727 84.0961 12.1313 84.0961 11.412ZM90.1281 11.425C90.1281 10.8877 90.0198 10.4197 89.8031 10.021C89.5864 9.62233 89.2918 9.319 88.9191 9.111C88.5551 8.89433 88.1521 8.786 87.7101 8.786C87.2681 8.786 86.8651 8.89 86.5011 9.098C86.1371 9.306 85.8468 9.60933 85.6301 10.008C85.4134 10.4067 85.3051 10.8747 85.3051 11.412C85.3051 11.958 85.4134 12.4347 85.6301 12.842C85.8468 13.2407 86.1371 13.5483 86.5011 13.765C86.8651 13.973 87.2681 14.077 87.7101 14.077C88.1521 14.077 88.5551 13.973 88.9191 13.765C89.2918 13.5483 89.5864 13.2407 89.8031 12.842C90.0198 12.4347 90.1281 11.9623 90.1281 11.425ZM94.7663 8.851V13.05C94.7663 13.3967 94.8399 13.6437 94.9873 13.791C95.1346 13.9297 95.3903 13.999 95.7543 13.999H96.6253V15H95.5593C94.9006 15 94.4066 14.8483 94.0773 14.545C93.7479 14.2417 93.5833 13.7433 93.5833 13.05V8.851H92.6603V7.876H93.5833V6.082H94.7663V7.876H96.6253V8.851H94.7663ZM104.559 11.165C104.559 11.3903 104.546 11.6287 104.52 11.88H98.8256C98.869 12.582 99.1073 13.1323 99.5406 13.531C99.9826 13.921 100.516 14.116 101.14 14.116C101.651 14.116 102.076 13.999 102.414 13.765C102.76 13.5223 103.003 13.2017 103.142 12.803H104.416C104.225 13.4877 103.844 14.0467 103.272 14.48C102.7 14.9047 101.989 15.117 101.14 15.117C100.464 15.117 99.857 14.9653 99.3196 14.662C98.791 14.3587 98.375 13.9297 98.0716 13.375C97.7683 12.8117 97.6166 12.1617 97.6166 11.425C97.6166 10.6883 97.764 10.0427 98.0586 9.488C98.3533 8.93333 98.765 8.50867 99.2936 8.214C99.831 7.91067 100.446 7.759 101.14 7.759C101.816 7.759 102.414 7.90633 102.934 8.201C103.454 8.49567 103.852 8.903 104.13 9.423C104.416 9.93433 104.559 10.515 104.559 11.165ZM103.337 10.918C103.337 10.4673 103.237 10.0817 103.038 9.761C102.838 9.43167 102.565 9.18467 102.219 9.02C101.881 8.84667 101.504 8.76 101.088 8.76C100.49 8.76 99.9783 8.95067 99.5536 9.332C99.1376 9.71333 98.8993 10.242 98.8386 10.918H103.337Z" fill="#777777"/>
<rect x="5" y="29.5" width="12" height="12" rx="4" fill="#F57272"/>
<path d="M28.982 30.939V40H27.799V35.892H23.184V40H22.001V30.939H23.184V34.917H27.799V30.939H28.982ZM34.109 40.117C33.4416 40.117 32.835 39.9653 32.289 39.662C31.7516 39.3587 31.327 38.9297 31.015 38.375C30.7116 37.8117 30.56 37.1617 30.56 36.425C30.56 35.697 30.716 35.0557 31.028 34.501C31.3486 33.9377 31.782 33.5087 32.328 33.214C32.874 32.9107 33.485 32.759 34.161 32.759C34.837 32.759 35.448 32.9107 35.994 33.214C36.54 33.5087 36.969 33.9333 37.281 34.488C37.6016 35.0427 37.762 35.6883 37.762 36.425C37.762 37.1617 37.5973 37.8117 37.268 38.375C36.9473 38.9297 36.5096 39.3587 35.955 39.662C35.4003 39.9653 34.785 40.117 34.109 40.117ZM34.109 39.077C34.5336 39.077 34.9323 38.9773 35.305 38.778C35.6776 38.5787 35.9766 38.2797 36.202 37.881C36.436 37.4823 36.553 36.997 36.553 36.425C36.553 35.853 36.4403 35.3677 36.215 34.969C35.9896 34.5703 35.695 34.2757 35.331 34.085C34.967 33.8857 34.5726 33.786 34.148 33.786C33.7146 33.786 33.316 33.8857 32.952 34.085C32.5966 34.2757 32.3106 34.5703 32.094 34.969C31.8773 35.3677 31.769 35.853 31.769 36.425C31.769 37.0057 31.873 37.4953 32.081 37.894C32.2976 38.2927 32.5836 38.5917 32.939 38.791C33.2943 38.9817 33.6843 39.077 34.109 39.077ZM40.5004 30.38V40H39.3174V30.38H40.5004ZM43.1276 31.719C42.9023 31.719 42.7116 31.641 42.5556 31.485C42.3996 31.329 42.3216 31.1383 42.3216 30.913C42.3216 30.6877 42.3996 30.497 42.5556 30.341C42.7116 30.185 42.9023 30.107 43.1276 30.107C43.3443 30.107 43.5263 30.185 43.6736 30.341C43.8296 30.497 43.9076 30.6877 43.9076 30.913C43.9076 31.1383 43.8296 31.329 43.6736 31.485C43.5263 31.641 43.3443 31.719 43.1276 31.719ZM43.6996 32.876V40H42.5166V32.876H43.6996ZM45.2738 36.412C45.2738 35.684 45.4212 35.047 45.7158 34.501C46.0105 33.9463 46.4135 33.5173 46.9248 33.214C47.4448 32.9107 48.0255 32.759 48.6668 32.759C49.2215 32.759 49.7372 32.889 50.2138 33.149C50.6905 33.4003 51.0545 33.734 51.3058 34.15V30.38H52.5018V40H51.3058V38.661C51.0718 39.0857 50.7252 39.4367 50.2658 39.714C49.8065 39.9827 49.2692 40.117 48.6538 40.117C48.0212 40.117 47.4448 39.961 46.9248 39.649C46.4135 39.337 46.0105 38.8993 45.7158 38.336C45.4212 37.7727 45.2738 37.1313 45.2738 36.412ZM51.3058 36.425C51.3058 35.8877 51.1975 35.4197 50.9808 35.021C50.7642 34.6223 50.4695 34.319 50.0968 34.111C49.7328 33.8943 49.3298 33.786 48.8878 33.786C48.4458 33.786 48.0428 33.89 47.6788 34.098C47.3148 34.306 47.0245 34.6093 46.8078 35.008C46.5912 35.4067 46.4828 35.8747 46.4828 36.412C46.4828 36.958 46.5912 37.4347 46.8078 37.842C47.0245 38.2407 47.3148 38.5483 47.6788 38.765C48.0428 38.973 48.4458 39.077 48.8878 39.077C49.3298 39.077 49.7328 38.973 50.0968 38.765C50.4695 38.5483 50.7642 38.2407 50.9808 37.842C51.1975 37.4347 51.3058 36.9623 51.3058 36.425ZM54.059 36.412C54.059 35.684 54.2063 35.047 54.501 34.501C54.7957 33.9463 55.1987 33.5173 55.71 33.214C56.23 32.9107 56.8063 32.759 57.439 32.759C58.063 32.759 58.6047 32.8933 59.064 33.162C59.5233 33.4307 59.8657 33.7687 60.091 34.176V32.876H61.287V40H60.091V38.674C59.857 39.09 59.506 39.4367 59.038 39.714C58.5787 39.9827 58.0413 40.117 57.426 40.117C56.7933 40.117 56.2213 39.961 55.71 39.649C55.1987 39.337 54.7957 38.8993 54.501 38.336C54.2063 37.7727 54.059 37.1313 54.059 36.412ZM60.091 36.425C60.091 35.8877 59.9827 35.4197 59.766 35.021C59.5493 34.6223 59.2547 34.319 58.882 34.111C58.518 33.8943 58.115 33.786 57.673 33.786C57.231 33.786 56.828 33.89 56.464 34.098C56.1 34.306 55.8097 34.6093 55.593 35.008C55.3763 35.4067 55.268 35.8747 55.268 36.412C55.268 36.958 55.3763 37.4347 55.593 37.842C55.8097 38.2407 56.1 38.5483 56.464 38.765C56.828 38.973 57.231 39.077 57.673 39.077C58.115 39.077 58.518 38.973 58.882 38.765C59.2547 38.5483 59.5493 38.2407 59.766 37.842C59.9827 37.4347 60.091 36.9623 60.091 36.425ZM69.4222 32.876L65.1322 43.354H63.9102L65.3142 39.922L62.4412 32.876H63.7542L65.9902 38.648L68.2002 32.876H69.4222Z" fill="#777777"/>
<rect x="5" y="56.5" width="8" height="8" rx="4" fill="#38BAE0"/>
<path d="M19.184 56.901V59.93H22.486V60.905H19.184V64.025H22.876V65H18.001V55.926H22.876V56.901H19.184ZM27.318 63.908L29.528 57.876H30.789L27.994 65H26.616L23.821 57.876H25.095L27.318 63.908ZM38.4531 61.165C38.4531 61.3903 38.4401 61.6287 38.4141 61.88H32.7201C32.7635 62.582 33.0018 63.1323 33.4351 63.531C33.8771 63.921 34.4101 64.116 35.0341 64.116C35.5455 64.116 35.9701 63.999 36.3081 63.765C36.6548 63.5223 36.8975 63.2017 37.0361 62.803H38.3101C38.1195 63.4877 37.7381 64.0467 37.1661 64.48C36.5941 64.9047 35.8835 65.117 35.0341 65.117C34.3581 65.117 33.7515 64.9653 33.2141 64.662C32.6855 64.3587 32.2695 63.9297 31.9661 63.375C31.6628 62.8117 31.5111 62.1617 31.5111 61.425C31.5111 60.6883 31.6585 60.0427 31.9531 59.488C32.2478 58.9333 32.6595 58.5087 33.1881 58.214C33.7255 57.9107 34.3408 57.759 35.0341 57.759C35.7101 57.759 36.3081 57.9063 36.8281 58.201C37.3481 58.4957 37.7468 58.903 38.0241 59.423C38.3101 59.9343 38.4531 60.515 38.4531 61.165ZM37.2311 60.918C37.2311 60.4673 37.1315 60.0817 36.9321 59.761C36.7328 59.4317 36.4598 59.1847 36.1131 59.02C35.7751 58.8467 35.3981 58.76 34.9821 58.76C34.3841 58.76 33.8728 58.9507 33.4481 59.332C33.0321 59.7133 32.7938 60.242 32.7331 60.918H37.2311ZM43.4857 57.746C44.3523 57.746 45.0543 58.0103 45.5917 58.539C46.129 59.059 46.3977 59.813 46.3977 60.801V65H45.2277V60.97C45.2277 60.2593 45.05 59.7177 44.6947 59.345C44.3393 58.9637 43.854 58.773 43.2387 58.773C42.6147 58.773 42.1163 58.968 41.7437 59.358C41.3797 59.748 41.1977 60.3157 41.1977 61.061V65H40.0147V57.876H41.1977V58.89C41.4317 58.526 41.748 58.2443 42.1467 58.045C42.554 57.8457 43.0003 57.746 43.4857 57.746ZM49.7731 58.851V63.05C49.7731 63.3967 49.8468 63.6437 49.9941 63.791C50.1414 63.9297 50.3971 63.999 50.7611 63.999H51.6321V65H50.5661C49.9074 65 49.4134 64.8483 49.0841 64.545C48.7548 64.2417 48.5901 63.7433 48.5901 63.05V58.851H47.6671V57.876H48.5901V56.082H49.7731V57.876H51.6321V58.851H49.7731Z" fill="#777777"/>
</svg>
