<svg width="46" height="47" viewBox="0 0 46 47" fill="none" xmlns="http://www.w3.org/2000/svg">
<rect y="0.5" width="46" height="46" rx="8" fill="#BFEAC3"/>
<rect width="28.3077" height="28.3077" transform="translate(8.84616 9.34619)" fill="#BFEAC3"/>
<path d="M11.2051 11.7052H27.718C29.942 11.7052 31.054 11.7052 31.745 12.3961C32.4359 13.0871 32.4359 14.1991 32.4359 16.4231V23.5001C32.4359 25.7241 32.4359 26.8361 31.745 27.5271C31.054 28.218 29.942 28.218 27.718 28.218H19.4615" stroke="#154F1A" stroke-width="1.5" stroke-linecap="round" stroke-linejoin="round"/>
<path d="M20.641 17.0128H27.7179" stroke="#154F1A" stroke-width="1.5" stroke-linecap="round" stroke-linejoin="round"/>
<path d="M11.2051 29.3975V24.6795C11.2051 23.5675 11.2051 23.0115 11.5506 22.666C11.8961 22.3206 12.4521 22.3206 13.5641 22.3206H15.9231M11.2051 29.3975H15.9231M11.2051 29.3975V35.2949M15.9231 22.3206V29.3975M15.9231 22.3206H19.4615H23M15.9231 29.3975V35.2949" stroke="#154F1A" stroke-width="1.5" stroke-linecap="round" stroke-linejoin="round"/>
<path d="M15.9231 17.0129C15.9231 18.3157 14.8669 19.3719 13.5641 19.3719C12.2613 19.3719 11.2051 18.3157 11.2051 17.0129C11.2051 15.7101 12.2613 14.6539 13.5641 14.6539C14.8669 14.6539 15.9231 15.7101 15.9231 17.0129Z" stroke="#154F1A" stroke-width="1.5"/>
</svg>
