<svg width="355" height="259" viewBox="0 0 355 259" fill="none" xmlns="http://www.w3.org/2000/svg">
<path d="M17.3828 17.625C17.3828 17.3594 17.3411 17.125 17.2578 16.9219C17.1797 16.7135 17.0391 16.526 16.8359 16.3594C16.638 16.1927 16.362 16.0339 16.0078 15.8828C15.6589 15.7318 15.2161 15.5781 14.6797 15.4219C14.1172 15.2552 13.6094 15.0703 13.1562 14.8672C12.7031 14.6589 12.3151 14.4219 11.9922 14.1562C11.6693 13.8906 11.4219 13.5859 11.25 13.2422C11.0781 12.8984 10.9922 12.5052 10.9922 12.0625C10.9922 11.6198 11.0833 11.2109 11.2656 10.8359C11.4479 10.4609 11.7083 10.1354 12.0469 9.85938C12.3906 9.57812 12.7995 9.35938 13.2734 9.20312C13.7474 9.04688 14.276 8.96875 14.8594 8.96875C15.7135 8.96875 16.4375 9.13281 17.0312 9.46094C17.6302 9.78385 18.0859 10.2083 18.3984 10.7344C18.7109 11.2552 18.8672 11.8125 18.8672 12.4062H17.3672C17.3672 11.9792 17.276 11.6016 17.0938 11.2734C16.9115 10.9401 16.6354 10.6797 16.2656 10.4922C15.8958 10.2995 15.4271 10.2031 14.8594 10.2031C14.3229 10.2031 13.8802 10.2839 13.5312 10.4453C13.1823 10.6068 12.9219 10.8255 12.75 11.1016C12.5833 11.3776 12.5 11.6927 12.5 12.0469C12.5 12.2865 12.5495 12.5052 12.6484 12.7031C12.7526 12.8958 12.9115 13.0755 13.125 13.2422C13.3438 13.4089 13.6198 13.5625 13.9531 13.7031C14.2917 13.8438 14.6953 13.9792 15.1641 14.1094C15.8099 14.2917 16.3672 14.4948 16.8359 14.7188C17.3047 14.9427 17.6901 15.1953 17.9922 15.4766C18.2995 15.7526 18.526 16.0677 18.6719 16.4219C18.8229 16.7708 18.8984 17.1667 18.8984 17.6094C18.8984 18.0729 18.8047 18.4922 18.6172 18.8672C18.4297 19.2422 18.1615 19.5625 17.8125 19.8281C17.4635 20.0938 17.0443 20.2995 16.5547 20.4453C16.0703 20.5859 15.5286 20.6562 14.9297 20.6562C14.4036 20.6562 13.8854 20.5833 13.375 20.4375C12.8698 20.2917 12.4089 20.0729 11.9922 19.7812C11.5807 19.4896 11.25 19.1302 11 18.7031C10.7552 18.2708 10.6328 17.7708 10.6328 17.2031H12.1328C12.1328 17.5938 12.2083 17.9297 12.3594 18.2109C12.5104 18.487 12.7161 18.7161 12.9766 18.8984C13.2422 19.0807 13.5417 19.2161 13.875 19.3047C14.2135 19.388 14.5651 19.4297 14.9297 19.4297C15.4557 19.4297 15.901 19.3568 16.2656 19.2109C16.6302 19.0651 16.9062 18.8568 17.0938 18.5859C17.2865 18.3151 17.3828 17.9948 17.3828 17.625Z" fill="#2D2D2D"/>
<path d="M63.7969 9.125H65.2578L68.9844 18.3984L72.7031 9.125H74.1719L69.5469 20.5H68.4062L63.7969 9.125ZM63.3203 9.125H64.6094L64.8203 16.0625V20.5H63.3203V9.125ZM73.3516 9.125H74.6406V20.5H73.1406V16.0625L73.3516 9.125Z" fill="#2D2D2D"/>
<path d="M123.523 9.125V20.5H122.039V9.125H123.523ZM127.18 9.125V10.3594H118.391V9.125H127.18Z" fill="#2D2D2D"/>
<path d="M173.812 17.0625L176.07 9.125H177.164L176.531 12.2109L174.102 20.5H173.016L173.812 17.0625ZM171.477 9.125L173.273 16.9062L173.812 20.5H172.734L169.977 9.125H171.477ZM180.086 16.8984L181.844 9.125H183.352L180.602 20.5H179.523L180.086 16.8984ZM177.328 9.125L179.523 17.0625L180.32 20.5H179.234L176.891 12.2109L176.25 9.125H177.328Z" fill="#2D2D2D"/>
<path d="M231.523 9.125V20.5H230.039V9.125H231.523ZM235.18 9.125V10.3594H226.391V9.125H235.18Z" fill="#2D2D2D"/>
<path d="M283.328 9.125V20.5H281.82V9.125H283.328ZM288.094 14.2422V15.4766H283V14.2422H288.094ZM288.867 9.125V10.3594H283V9.125H288.867Z" fill="#2D2D2D"/>
<rect x="324" width="31" height="30" rx="8" fill="#F57272"/>
<path d="M341.883 17.625C341.883 17.3594 341.841 17.125 341.758 16.9219C341.68 16.7135 341.539 16.526 341.336 16.3594C341.138 16.1927 340.862 16.0339 340.508 15.8828C340.159 15.7318 339.716 15.5781 339.18 15.4219C338.617 15.2552 338.109 15.0703 337.656 14.8672C337.203 14.6589 336.815 14.4219 336.492 14.1562C336.169 13.8906 335.922 13.5859 335.75 13.2422C335.578 12.8984 335.492 12.5052 335.492 12.0625C335.492 11.6198 335.583 11.2109 335.766 10.8359C335.948 10.4609 336.208 10.1354 336.547 9.85938C336.891 9.57812 337.299 9.35938 337.773 9.20312C338.247 9.04688 338.776 8.96875 339.359 8.96875C340.214 8.96875 340.938 9.13281 341.531 9.46094C342.13 9.78385 342.586 10.2083 342.898 10.7344C343.211 11.2552 343.367 11.8125 343.367 12.4062H341.867C341.867 11.9792 341.776 11.6016 341.594 11.2734C341.411 10.9401 341.135 10.6797 340.766 10.4922C340.396 10.2995 339.927 10.2031 339.359 10.2031C338.823 10.2031 338.38 10.2839 338.031 10.4453C337.682 10.6068 337.422 10.8255 337.25 11.1016C337.083 11.3776 337 11.6927 337 12.0469C337 12.2865 337.049 12.5052 337.148 12.7031C337.253 12.8958 337.411 13.0755 337.625 13.2422C337.844 13.4089 338.12 13.5625 338.453 13.7031C338.792 13.8438 339.195 13.9792 339.664 14.1094C340.31 14.2917 340.867 14.4948 341.336 14.7188C341.805 14.9427 342.19 15.1953 342.492 15.4766C342.799 15.7526 343.026 16.0677 343.172 16.4219C343.323 16.7708 343.398 17.1667 343.398 17.6094C343.398 18.0729 343.305 18.4922 343.117 18.8672C342.93 19.2422 342.661 19.5625 342.312 19.8281C341.964 20.0938 341.544 20.2995 341.055 20.4453C340.57 20.5859 340.029 20.6562 339.43 20.6562C338.904 20.6562 338.385 20.5833 337.875 20.4375C337.37 20.2917 336.909 20.0729 336.492 19.7812C336.081 19.4896 335.75 19.1302 335.5 18.7031C335.255 18.2708 335.133 17.7708 335.133 17.2031H336.633C336.633 17.5938 336.708 17.9297 336.859 18.2109C337.01 18.487 337.216 18.7161 337.477 18.8984C337.742 19.0807 338.042 19.2161 338.375 19.3047C338.714 19.388 339.065 19.4297 339.43 19.4297C339.956 19.4297 340.401 19.3568 340.766 19.2109C341.13 19.0651 341.406 18.8568 341.594 18.5859C341.786 18.3151 341.883 17.9948 341.883 17.625Z" fill="white"/>
<g opacity="0.4">
<path d="M14.3984 64.3125V65.5H6.95312V64.4609L10.6797 60.3125C11.138 59.8021 11.4922 59.3698 11.7422 59.0156C11.9974 58.6562 12.1745 58.3359 12.2734 58.0547C12.3776 57.7682 12.4297 57.4766 12.4297 57.1797C12.4297 56.8047 12.3516 56.4661 12.1953 56.1641C12.0443 55.8568 11.8203 55.612 11.5234 55.4297C11.2266 55.2474 10.8672 55.1562 10.4453 55.1562C9.9401 55.1562 9.51823 55.2552 9.17969 55.4531C8.84635 55.6458 8.59635 55.9167 8.42969 56.2656C8.26302 56.6146 8.17969 57.0156 8.17969 57.4688H6.73438C6.73438 56.8281 6.875 56.2422 7.15625 55.7109C7.4375 55.1797 7.85417 54.7578 8.40625 54.4453C8.95833 54.1276 9.63802 53.9688 10.4453 53.9688C11.1641 53.9688 11.7786 54.0964 12.2891 54.3516C12.7995 54.6016 13.1901 54.9557 13.4609 55.4141C13.737 55.8672 13.875 56.3984 13.875 57.0078C13.875 57.3411 13.8177 57.6797 13.7031 58.0234C13.5938 58.362 13.4401 58.7005 13.2422 59.0391C13.0495 59.3776 12.8229 59.7109 12.5625 60.0391C12.3073 60.3672 12.0339 60.6901 11.7422 61.0078L8.69531 64.3125H14.3984ZM17.3828 64.2891H17.5312C18.3646 64.2891 19.0417 64.1719 19.5625 63.9375C20.0833 63.7031 20.4844 63.388 20.7656 62.9922C21.0469 62.5964 21.2396 62.151 21.3438 61.6562C21.4479 61.1562 21.5 60.6432 21.5 60.1172V58.375C21.5 57.8594 21.4401 57.401 21.3203 57C21.2057 56.599 21.0443 56.263 20.8359 55.9922C20.6328 55.7214 20.401 55.5156 20.1406 55.375C19.8802 55.2344 19.6042 55.1641 19.3125 55.1641C18.9792 55.1641 18.6797 55.2318 18.4141 55.3672C18.1536 55.4974 17.9323 55.6823 17.75 55.9219C17.5729 56.1615 17.4375 56.4427 17.3438 56.7656C17.25 57.0885 17.2031 57.4401 17.2031 57.8203C17.2031 58.1589 17.2448 58.487 17.3281 58.8047C17.4115 59.1224 17.5391 59.4089 17.7109 59.6641C17.8828 59.9193 18.0964 60.1224 18.3516 60.2734C18.612 60.4193 18.9167 60.4922 19.2656 60.4922C19.5885 60.4922 19.8906 60.4297 20.1719 60.3047C20.4583 60.1745 20.7109 60 20.9297 59.7812C21.1536 59.5573 21.3307 59.3047 21.4609 59.0234C21.5964 58.7422 21.6745 58.4479 21.6953 58.1406H22.3828C22.3828 58.5729 22.2969 59 22.125 59.4219C21.9583 59.8385 21.724 60.2188 21.4219 60.5625C21.1198 60.9062 20.7656 61.1823 20.3594 61.3906C19.9531 61.5938 19.5104 61.6953 19.0312 61.6953C18.4688 61.6953 17.9818 61.5859 17.5703 61.3672C17.1589 61.1484 16.8203 60.8568 16.5547 60.4922C16.2943 60.1276 16.099 59.7214 15.9688 59.2734C15.8438 58.8203 15.7812 58.362 15.7812 57.8984C15.7812 57.3568 15.8568 56.849 16.0078 56.375C16.1589 55.901 16.3828 55.4844 16.6797 55.125C16.9766 54.7604 17.3438 54.4766 17.7812 54.2734C18.224 54.0703 18.7344 53.9688 19.3125 53.9688C19.9635 53.9688 20.5182 54.099 20.9766 54.3594C21.4349 54.6198 21.8073 54.9688 22.0938 55.4062C22.3854 55.8438 22.599 56.3359 22.7344 56.8828C22.8698 57.4297 22.9375 57.9922 22.9375 58.5703V59.0938C22.9375 59.6823 22.8984 60.2812 22.8203 60.8906C22.7474 61.4948 22.6042 62.0729 22.3906 62.625C22.1823 63.1771 21.8776 63.6719 21.4766 64.1094C21.0755 64.5417 20.5521 64.8854 19.9062 65.1406C19.2656 65.3906 18.474 65.5156 17.5312 65.5156H17.3828V64.2891Z" fill="#777777"/>
</g>
<g opacity="0.4">
<path d="M63.0547 59.1016H64.0859C64.5911 59.1016 65.0078 59.0182 65.3359 58.8516C65.6693 58.6797 65.9167 58.4479 66.0781 58.1562C66.2448 57.8594 66.3281 57.526 66.3281 57.1562C66.3281 56.7188 66.2552 56.3516 66.1094 56.0547C65.9635 55.7578 65.7448 55.5339 65.4531 55.3828C65.1615 55.2318 64.7917 55.1562 64.3438 55.1562C63.9375 55.1562 63.5781 55.237 63.2656 55.3984C62.9583 55.5547 62.7161 55.7786 62.5391 56.0703C62.3672 56.362 62.2812 56.7057 62.2812 57.1016H60.8359C60.8359 56.5234 60.9818 55.9974 61.2734 55.5234C61.5651 55.0495 61.974 54.6719 62.5 54.3906C63.0312 54.1094 63.6458 53.9688 64.3438 53.9688C65.0312 53.9688 65.6328 54.0911 66.1484 54.3359C66.6641 54.5755 67.0651 54.9349 67.3516 55.4141C67.638 55.888 67.7812 56.4792 67.7812 57.1875C67.7812 57.474 67.7135 57.7812 67.5781 58.1094C67.4479 58.4323 67.2422 58.7344 66.9609 59.0156C66.6849 59.2969 66.3255 59.5286 65.8828 59.7109C65.4401 59.888 64.9089 59.9766 64.2891 59.9766H63.0547V59.1016ZM63.0547 60.2891V59.4219H64.2891C65.013 59.4219 65.612 59.5078 66.0859 59.6797C66.5599 59.8516 66.9323 60.0807 67.2031 60.3672C67.4792 60.6536 67.6719 60.9688 67.7812 61.3125C67.8958 61.651 67.9531 61.9896 67.9531 62.3281C67.9531 62.8594 67.862 63.3307 67.6797 63.7422C67.5026 64.1536 67.25 64.5026 66.9219 64.7891C66.599 65.0755 66.2188 65.2917 65.7812 65.4375C65.3438 65.5833 64.8672 65.6562 64.3516 65.6562C63.8568 65.6562 63.3906 65.5859 62.9531 65.4453C62.5208 65.3047 62.138 65.1016 61.8047 64.8359C61.4714 64.5651 61.2109 64.2344 61.0234 63.8438C60.8359 63.4479 60.7422 62.9974 60.7422 62.4922H62.1875C62.1875 62.888 62.2734 63.2344 62.4453 63.5312C62.6224 63.8281 62.8724 64.0599 63.1953 64.2266C63.5234 64.388 63.9089 64.4688 64.3516 64.4688C64.7943 64.4688 65.1745 64.3932 65.4922 64.2422C65.8151 64.0859 66.0625 63.8516 66.2344 63.5391C66.4115 63.2266 66.5 62.8333 66.5 62.3594C66.5 61.8854 66.401 61.4974 66.2031 61.1953C66.0052 60.888 65.724 60.6615 65.3594 60.5156C65 60.3646 64.5755 60.2891 64.0859 60.2891H63.0547ZM77.0859 58.9062V60.6406C77.0859 61.5729 77.0026 62.3594 76.8359 63C76.6693 63.6406 76.4297 64.1562 76.1172 64.5469C75.8047 64.9375 75.4271 65.2214 74.9844 65.3984C74.5469 65.5703 74.0521 65.6562 73.5 65.6562C73.0625 65.6562 72.6589 65.6016 72.2891 65.4922C71.9193 65.3828 71.5859 65.2083 71.2891 64.9688C70.9974 64.724 70.7474 64.4062 70.5391 64.0156C70.3307 63.625 70.1719 63.151 70.0625 62.5938C69.9531 62.0365 69.8984 61.3854 69.8984 60.6406V58.9062C69.8984 57.974 69.9818 57.1927 70.1484 56.5625C70.3203 55.9323 70.5625 55.4271 70.875 55.0469C71.1875 54.6615 71.5625 54.3854 72 54.2188C72.4427 54.0521 72.9375 53.9688 73.4844 53.9688C73.9271 53.9688 74.3333 54.0234 74.7031 54.1328C75.0781 54.237 75.4115 54.4062 75.7031 54.6406C75.9948 54.8698 76.2422 55.1771 76.4453 55.5625C76.6536 55.9427 76.8125 56.4089 76.9219 56.9609C77.0312 57.513 77.0859 58.1615 77.0859 58.9062ZM75.6328 60.875V58.6641C75.6328 58.1536 75.6016 57.7057 75.5391 57.3203C75.4818 56.9297 75.3958 56.5964 75.2812 56.3203C75.1667 56.0443 75.0208 55.8203 74.8438 55.6484C74.6719 55.4766 74.4714 55.3516 74.2422 55.2734C74.0182 55.1901 73.7656 55.1484 73.4844 55.1484C73.1406 55.1484 72.8359 55.2135 72.5703 55.3438C72.3047 55.4688 72.0807 55.6693 71.8984 55.9453C71.7214 56.2214 71.5859 56.5833 71.4922 57.0312C71.3984 57.4792 71.3516 58.0234 71.3516 58.6641V60.875C71.3516 61.3854 71.3802 61.8359 71.4375 62.2266C71.5 62.6172 71.5911 62.9557 71.7109 63.2422C71.8307 63.5234 71.9766 63.7552 72.1484 63.9375C72.3203 64.1198 72.5182 64.2552 72.7422 64.3438C72.9714 64.4271 73.224 64.4688 73.5 64.4688C73.8542 64.4688 74.1641 64.401 74.4297 64.2656C74.6953 64.1302 74.9167 63.9193 75.0938 63.6328C75.276 63.3411 75.4115 62.9688 75.5 62.5156C75.5885 62.0573 75.6328 61.5104 75.6328 60.875Z" fill="#777777"/>
</g>
<g opacity="0.4">
<path d="M117.055 59.1016H118.086C118.591 59.1016 119.008 59.0182 119.336 58.8516C119.669 58.6797 119.917 58.4479 120.078 58.1562C120.245 57.8594 120.328 57.526 120.328 57.1562C120.328 56.7188 120.255 56.3516 120.109 56.0547C119.964 55.7578 119.745 55.5339 119.453 55.3828C119.161 55.2318 118.792 55.1562 118.344 55.1562C117.938 55.1562 117.578 55.237 117.266 55.3984C116.958 55.5547 116.716 55.7786 116.539 56.0703C116.367 56.362 116.281 56.7057 116.281 57.1016H114.836C114.836 56.5234 114.982 55.9974 115.273 55.5234C115.565 55.0495 115.974 54.6719 116.5 54.3906C117.031 54.1094 117.646 53.9688 118.344 53.9688C119.031 53.9688 119.633 54.0911 120.148 54.3359C120.664 54.5755 121.065 54.9349 121.352 55.4141C121.638 55.888 121.781 56.4792 121.781 57.1875C121.781 57.474 121.714 57.7812 121.578 58.1094C121.448 58.4323 121.242 58.7344 120.961 59.0156C120.685 59.2969 120.326 59.5286 119.883 59.7109C119.44 59.888 118.909 59.9766 118.289 59.9766H117.055V59.1016ZM117.055 60.2891V59.4219H118.289C119.013 59.4219 119.612 59.5078 120.086 59.6797C120.56 59.8516 120.932 60.0807 121.203 60.3672C121.479 60.6536 121.672 60.9688 121.781 61.3125C121.896 61.651 121.953 61.9896 121.953 62.3281C121.953 62.8594 121.862 63.3307 121.68 63.7422C121.503 64.1536 121.25 64.5026 120.922 64.7891C120.599 65.0755 120.219 65.2917 119.781 65.4375C119.344 65.5833 118.867 65.6562 118.352 65.6562C117.857 65.6562 117.391 65.5859 116.953 65.4453C116.521 65.3047 116.138 65.1016 115.805 64.8359C115.471 64.5651 115.211 64.2344 115.023 63.8438C114.836 63.4479 114.742 62.9974 114.742 62.4922H116.188C116.188 62.888 116.273 63.2344 116.445 63.5312C116.622 63.8281 116.872 64.0599 117.195 64.2266C117.523 64.388 117.909 64.4688 118.352 64.4688C118.794 64.4688 119.174 64.3932 119.492 64.2422C119.815 64.0859 120.062 63.8516 120.234 63.5391C120.411 63.2266 120.5 62.8333 120.5 62.3594C120.5 61.8854 120.401 61.4974 120.203 61.1953C120.005 60.888 119.724 60.6615 119.359 60.5156C119 60.3646 118.576 60.2891 118.086 60.2891H117.055ZM128.695 54.0625V65.5H127.25V55.8672L124.336 56.9297V55.625L128.469 54.0625H128.695Z" fill="#777777"/>
</g>
<path d="M178.195 54.0625V65.5H176.75V55.8672L173.836 56.9297V55.625L177.969 54.0625H178.195Z" fill="#2D2D2D"/>
<path d="M234.898 64.3125V65.5H227.453V64.4609L231.18 60.3125C231.638 59.8021 231.992 59.3698 232.242 59.0156C232.497 58.6562 232.674 58.3359 232.773 58.0547C232.878 57.7682 232.93 57.4766 232.93 57.1797C232.93 56.8047 232.852 56.4661 232.695 56.1641C232.544 55.8568 232.32 55.612 232.023 55.4297C231.727 55.2474 231.367 55.1562 230.945 55.1562C230.44 55.1562 230.018 55.2552 229.68 55.4531C229.346 55.6458 229.096 55.9167 228.93 56.2656C228.763 56.6146 228.68 57.0156 228.68 57.4688H227.234C227.234 56.8281 227.375 56.2422 227.656 55.7109C227.938 55.1797 228.354 54.7578 228.906 54.4453C229.458 54.1276 230.138 53.9688 230.945 53.9688C231.664 53.9688 232.279 54.0964 232.789 54.3516C233.299 54.6016 233.69 54.9557 233.961 55.4141C234.237 55.8672 234.375 56.3984 234.375 57.0078C234.375 57.3411 234.318 57.6797 234.203 58.0234C234.094 58.362 233.94 58.7005 233.742 59.0391C233.549 59.3776 233.323 59.7109 233.062 60.0391C232.807 60.3672 232.534 60.6901 232.242 61.0078L229.195 64.3125H234.898Z" fill="#2D2D2D"/>
<path d="M283.555 59.1016H284.586C285.091 59.1016 285.508 59.0182 285.836 58.8516C286.169 58.6797 286.417 58.4479 286.578 58.1562C286.745 57.8594 286.828 57.526 286.828 57.1562C286.828 56.7188 286.755 56.3516 286.609 56.0547C286.464 55.7578 286.245 55.5339 285.953 55.3828C285.661 55.2318 285.292 55.1562 284.844 55.1562C284.438 55.1562 284.078 55.237 283.766 55.3984C283.458 55.5547 283.216 55.7786 283.039 56.0703C282.867 56.362 282.781 56.7057 282.781 57.1016H281.336C281.336 56.5234 281.482 55.9974 281.773 55.5234C282.065 55.0495 282.474 54.6719 283 54.3906C283.531 54.1094 284.146 53.9688 284.844 53.9688C285.531 53.9688 286.133 54.0911 286.648 54.3359C287.164 54.5755 287.565 54.9349 287.852 55.4141C288.138 55.888 288.281 56.4792 288.281 57.1875C288.281 57.474 288.214 57.7812 288.078 58.1094C287.948 58.4323 287.742 58.7344 287.461 59.0156C287.185 59.2969 286.826 59.5286 286.383 59.7109C285.94 59.888 285.409 59.9766 284.789 59.9766H283.555V59.1016ZM283.555 60.2891V59.4219H284.789C285.513 59.4219 286.112 59.5078 286.586 59.6797C287.06 59.8516 287.432 60.0807 287.703 60.3672C287.979 60.6536 288.172 60.9688 288.281 61.3125C288.396 61.651 288.453 61.9896 288.453 62.3281C288.453 62.8594 288.362 63.3307 288.18 63.7422C288.003 64.1536 287.75 64.5026 287.422 64.7891C287.099 65.0755 286.719 65.2917 286.281 65.4375C285.844 65.5833 285.367 65.6562 284.852 65.6562C284.357 65.6562 283.891 65.5859 283.453 65.4453C283.021 65.3047 282.638 65.1016 282.305 64.8359C281.971 64.5651 281.711 64.2344 281.523 63.8438C281.336 63.4479 281.242 62.9974 281.242 62.4922H282.688C282.688 62.888 282.773 63.2344 282.945 63.5312C283.122 63.8281 283.372 64.0599 283.695 64.2266C284.023 64.388 284.409 64.4688 284.852 64.4688C285.294 64.4688 285.674 64.3932 285.992 64.2422C286.315 64.0859 286.562 63.8516 286.734 63.5391C286.911 63.2266 287 62.8333 287 62.3594C287 61.8854 286.901 61.4974 286.703 61.1953C286.505 60.888 286.224 60.6615 285.859 60.5156C285.5 60.3646 285.076 60.2891 284.586 60.2891H283.555Z" fill="#2D2D2D"/>
<rect x="324" y="45" width="31" height="30" rx="8" fill="#F57272"/>
<path d="M343.633 61.6719V62.8594H335.414V62.0078L340.508 54.125H341.688L340.422 56.4062L337.055 61.6719H343.633ZM342.047 54.125V65.5H340.602V54.125H342.047Z" fill="white"/>
<path d="M13.2734 105.086L12.1172 104.789L12.6875 99.125H18.5234V100.461H13.9141L13.5703 103.555C13.7786 103.435 14.0417 103.323 14.3594 103.219C14.6823 103.115 15.0521 103.062 15.4688 103.062C15.9948 103.062 16.4661 103.154 16.8828 103.336C17.2995 103.513 17.6536 103.768 17.9453 104.102C18.2422 104.435 18.4688 104.836 18.625 105.305C18.7812 105.773 18.8594 106.297 18.8594 106.875C18.8594 107.422 18.7839 107.924 18.6328 108.383C18.487 108.841 18.2656 109.242 17.9688 109.586C17.6719 109.924 17.2969 110.188 16.8438 110.375C16.3958 110.562 15.8672 110.656 15.2578 110.656C14.7995 110.656 14.3646 110.594 13.9531 110.469C13.5469 110.339 13.1823 110.143 12.8594 109.883C12.5417 109.617 12.2812 109.289 12.0781 108.898C11.8802 108.503 11.7552 108.039 11.7031 107.508H13.0781C13.1406 107.935 13.2656 108.294 13.4531 108.586C13.6406 108.878 13.8854 109.099 14.1875 109.25C14.4948 109.396 14.8516 109.469 15.2578 109.469C15.6016 109.469 15.9062 109.409 16.1719 109.289C16.4375 109.169 16.6615 108.997 16.8438 108.773C17.026 108.549 17.1641 108.279 17.2578 107.961C17.3568 107.643 17.4062 107.286 17.4062 106.891C17.4062 106.531 17.3568 106.198 17.2578 105.891C17.1589 105.583 17.0104 105.315 16.8125 105.086C16.6198 104.857 16.3828 104.68 16.1016 104.555C15.8203 104.424 15.4974 104.359 15.1328 104.359C14.6484 104.359 14.2812 104.424 14.0312 104.555C13.7865 104.685 13.5339 104.862 13.2734 105.086Z" fill="#2D2D2D"/>
<path d="M71.1589 99.1094H71.2839V100.336H71.1589C70.3932 100.336 69.7526 100.461 69.237 100.711C68.7214 100.956 68.3125 101.286 68.0104 101.703C67.7084 102.115 67.4896 102.578 67.3542 103.094C67.224 103.609 67.1589 104.133 67.1589 104.664V106.336C67.1589 106.841 67.2188 107.289 67.3386 107.68C67.4584 108.065 67.6224 108.391 67.8307 108.656C68.0391 108.922 68.2735 109.122 68.5339 109.258C68.7995 109.393 69.0755 109.461 69.362 109.461C69.6953 109.461 69.9922 109.398 70.2526 109.273C70.513 109.143 70.7318 108.964 70.9089 108.734C71.0912 108.5 71.2292 108.224 71.3229 107.906C71.4167 107.589 71.4636 107.24 71.4636 106.859C71.4636 106.521 71.4219 106.195 71.3386 105.883C71.2552 105.565 71.1276 105.284 70.9557 105.039C70.7839 104.789 70.5677 104.594 70.3073 104.453C70.0521 104.307 69.7474 104.234 69.3932 104.234C68.9922 104.234 68.6172 104.333 68.2682 104.531C67.9245 104.724 67.6406 104.979 67.4167 105.297C67.1979 105.609 67.0729 105.951 67.0417 106.32L66.2761 106.312C66.349 105.729 66.4844 105.232 66.6823 104.82C66.8854 104.404 67.1354 104.065 67.4323 103.805C67.7344 103.539 68.0703 103.346 68.4401 103.227C68.8151 103.102 69.211 103.039 69.6276 103.039C70.1953 103.039 70.6849 103.146 71.0964 103.359C71.5078 103.573 71.8464 103.859 72.112 104.219C72.3776 104.573 72.5729 104.974 72.6979 105.422C72.8281 105.865 72.8932 106.32 72.8932 106.789C72.8932 107.326 72.8177 107.828 72.6667 108.297C72.5156 108.766 72.2891 109.177 71.987 109.531C71.6901 109.885 71.3229 110.161 70.8854 110.359C70.4479 110.557 69.9401 110.656 69.362 110.656C68.7474 110.656 68.211 110.531 67.7526 110.281C67.2943 110.026 66.9141 109.688 66.612 109.266C66.3099 108.844 66.0834 108.375 65.9323 107.859C65.7813 107.344 65.7057 106.82 65.7057 106.289V105.609C65.7057 104.807 65.7865 104.021 65.9479 103.25C66.1094 102.479 66.388 101.781 66.7839 101.156C67.1849 100.531 67.7396 100.034 68.4479 99.6641C69.1563 99.2943 70.0599 99.1094 71.1589 99.1094Z" fill="#2D2D2D"/>
<path d="M127.13 99.125V99.9375L122.419 110.5H120.896L125.599 100.312H119.443V99.125H127.13Z" fill="#2D2D2D"/>
<rect x="163.5" y="91" width="28" height="28" rx="7" stroke="#38BAE0" stroke-width="2"/>
<path d="M181.117 107.422C181.117 108.115 180.956 108.703 180.633 109.188C180.315 109.667 179.883 110.031 179.336 110.281C178.794 110.531 178.182 110.656 177.5 110.656C176.818 110.656 176.203 110.531 175.656 110.281C175.109 110.031 174.677 109.667 174.359 109.188C174.042 108.703 173.883 108.115 173.883 107.422C173.883 106.969 173.969 106.555 174.141 106.18C174.318 105.799 174.565 105.469 174.883 105.188C175.206 104.906 175.586 104.69 176.023 104.539C176.466 104.383 176.953 104.305 177.484 104.305C178.182 104.305 178.805 104.44 179.352 104.711C179.898 104.977 180.328 105.344 180.641 105.812C180.958 106.281 181.117 106.818 181.117 107.422ZM179.664 107.391C179.664 106.969 179.573 106.596 179.391 106.273C179.208 105.945 178.953 105.69 178.625 105.508C178.297 105.326 177.917 105.234 177.484 105.234C177.042 105.234 176.659 105.326 176.336 105.508C176.018 105.69 175.771 105.945 175.594 106.273C175.417 106.596 175.328 106.969 175.328 107.391C175.328 107.828 175.414 108.203 175.586 108.516C175.763 108.823 176.013 109.06 176.336 109.227C176.664 109.388 177.052 109.469 177.5 109.469C177.948 109.469 178.333 109.388 178.656 109.227C178.979 109.06 179.227 108.823 179.398 108.516C179.576 108.203 179.664 107.828 179.664 107.391ZM180.852 102.086C180.852 102.638 180.706 103.135 180.414 103.578C180.122 104.021 179.724 104.37 179.219 104.625C178.714 104.88 178.141 105.008 177.5 105.008C176.849 105.008 176.268 104.88 175.758 104.625C175.253 104.37 174.857 104.021 174.57 103.578C174.284 103.135 174.141 102.638 174.141 102.086C174.141 101.424 174.284 100.862 174.57 100.398C174.862 99.9349 175.26 99.5807 175.766 99.3359C176.271 99.0911 176.846 98.9688 177.492 98.9688C178.143 98.9688 178.721 99.0911 179.227 99.3359C179.732 99.5807 180.128 99.9349 180.414 100.398C180.706 100.862 180.852 101.424 180.852 102.086ZM179.406 102.109C179.406 101.729 179.326 101.393 179.164 101.102C179.003 100.81 178.779 100.581 178.492 100.414C178.206 100.242 177.872 100.156 177.492 100.156C177.112 100.156 176.779 100.237 176.492 100.398C176.211 100.555 175.99 100.779 175.828 101.07C175.672 101.362 175.594 101.708 175.594 102.109C175.594 102.5 175.672 102.841 175.828 103.133C175.99 103.424 176.214 103.651 176.5 103.812C176.786 103.974 177.12 104.055 177.5 104.055C177.88 104.055 178.211 103.974 178.492 103.812C178.779 103.651 179.003 103.424 179.164 103.133C179.326 102.841 179.406 102.5 179.406 102.109Z" fill="#2D2D2D"/>
<path d="M229.549 109.289H229.698C230.531 109.289 231.208 109.172 231.729 108.938C232.25 108.703 232.651 108.388 232.932 107.992C233.214 107.596 233.406 107.151 233.51 106.656C233.615 106.156 233.667 105.643 233.667 105.117V103.375C233.667 102.859 233.607 102.401 233.487 102C233.372 101.599 233.211 101.263 233.003 100.992C232.799 100.721 232.568 100.516 232.307 100.375C232.047 100.234 231.771 100.164 231.479 100.164C231.146 100.164 230.846 100.232 230.581 100.367C230.32 100.497 230.099 100.682 229.917 100.922C229.74 101.161 229.604 101.443 229.51 101.766C229.417 102.089 229.37 102.44 229.37 102.82C229.37 103.159 229.411 103.487 229.495 103.805C229.578 104.122 229.706 104.409 229.878 104.664C230.049 104.919 230.263 105.122 230.518 105.273C230.779 105.419 231.083 105.492 231.432 105.492C231.755 105.492 232.057 105.43 232.339 105.305C232.625 105.174 232.878 105 233.096 104.781C233.32 104.557 233.497 104.305 233.628 104.023C233.763 103.742 233.841 103.448 233.862 103.141H234.549C234.549 103.573 234.464 104 234.292 104.422C234.125 104.839 233.891 105.219 233.589 105.562C233.286 105.906 232.932 106.182 232.526 106.391C232.12 106.594 231.677 106.695 231.198 106.695C230.635 106.695 230.148 106.586 229.737 106.367C229.325 106.148 228.987 105.857 228.721 105.492C228.461 105.128 228.266 104.721 228.135 104.273C228.01 103.82 227.948 103.362 227.948 102.898C227.948 102.357 228.023 101.849 228.174 101.375C228.325 100.901 228.549 100.484 228.846 100.125C229.143 99.7604 229.51 99.4766 229.948 99.2734C230.391 99.0703 230.901 98.9688 231.479 98.9688C232.13 98.9688 232.685 99.099 233.143 99.3594C233.602 99.6198 233.974 99.9688 234.26 100.406C234.552 100.844 234.766 101.336 234.901 101.883C235.036 102.43 235.104 102.992 235.104 103.57V104.094C235.104 104.682 235.065 105.281 234.987 105.891C234.914 106.495 234.771 107.073 234.557 107.625C234.349 108.177 234.044 108.672 233.643 109.109C233.242 109.542 232.719 109.885 232.073 110.141C231.432 110.391 230.641 110.516 229.698 110.516H229.549V109.289Z" fill="#2D2D2D"/>
<path d="M282.529 99.0625V110.5H281.083V100.867L278.169 101.93V100.625L282.302 99.0625H282.529ZM293.919 103.906V105.641C293.919 106.573 293.836 107.359 293.669 108C293.503 108.641 293.263 109.156 292.95 109.547C292.638 109.938 292.26 110.221 291.818 110.398C291.38 110.57 290.885 110.656 290.333 110.656C289.896 110.656 289.492 110.602 289.122 110.492C288.753 110.383 288.419 110.208 288.122 109.969C287.831 109.724 287.581 109.406 287.372 109.016C287.164 108.625 287.005 108.151 286.896 107.594C286.786 107.036 286.732 106.385 286.732 105.641V103.906C286.732 102.974 286.815 102.193 286.982 101.562C287.154 100.932 287.396 100.427 287.708 100.047C288.021 99.6615 288.396 99.3854 288.833 99.2188C289.276 99.0521 289.771 98.9688 290.318 98.9688C290.76 98.9688 291.167 99.0234 291.536 99.1328C291.911 99.237 292.245 99.4062 292.536 99.6406C292.828 99.8698 293.075 100.177 293.279 100.562C293.487 100.943 293.646 101.409 293.755 101.961C293.865 102.513 293.919 103.161 293.919 103.906ZM292.466 105.875V103.664C292.466 103.154 292.435 102.706 292.372 102.32C292.315 101.93 292.229 101.596 292.115 101.32C292 101.044 291.854 100.82 291.677 100.648C291.505 100.477 291.305 100.352 291.075 100.273C290.851 100.19 290.599 100.148 290.318 100.148C289.974 100.148 289.669 100.214 289.404 100.344C289.138 100.469 288.914 100.669 288.732 100.945C288.555 101.221 288.419 101.583 288.325 102.031C288.232 102.479 288.185 103.023 288.185 103.664V105.875C288.185 106.385 288.213 106.836 288.271 107.227C288.333 107.617 288.424 107.956 288.544 108.242C288.664 108.523 288.81 108.755 288.982 108.938C289.154 109.12 289.351 109.255 289.575 109.344C289.805 109.427 290.057 109.469 290.333 109.469C290.687 109.469 290.997 109.401 291.263 109.266C291.529 109.13 291.75 108.919 291.927 108.633C292.109 108.341 292.245 107.969 292.333 107.516C292.422 107.057 292.466 106.51 292.466 105.875Z" fill="#2D2D2D"/>
<rect x="325" y="90" width="30" height="30" rx="8" fill="#F57272"/>
<path d="M336.695 99.0625V110.5H335.25V100.867L332.336 101.93V100.625L336.469 99.0625H336.695ZM345.695 99.0625V110.5H344.25V100.867L341.336 101.93V100.625L345.469 99.0625H345.695Z" fill="white"/>
<path d="M11.6953 144.062V155.5H10.25V145.867L7.33594 146.93V145.625L11.4688 144.062H11.6953ZM23.3984 154.312V155.5H15.9531V154.461L19.6797 150.312C20.138 149.802 20.4922 149.37 20.7422 149.016C20.9974 148.656 21.1745 148.336 21.2734 148.055C21.3776 147.768 21.4297 147.477 21.4297 147.18C21.4297 146.805 21.3516 146.466 21.1953 146.164C21.0443 145.857 20.8203 145.612 20.5234 145.43C20.2266 145.247 19.8672 145.156 19.4453 145.156C18.9401 145.156 18.5182 145.255 18.1797 145.453C17.8464 145.646 17.5964 145.917 17.4297 146.266C17.263 146.615 17.1797 147.016 17.1797 147.469H15.7344C15.7344 146.828 15.875 146.242 16.1562 145.711C16.4375 145.18 16.8542 144.758 17.4062 144.445C17.9583 144.128 18.638 143.969 19.4453 143.969C20.1641 143.969 20.7786 144.096 21.2891 144.352C21.7995 144.602 22.1901 144.956 22.4609 145.414C22.737 145.867 22.875 146.398 22.875 147.008C22.875 147.341 22.8177 147.68 22.7031 148.023C22.5938 148.362 22.4401 148.701 22.2422 149.039C22.0495 149.378 21.8229 149.711 21.5625 150.039C21.3073 150.367 21.0339 150.69 20.7422 151.008L17.6953 154.312H23.3984Z" fill="#2D2D2D"/>
<path d="M65.862 144.062V155.5H64.4167V145.867L61.5026 146.93V145.625L65.6354 144.062H65.862ZM72.2214 149.102H73.2526C73.7578 149.102 74.1745 149.018 74.5026 148.852C74.836 148.68 75.0834 148.448 75.2448 148.156C75.4115 147.859 75.4948 147.526 75.4948 147.156C75.4948 146.719 75.4219 146.352 75.2761 146.055C75.1302 145.758 74.9115 145.534 74.6198 145.383C74.3281 145.232 73.9584 145.156 73.5104 145.156C73.1042 145.156 72.7448 145.237 72.4323 145.398C72.125 145.555 71.8828 145.779 71.7057 146.07C71.5339 146.362 71.4479 146.706 71.4479 147.102H70.0026C70.0026 146.523 70.1485 145.997 70.4401 145.523C70.7318 145.049 71.1406 144.672 71.6667 144.391C72.1979 144.109 72.8125 143.969 73.5104 143.969C74.1979 143.969 74.7995 144.091 75.3151 144.336C75.8307 144.576 76.2318 144.935 76.5182 145.414C76.8047 145.888 76.9479 146.479 76.9479 147.188C76.9479 147.474 76.8802 147.781 76.7448 148.109C76.6146 148.432 76.4089 148.734 76.1276 149.016C75.8516 149.297 75.4922 149.529 75.0495 149.711C74.6068 149.888 74.0755 149.977 73.4557 149.977H72.2214V149.102ZM72.2214 150.289V149.422H73.4557C74.1797 149.422 74.7787 149.508 75.2526 149.68C75.7266 149.852 76.099 150.081 76.3698 150.367C76.6459 150.654 76.8386 150.969 76.9479 151.312C77.0625 151.651 77.1198 151.99 77.1198 152.328C77.1198 152.859 77.0287 153.331 76.8464 153.742C76.6693 154.154 76.4167 154.503 76.0886 154.789C75.7656 155.076 75.3854 155.292 74.9479 155.438C74.5104 155.583 74.0339 155.656 73.5182 155.656C73.0235 155.656 72.5573 155.586 72.1198 155.445C71.6875 155.305 71.3047 155.102 70.9714 154.836C70.638 154.565 70.3776 154.234 70.1901 153.844C70.0026 153.448 69.9089 152.997 69.9089 152.492H71.3542C71.3542 152.888 71.4401 153.234 71.612 153.531C71.7891 153.828 72.0391 154.06 72.362 154.227C72.6901 154.388 73.0755 154.469 73.5182 154.469C73.961 154.469 74.3412 154.393 74.6589 154.242C74.9818 154.086 75.2292 153.852 75.4011 153.539C75.5781 153.227 75.6667 152.833 75.6667 152.359C75.6667 151.885 75.5677 151.497 75.3698 151.195C75.1719 150.888 74.8906 150.661 74.5261 150.516C74.1667 150.365 73.7422 150.289 73.2526 150.289H72.2214Z" fill="#2D2D2D"/>
<rect x="108.333" y="135" width="30" height="30" rx="8" fill="#F57272"/>
<path d="M120.029 144.062V155.5H118.583V145.867L115.669 146.93V145.625L119.802 144.062H120.029ZM131.966 151.672V152.859H123.747V152.008L128.841 144.125H130.021L128.755 146.406L125.388 151.672H131.966ZM130.38 144.125V155.5H128.935V144.125H130.38Z" fill="white"/>
<path d="M174.195 144.062V155.5H172.75V145.867L169.836 146.93V145.625L173.969 144.062H174.195ZM180.273 150.086L179.117 149.789L179.688 144.125H185.523V145.461H180.914L180.57 148.555C180.779 148.435 181.042 148.323 181.359 148.219C181.682 148.115 182.052 148.062 182.469 148.062C182.995 148.062 183.466 148.154 183.883 148.336C184.299 148.513 184.654 148.768 184.945 149.102C185.242 149.435 185.469 149.836 185.625 150.305C185.781 150.773 185.859 151.297 185.859 151.875C185.859 152.422 185.784 152.924 185.633 153.383C185.487 153.841 185.266 154.242 184.969 154.586C184.672 154.924 184.297 155.188 183.844 155.375C183.396 155.562 182.867 155.656 182.258 155.656C181.799 155.656 181.365 155.594 180.953 155.469C180.547 155.339 180.182 155.143 179.859 154.883C179.542 154.617 179.281 154.289 179.078 153.898C178.88 153.503 178.755 153.039 178.703 152.508H180.078C180.141 152.935 180.266 153.294 180.453 153.586C180.641 153.878 180.885 154.099 181.188 154.25C181.495 154.396 181.852 154.469 182.258 154.469C182.602 154.469 182.906 154.409 183.172 154.289C183.438 154.169 183.661 153.997 183.844 153.773C184.026 153.549 184.164 153.279 184.258 152.961C184.357 152.643 184.406 152.286 184.406 151.891C184.406 151.531 184.357 151.198 184.258 150.891C184.159 150.583 184.01 150.315 183.812 150.086C183.62 149.857 183.383 149.68 183.102 149.555C182.82 149.424 182.497 149.359 182.133 149.359C181.648 149.359 181.281 149.424 181.031 149.555C180.786 149.685 180.534 149.862 180.273 150.086Z" fill="#2D2D2D"/>
<path d="M228.362 144.062V155.5H226.917V145.867L224.003 146.93V145.625L228.135 144.062H228.362ZM238.159 144.109H238.284V145.336H238.159C237.393 145.336 236.753 145.461 236.237 145.711C235.721 145.956 235.312 146.286 235.01 146.703C234.708 147.115 234.49 147.578 234.354 148.094C234.224 148.609 234.159 149.133 234.159 149.664V151.336C234.159 151.841 234.219 152.289 234.339 152.68C234.458 153.065 234.622 153.391 234.831 153.656C235.039 153.922 235.273 154.122 235.534 154.258C235.799 154.393 236.075 154.461 236.362 154.461C236.695 154.461 236.992 154.398 237.253 154.273C237.513 154.143 237.732 153.964 237.909 153.734C238.091 153.5 238.229 153.224 238.323 152.906C238.417 152.589 238.464 152.24 238.464 151.859C238.464 151.521 238.422 151.195 238.339 150.883C238.255 150.565 238.128 150.284 237.956 150.039C237.784 149.789 237.568 149.594 237.307 149.453C237.052 149.307 236.747 149.234 236.393 149.234C235.992 149.234 235.617 149.333 235.268 149.531C234.924 149.724 234.641 149.979 234.417 150.297C234.198 150.609 234.073 150.951 234.042 151.32L233.276 151.312C233.349 150.729 233.484 150.232 233.682 149.82C233.885 149.404 234.135 149.065 234.432 148.805C234.734 148.539 235.07 148.346 235.44 148.227C235.815 148.102 236.211 148.039 236.628 148.039C237.195 148.039 237.685 148.146 238.096 148.359C238.508 148.573 238.846 148.859 239.112 149.219C239.378 149.573 239.573 149.974 239.698 150.422C239.828 150.865 239.893 151.32 239.893 151.789C239.893 152.326 239.818 152.828 239.667 153.297C239.516 153.766 239.289 154.177 238.987 154.531C238.69 154.885 238.323 155.161 237.885 155.359C237.448 155.557 236.94 155.656 236.362 155.656C235.747 155.656 235.211 155.531 234.753 155.281C234.294 155.026 233.914 154.688 233.612 154.266C233.31 153.844 233.083 153.375 232.932 152.859C232.781 152.344 232.706 151.82 232.706 151.289V150.609C232.706 149.807 232.786 149.021 232.948 148.25C233.109 147.479 233.388 146.781 233.784 146.156C234.185 145.531 234.74 145.034 235.448 144.664C236.156 144.294 237.06 144.109 238.159 144.109Z" fill="#2D2D2D"/>
<path d="M282.529 144.062V155.5H281.083V145.867L278.169 146.93V145.625L282.302 144.062H282.529ZM294.13 144.125V144.938L289.419 155.5H287.896L292.599 145.312H286.443V144.125H294.13Z" fill="#2D2D2D"/>
<rect x="325" y="135" width="30" height="30" rx="8" fill="#F57272"/>
<path d="M336.695 144.062V155.5H335.25V145.867L332.336 146.93V145.625L336.469 144.062H336.695ZM348.117 152.422C348.117 153.115 347.956 153.703 347.633 154.188C347.315 154.667 346.883 155.031 346.336 155.281C345.794 155.531 345.182 155.656 344.5 155.656C343.818 155.656 343.203 155.531 342.656 155.281C342.109 155.031 341.677 154.667 341.359 154.188C341.042 153.703 340.883 153.115 340.883 152.422C340.883 151.969 340.969 151.555 341.141 151.18C341.318 150.799 341.565 150.469 341.883 150.188C342.206 149.906 342.586 149.69 343.023 149.539C343.466 149.383 343.953 149.305 344.484 149.305C345.182 149.305 345.805 149.44 346.352 149.711C346.898 149.977 347.328 150.344 347.641 150.812C347.958 151.281 348.117 151.818 348.117 152.422ZM346.664 152.391C346.664 151.969 346.573 151.596 346.391 151.273C346.208 150.945 345.953 150.69 345.625 150.508C345.297 150.326 344.917 150.234 344.484 150.234C344.042 150.234 343.659 150.326 343.336 150.508C343.018 150.69 342.771 150.945 342.594 151.273C342.417 151.596 342.328 151.969 342.328 152.391C342.328 152.828 342.414 153.203 342.586 153.516C342.763 153.823 343.013 154.06 343.336 154.227C343.664 154.388 344.052 154.469 344.5 154.469C344.948 154.469 345.333 154.388 345.656 154.227C345.979 154.06 346.227 153.823 346.398 153.516C346.576 153.203 346.664 152.828 346.664 152.391ZM347.852 147.086C347.852 147.638 347.706 148.135 347.414 148.578C347.122 149.021 346.724 149.37 346.219 149.625C345.714 149.88 345.141 150.008 344.5 150.008C343.849 150.008 343.268 149.88 342.758 149.625C342.253 149.37 341.857 149.021 341.57 148.578C341.284 148.135 341.141 147.638 341.141 147.086C341.141 146.424 341.284 145.862 341.57 145.398C341.862 144.935 342.26 144.581 342.766 144.336C343.271 144.091 343.846 143.969 344.492 143.969C345.143 143.969 345.721 144.091 346.227 144.336C346.732 144.581 347.128 144.935 347.414 145.398C347.706 145.862 347.852 146.424 347.852 147.086ZM346.406 147.109C346.406 146.729 346.326 146.393 346.164 146.102C346.003 145.81 345.779 145.581 345.492 145.414C345.206 145.242 344.872 145.156 344.492 145.156C344.112 145.156 343.779 145.237 343.492 145.398C343.211 145.555 342.99 145.779 342.828 146.07C342.672 146.362 342.594 146.708 342.594 147.109C342.594 147.5 342.672 147.841 342.828 148.133C342.99 148.424 343.214 148.651 343.5 148.812C343.786 148.974 344.12 149.055 344.5 149.055C344.88 149.055 345.211 148.974 345.492 148.812C345.779 148.651 346.003 148.424 346.164 148.133C346.326 147.841 346.406 147.5 346.406 147.109Z" fill="white"/>
<path d="M11.6953 189.062V200.5H10.25V190.867L7.33594 191.93V190.625L11.4688 189.062H11.6953ZM17.3828 199.289H17.5312C18.3646 199.289 19.0417 199.172 19.5625 198.938C20.0833 198.703 20.4844 198.388 20.7656 197.992C21.0469 197.596 21.2396 197.151 21.3438 196.656C21.4479 196.156 21.5 195.643 21.5 195.117V193.375C21.5 192.859 21.4401 192.401 21.3203 192C21.2057 191.599 21.0443 191.263 20.8359 190.992C20.6328 190.721 20.401 190.516 20.1406 190.375C19.8802 190.234 19.6042 190.164 19.3125 190.164C18.9792 190.164 18.6797 190.232 18.4141 190.367C18.1536 190.497 17.9323 190.682 17.75 190.922C17.5729 191.161 17.4375 191.443 17.3438 191.766C17.25 192.089 17.2031 192.44 17.2031 192.82C17.2031 193.159 17.2448 193.487 17.3281 193.805C17.4115 194.122 17.5391 194.409 17.7109 194.664C17.8828 194.919 18.0964 195.122 18.3516 195.273C18.612 195.419 18.9167 195.492 19.2656 195.492C19.5885 195.492 19.8906 195.43 20.1719 195.305C20.4583 195.174 20.7109 195 20.9297 194.781C21.1536 194.557 21.3307 194.305 21.4609 194.023C21.5964 193.742 21.6745 193.448 21.6953 193.141H22.3828C22.3828 193.573 22.2969 194 22.125 194.422C21.9583 194.839 21.724 195.219 21.4219 195.562C21.1198 195.906 20.7656 196.182 20.3594 196.391C19.9531 196.594 19.5104 196.695 19.0312 196.695C18.4688 196.695 17.9818 196.586 17.5703 196.367C17.1589 196.148 16.8203 195.857 16.5547 195.492C16.2943 195.128 16.099 194.721 15.9688 194.273C15.8438 193.82 15.7812 193.362 15.7812 192.898C15.7812 192.357 15.8568 191.849 16.0078 191.375C16.1589 190.901 16.3828 190.484 16.6797 190.125C16.9766 189.76 17.3438 189.477 17.7812 189.273C18.224 189.07 18.7344 188.969 19.3125 188.969C19.9635 188.969 20.5182 189.099 20.9766 189.359C21.4349 189.62 21.8073 189.969 22.0938 190.406C22.3854 190.844 22.599 191.336 22.7344 191.883C22.8698 192.43 22.9375 192.992 22.9375 193.57V194.094C22.9375 194.682 22.8984 195.281 22.8203 195.891C22.7474 196.495 22.6042 197.073 22.3906 197.625C22.1823 198.177 21.8776 198.672 21.4766 199.109C21.0755 199.542 20.5521 199.885 19.9062 200.141C19.2656 200.391 18.474 200.516 17.5312 200.516H17.3828V199.289Z" fill="#2D2D2D"/>
<path d="M68.3984 199.312V200.5H60.9531V199.461L64.6797 195.312C65.138 194.802 65.4922 194.37 65.7422 194.016C65.9974 193.656 66.1745 193.336 66.2734 193.055C66.3776 192.768 66.4297 192.477 66.4297 192.18C66.4297 191.805 66.3516 191.466 66.1953 191.164C66.0443 190.857 65.8203 190.612 65.5234 190.43C65.2266 190.247 64.8672 190.156 64.4453 190.156C63.9401 190.156 63.5182 190.255 63.1797 190.453C62.8464 190.646 62.5964 190.917 62.4297 191.266C62.263 191.615 62.1797 192.016 62.1797 192.469H60.7344C60.7344 191.828 60.875 191.242 61.1562 190.711C61.4375 190.18 61.8542 189.758 62.4062 189.445C62.9583 189.128 63.638 188.969 64.4453 188.969C65.1641 188.969 65.7786 189.096 66.2891 189.352C66.7995 189.602 67.1901 189.956 67.4609 190.414C67.737 190.867 67.875 191.398 67.875 192.008C67.875 192.341 67.8177 192.68 67.7031 193.023C67.5938 193.362 67.4401 193.701 67.2422 194.039C67.0495 194.378 66.8229 194.711 66.5625 195.039C66.3073 195.367 66.0339 195.69 65.7422 196.008L62.6953 199.312H68.3984ZM77.0859 193.906V195.641C77.0859 196.573 77.0026 197.359 76.8359 198C76.6693 198.641 76.4297 199.156 76.1172 199.547C75.8047 199.938 75.4271 200.221 74.9844 200.398C74.5469 200.57 74.0521 200.656 73.5 200.656C73.0625 200.656 72.6589 200.602 72.2891 200.492C71.9193 200.383 71.5859 200.208 71.2891 199.969C70.9974 199.724 70.7474 199.406 70.5391 199.016C70.3307 198.625 70.1719 198.151 70.0625 197.594C69.9531 197.036 69.8984 196.385 69.8984 195.641V193.906C69.8984 192.974 69.9818 192.193 70.1484 191.562C70.3203 190.932 70.5625 190.427 70.875 190.047C71.1875 189.661 71.5625 189.385 72 189.219C72.4427 189.052 72.9375 188.969 73.4844 188.969C73.9271 188.969 74.3333 189.023 74.7031 189.133C75.0781 189.237 75.4115 189.406 75.7031 189.641C75.9948 189.87 76.2422 190.177 76.4453 190.562C76.6536 190.943 76.8125 191.409 76.9219 191.961C77.0312 192.513 77.0859 193.161 77.0859 193.906ZM75.6328 195.875V193.664C75.6328 193.154 75.6016 192.706 75.5391 192.32C75.4818 191.93 75.3958 191.596 75.2812 191.32C75.1667 191.044 75.0208 190.82 74.8438 190.648C74.6719 190.477 74.4714 190.352 74.2422 190.273C74.0182 190.19 73.7656 190.148 73.4844 190.148C73.1406 190.148 72.8359 190.214 72.5703 190.344C72.3047 190.469 72.0807 190.669 71.8984 190.945C71.7214 191.221 71.5859 191.583 71.4922 192.031C71.3984 192.479 71.3516 193.023 71.3516 193.664V195.875C71.3516 196.385 71.3802 196.836 71.4375 197.227C71.5 197.617 71.5911 197.956 71.7109 198.242C71.8307 198.523 71.9766 198.755 72.1484 198.938C72.3203 199.12 72.5182 199.255 72.7422 199.344C72.9714 199.427 73.224 199.469 73.5 199.469C73.8542 199.469 74.1641 199.401 74.4297 199.266C74.6953 199.13 74.9167 198.919 75.0938 198.633C75.276 198.341 75.4115 197.969 75.5 197.516C75.5885 197.057 75.6328 196.51 75.6328 195.875Z" fill="#2D2D2D"/>
<path d="M122.398 199.312V200.5H114.953V199.461L118.68 195.312C119.138 194.802 119.492 194.37 119.742 194.016C119.997 193.656 120.174 193.336 120.273 193.055C120.378 192.768 120.43 192.477 120.43 192.18C120.43 191.805 120.352 191.466 120.195 191.164C120.044 190.857 119.82 190.612 119.523 190.43C119.227 190.247 118.867 190.156 118.445 190.156C117.94 190.156 117.518 190.255 117.18 190.453C116.846 190.646 116.596 190.917 116.43 191.266C116.263 191.615 116.18 192.016 116.18 192.469H114.734C114.734 191.828 114.875 191.242 115.156 190.711C115.438 190.18 115.854 189.758 116.406 189.445C116.958 189.128 117.638 188.969 118.445 188.969C119.164 188.969 119.779 189.096 120.289 189.352C120.799 189.602 121.19 189.956 121.461 190.414C121.737 190.867 121.875 191.398 121.875 192.008C121.875 192.341 121.818 192.68 121.703 193.023C121.594 193.362 121.44 193.701 121.242 194.039C121.049 194.378 120.823 194.711 120.562 195.039C120.307 195.367 120.034 195.69 119.742 196.008L116.695 199.312H122.398ZM128.695 189.062V200.5H127.25V190.867L124.336 191.93V190.625L128.469 189.062H128.695Z" fill="#2D2D2D"/>
<path d="M176.398 199.312V200.5H168.953V199.461L172.68 195.312C173.138 194.802 173.492 194.37 173.742 194.016C173.997 193.656 174.174 193.336 174.273 193.055C174.378 192.768 174.43 192.477 174.43 192.18C174.43 191.805 174.352 191.466 174.195 191.164C174.044 190.857 173.82 190.612 173.523 190.43C173.227 190.247 172.867 190.156 172.445 190.156C171.94 190.156 171.518 190.255 171.18 190.453C170.846 190.646 170.596 190.917 170.43 191.266C170.263 191.615 170.18 192.016 170.18 192.469H168.734C168.734 191.828 168.875 191.242 169.156 190.711C169.438 190.18 169.854 189.758 170.406 189.445C170.958 189.128 171.638 188.969 172.445 188.969C173.164 188.969 173.779 189.096 174.289 189.352C174.799 189.602 175.19 189.956 175.461 190.414C175.737 190.867 175.875 191.398 175.875 192.008C175.875 192.341 175.818 192.68 175.703 193.023C175.594 193.362 175.44 193.701 175.242 194.039C175.049 194.378 174.823 194.711 174.562 195.039C174.307 195.367 174.034 195.69 173.742 196.008L170.695 199.312H176.398ZM185.398 199.312V200.5H177.953V199.461L181.68 195.312C182.138 194.802 182.492 194.37 182.742 194.016C182.997 193.656 183.174 193.336 183.273 193.055C183.378 192.768 183.43 192.477 183.43 192.18C183.43 191.805 183.352 191.466 183.195 191.164C183.044 190.857 182.82 190.612 182.523 190.43C182.227 190.247 181.867 190.156 181.445 190.156C180.94 190.156 180.518 190.255 180.18 190.453C179.846 190.646 179.596 190.917 179.43 191.266C179.263 191.615 179.18 192.016 179.18 192.469H177.734C177.734 191.828 177.875 191.242 178.156 190.711C178.438 190.18 178.854 189.758 179.406 189.445C179.958 189.128 180.638 188.969 181.445 188.969C182.164 188.969 182.779 189.096 183.289 189.352C183.799 189.602 184.19 189.956 184.461 190.414C184.737 190.867 184.875 191.398 184.875 192.008C184.875 192.341 184.818 192.68 184.703 193.023C184.594 193.362 184.44 193.701 184.242 194.039C184.049 194.378 183.823 194.711 183.562 195.039C183.307 195.367 183.034 195.69 182.742 196.008L179.695 199.312H185.398Z" fill="#2D2D2D"/>
<path d="M230.398 199.312V200.5H222.953V199.461L226.68 195.312C227.138 194.802 227.492 194.37 227.742 194.016C227.997 193.656 228.174 193.336 228.273 193.055C228.378 192.768 228.43 192.477 228.43 192.18C228.43 191.805 228.352 191.466 228.195 191.164C228.044 190.857 227.82 190.612 227.523 190.43C227.227 190.247 226.867 190.156 226.445 190.156C225.94 190.156 225.518 190.255 225.18 190.453C224.846 190.646 224.596 190.917 224.43 191.266C224.263 191.615 224.18 192.016 224.18 192.469H222.734C222.734 191.828 222.875 191.242 223.156 190.711C223.438 190.18 223.854 189.758 224.406 189.445C224.958 189.128 225.638 188.969 226.445 188.969C227.164 188.969 227.779 189.096 228.289 189.352C228.799 189.602 229.19 189.956 229.461 190.414C229.737 190.867 229.875 191.398 229.875 192.008C229.875 192.341 229.818 192.68 229.703 193.023C229.594 193.362 229.44 193.701 229.242 194.039C229.049 194.378 228.823 194.711 228.562 195.039C228.307 195.367 228.034 195.69 227.742 196.008L224.695 199.312H230.398ZM234.055 194.102H235.086C235.591 194.102 236.008 194.018 236.336 193.852C236.669 193.68 236.917 193.448 237.078 193.156C237.245 192.859 237.328 192.526 237.328 192.156C237.328 191.719 237.255 191.352 237.109 191.055C236.964 190.758 236.745 190.534 236.453 190.383C236.161 190.232 235.792 190.156 235.344 190.156C234.938 190.156 234.578 190.237 234.266 190.398C233.958 190.555 233.716 190.779 233.539 191.07C233.367 191.362 233.281 191.706 233.281 192.102H231.836C231.836 191.523 231.982 190.997 232.273 190.523C232.565 190.049 232.974 189.672 233.5 189.391C234.031 189.109 234.646 188.969 235.344 188.969C236.031 188.969 236.633 189.091 237.148 189.336C237.664 189.576 238.065 189.935 238.352 190.414C238.638 190.888 238.781 191.479 238.781 192.188C238.781 192.474 238.714 192.781 238.578 193.109C238.448 193.432 238.242 193.734 237.961 194.016C237.685 194.297 237.326 194.529 236.883 194.711C236.44 194.888 235.909 194.977 235.289 194.977H234.055V194.102ZM234.055 195.289V194.422H235.289C236.013 194.422 236.612 194.508 237.086 194.68C237.56 194.852 237.932 195.081 238.203 195.367C238.479 195.654 238.672 195.969 238.781 196.312C238.896 196.651 238.953 196.99 238.953 197.328C238.953 197.859 238.862 198.331 238.68 198.742C238.503 199.154 238.25 199.503 237.922 199.789C237.599 200.076 237.219 200.292 236.781 200.438C236.344 200.583 235.867 200.656 235.352 200.656C234.857 200.656 234.391 200.586 233.953 200.445C233.521 200.305 233.138 200.102 232.805 199.836C232.471 199.565 232.211 199.234 232.023 198.844C231.836 198.448 231.742 197.997 231.742 197.492H233.188C233.188 197.888 233.273 198.234 233.445 198.531C233.622 198.828 233.872 199.06 234.195 199.227C234.523 199.388 234.909 199.469 235.352 199.469C235.794 199.469 236.174 199.393 236.492 199.242C236.815 199.086 237.062 198.852 237.234 198.539C237.411 198.227 237.5 197.833 237.5 197.359C237.5 196.885 237.401 196.497 237.203 196.195C237.005 195.888 236.724 195.661 236.359 195.516C236 195.365 235.576 195.289 235.086 195.289H234.055Z" fill="#2D2D2D"/>
<circle cx="231.5" cy="209.5" r="4" fill="#38BAE0"/>
<path d="M284.398 199.312V200.5H276.953V199.461L280.68 195.312C281.138 194.802 281.492 194.37 281.742 194.016C281.997 193.656 282.174 193.336 282.273 193.055C282.378 192.768 282.43 192.477 282.43 192.18C282.43 191.805 282.352 191.466 282.195 191.164C282.044 190.857 281.82 190.612 281.523 190.43C281.227 190.247 280.867 190.156 280.445 190.156C279.94 190.156 279.518 190.255 279.18 190.453C278.846 190.646 278.596 190.917 278.43 191.266C278.263 191.615 278.18 192.016 278.18 192.469H276.734C276.734 191.828 276.875 191.242 277.156 190.711C277.438 190.18 277.854 189.758 278.406 189.445C278.958 189.128 279.638 188.969 280.445 188.969C281.164 188.969 281.779 189.096 282.289 189.352C282.799 189.602 283.19 189.956 283.461 190.414C283.737 190.867 283.875 191.398 283.875 192.008C283.875 192.341 283.818 192.68 283.703 193.023C283.594 193.362 283.44 193.701 283.242 194.039C283.049 194.378 282.823 194.711 282.562 195.039C282.307 195.367 282.034 195.69 281.742 196.008L278.695 199.312H284.398ZM293.633 196.672V197.859H285.414V197.008L290.508 189.125H291.688L290.422 191.406L287.055 196.672H293.633ZM292.047 189.125V200.5H290.602V189.125H292.047Z" fill="#2D2D2D"/>
<circle cx="285.5" cy="209.5" r="4" fill="#38BAE0"/>
<rect x="324" y="180" width="30" height="30" rx="8" fill="#F57272"/>
<path d="M338.398 199.312V200.5H330.953V199.461L334.68 195.312C335.138 194.802 335.492 194.37 335.742 194.016C335.997 193.656 336.174 193.336 336.273 193.055C336.378 192.768 336.43 192.477 336.43 192.18C336.43 191.805 336.352 191.466 336.195 191.164C336.044 190.857 335.82 190.612 335.523 190.43C335.227 190.247 334.867 190.156 334.445 190.156C333.94 190.156 333.518 190.255 333.18 190.453C332.846 190.646 332.596 190.917 332.43 191.266C332.263 191.615 332.18 192.016 332.18 192.469H330.734C330.734 191.828 330.875 191.242 331.156 190.711C331.438 190.18 331.854 189.758 332.406 189.445C332.958 189.128 333.638 188.969 334.445 188.969C335.164 188.969 335.779 189.096 336.289 189.352C336.799 189.602 337.19 189.956 337.461 190.414C337.737 190.867 337.875 191.398 337.875 192.008C337.875 192.341 337.818 192.68 337.703 193.023C337.594 193.362 337.44 193.701 337.242 194.039C337.049 194.378 336.823 194.711 336.562 195.039C336.307 195.367 336.034 195.69 335.742 196.008L332.695 199.312H338.398ZM341.773 195.086L340.617 194.789L341.188 189.125H347.023V190.461H342.414L342.07 193.555C342.279 193.435 342.542 193.323 342.859 193.219C343.182 193.115 343.552 193.062 343.969 193.062C344.495 193.062 344.966 193.154 345.383 193.336C345.799 193.513 346.154 193.768 346.445 194.102C346.742 194.435 346.969 194.836 347.125 195.305C347.281 195.773 347.359 196.297 347.359 196.875C347.359 197.422 347.284 197.924 347.133 198.383C346.987 198.841 346.766 199.242 346.469 199.586C346.172 199.924 345.797 200.188 345.344 200.375C344.896 200.562 344.367 200.656 343.758 200.656C343.299 200.656 342.865 200.594 342.453 200.469C342.047 200.339 341.682 200.143 341.359 199.883C341.042 199.617 340.781 199.289 340.578 198.898C340.38 198.503 340.255 198.039 340.203 197.508H341.578C341.641 197.935 341.766 198.294 341.953 198.586C342.141 198.878 342.385 199.099 342.688 199.25C342.995 199.396 343.352 199.469 343.758 199.469C344.102 199.469 344.406 199.409 344.672 199.289C344.938 199.169 345.161 198.997 345.344 198.773C345.526 198.549 345.664 198.279 345.758 197.961C345.857 197.643 345.906 197.286 345.906 196.891C345.906 196.531 345.857 196.198 345.758 195.891C345.659 195.583 345.51 195.315 345.312 195.086C345.12 194.857 344.883 194.68 344.602 194.555C344.32 194.424 343.997 194.359 343.633 194.359C343.148 194.359 342.781 194.424 342.531 194.555C342.286 194.685 342.034 194.862 341.773 195.086Z" fill="white"/>
<path d="M14.3984 244.312V245.5H6.95312V244.461L10.6797 240.312C11.138 239.802 11.4922 239.37 11.7422 239.016C11.9974 238.656 12.1745 238.336 12.2734 238.055C12.3776 237.768 12.4297 237.477 12.4297 237.18C12.4297 236.805 12.3516 236.466 12.1953 236.164C12.0443 235.857 11.8203 235.612 11.5234 235.43C11.2266 235.247 10.8672 235.156 10.4453 235.156C9.9401 235.156 9.51823 235.255 9.17969 235.453C8.84635 235.646 8.59635 235.917 8.42969 236.266C8.26302 236.615 8.17969 237.016 8.17969 237.469H6.73438C6.73438 236.828 6.875 236.242 7.15625 235.711C7.4375 235.18 7.85417 234.758 8.40625 234.445C8.95833 234.128 9.63802 233.969 10.4453 233.969C11.1641 233.969 11.7786 234.096 12.2891 234.352C12.7995 234.602 13.1901 234.956 13.4609 235.414C13.737 235.867 13.875 236.398 13.875 237.008C13.875 237.341 13.8177 237.68 13.7031 238.023C13.5938 238.362 13.4401 238.701 13.2422 239.039C13.0495 239.378 12.8229 239.711 12.5625 240.039C12.3073 240.367 12.0339 240.69 11.7422 241.008L8.69531 244.312H14.3984ZM21.4922 234.109H21.6172V235.336H21.4922C20.7266 235.336 20.0859 235.461 19.5703 235.711C19.0547 235.956 18.6458 236.286 18.3438 236.703C18.0417 237.115 17.8229 237.578 17.6875 238.094C17.5573 238.609 17.4922 239.133 17.4922 239.664V241.336C17.4922 241.841 17.5521 242.289 17.6719 242.68C17.7917 243.065 17.9557 243.391 18.1641 243.656C18.3724 243.922 18.6068 244.122 18.8672 244.258C19.1328 244.393 19.4089 244.461 19.6953 244.461C20.0286 244.461 20.3255 244.398 20.5859 244.273C20.8464 244.143 21.0651 243.964 21.2422 243.734C21.4245 243.5 21.5625 243.224 21.6562 242.906C21.75 242.589 21.7969 242.24 21.7969 241.859C21.7969 241.521 21.7552 241.195 21.6719 240.883C21.5885 240.565 21.4609 240.284 21.2891 240.039C21.1172 239.789 20.901 239.594 20.6406 239.453C20.3854 239.307 20.0807 239.234 19.7266 239.234C19.3255 239.234 18.9505 239.333 18.6016 239.531C18.2578 239.724 17.974 239.979 17.75 240.297C17.5312 240.609 17.4062 240.951 17.375 241.32L16.6094 241.312C16.6823 240.729 16.8177 240.232 17.0156 239.82C17.2188 239.404 17.4688 239.065 17.7656 238.805C18.0677 238.539 18.4036 238.346 18.7734 238.227C19.1484 238.102 19.5443 238.039 19.9609 238.039C20.5286 238.039 21.0182 238.146 21.4297 238.359C21.8411 238.573 22.1797 238.859 22.4453 239.219C22.7109 239.573 22.9062 239.974 23.0312 240.422C23.1615 240.865 23.2266 241.32 23.2266 241.789C23.2266 242.326 23.151 242.828 23 243.297C22.849 243.766 22.6224 244.177 22.3203 244.531C22.0234 244.885 21.6562 245.161 21.2188 245.359C20.7812 245.557 20.2734 245.656 19.6953 245.656C19.0807 245.656 18.5443 245.531 18.0859 245.281C17.6276 245.026 17.2474 244.688 16.9453 244.266C16.6432 243.844 16.4167 243.375 16.2656 242.859C16.1146 242.344 16.0391 241.82 16.0391 241.289V240.609C16.0391 239.807 16.1198 239.021 16.2812 238.25C16.4427 237.479 16.7214 236.781 17.1172 236.156C17.5182 235.531 18.0729 235.034 18.7812 234.664C19.4896 234.294 20.3932 234.109 21.4922 234.109Z" fill="#2D2D2D"/>
<circle cx="15.5" cy="254.5" r="4" fill="#38BAE0"/>
<path d="M68.3984 244.312V245.5H60.9531V244.461L64.6797 240.312C65.138 239.802 65.4922 239.37 65.7422 239.016C65.9974 238.656 66.1745 238.336 66.2734 238.055C66.3776 237.768 66.4297 237.477 66.4297 237.18C66.4297 236.805 66.3516 236.466 66.1953 236.164C66.0443 235.857 65.8203 235.612 65.5234 235.43C65.2266 235.247 64.8672 235.156 64.4453 235.156C63.9401 235.156 63.5182 235.255 63.1797 235.453C62.8464 235.646 62.5964 235.917 62.4297 236.266C62.263 236.615 62.1797 237.016 62.1797 237.469H60.7344C60.7344 236.828 60.875 236.242 61.1562 235.711C61.4375 235.18 61.8542 234.758 62.4062 234.445C62.9583 234.128 63.638 233.969 64.4453 233.969C65.1641 233.969 65.7786 234.096 66.2891 234.352C66.7995 234.602 67.1901 234.956 67.4609 235.414C67.737 235.867 67.875 236.398 67.875 237.008C67.875 237.341 67.8177 237.68 67.7031 238.023C67.5938 238.362 67.4401 238.701 67.2422 239.039C67.0495 239.378 66.8229 239.711 66.5625 240.039C66.3073 240.367 66.0339 240.69 65.7422 241.008L62.6953 244.312H68.3984ZM77.2969 234.125V234.938L72.5859 245.5H71.0625L75.7656 235.312H69.6094V234.125H77.2969Z" fill="#2D2D2D"/>
<circle cx="69.5" cy="254.5" r="4" fill="#38BAE0"/>
<path d="M122.398 244.312V245.5H114.953V244.461L118.68 240.312C119.138 239.802 119.492 239.37 119.742 239.016C119.997 238.656 120.174 238.336 120.273 238.055C120.378 237.768 120.43 237.477 120.43 237.18C120.43 236.805 120.352 236.466 120.195 236.164C120.044 235.857 119.82 235.612 119.523 235.43C119.227 235.247 118.867 235.156 118.445 235.156C117.94 235.156 117.518 235.255 117.18 235.453C116.846 235.646 116.596 235.917 116.43 236.266C116.263 236.615 116.18 237.016 116.18 237.469H114.734C114.734 236.828 114.875 236.242 115.156 235.711C115.438 235.18 115.854 234.758 116.406 234.445C116.958 234.128 117.638 233.969 118.445 233.969C119.164 233.969 119.779 234.096 120.289 234.352C120.799 234.602 121.19 234.956 121.461 235.414C121.737 235.867 121.875 236.398 121.875 237.008C121.875 237.341 121.818 237.68 121.703 238.023C121.594 238.362 121.44 238.701 121.242 239.039C121.049 239.378 120.823 239.711 120.562 240.039C120.307 240.367 120.034 240.69 119.742 241.008L116.695 244.312H122.398ZM131.117 242.422C131.117 243.115 130.956 243.703 130.633 244.188C130.315 244.667 129.883 245.031 129.336 245.281C128.794 245.531 128.182 245.656 127.5 245.656C126.818 245.656 126.203 245.531 125.656 245.281C125.109 245.031 124.677 244.667 124.359 244.188C124.042 243.703 123.883 243.115 123.883 242.422C123.883 241.969 123.969 241.555 124.141 241.18C124.318 240.799 124.565 240.469 124.883 240.188C125.206 239.906 125.586 239.69 126.023 239.539C126.466 239.383 126.953 239.305 127.484 239.305C128.182 239.305 128.805 239.44 129.352 239.711C129.898 239.977 130.328 240.344 130.641 240.812C130.958 241.281 131.117 241.818 131.117 242.422ZM129.664 242.391C129.664 241.969 129.573 241.596 129.391 241.273C129.208 240.945 128.953 240.69 128.625 240.508C128.297 240.326 127.917 240.234 127.484 240.234C127.042 240.234 126.659 240.326 126.336 240.508C126.018 240.69 125.771 240.945 125.594 241.273C125.417 241.596 125.328 241.969 125.328 242.391C125.328 242.828 125.414 243.203 125.586 243.516C125.763 243.823 126.013 244.06 126.336 244.227C126.664 244.388 127.052 244.469 127.5 244.469C127.948 244.469 128.333 244.388 128.656 244.227C128.979 244.06 129.227 243.823 129.398 243.516C129.576 243.203 129.664 242.828 129.664 242.391ZM130.852 237.086C130.852 237.638 130.706 238.135 130.414 238.578C130.122 239.021 129.724 239.37 129.219 239.625C128.714 239.88 128.141 240.008 127.5 240.008C126.849 240.008 126.268 239.88 125.758 239.625C125.253 239.37 124.857 239.021 124.57 238.578C124.284 238.135 124.141 237.638 124.141 237.086C124.141 236.424 124.284 235.862 124.57 235.398C124.862 234.935 125.26 234.581 125.766 234.336C126.271 234.091 126.846 233.969 127.492 233.969C128.143 233.969 128.721 234.091 129.227 234.336C129.732 234.581 130.128 234.935 130.414 235.398C130.706 235.862 130.852 236.424 130.852 237.086ZM129.406 237.109C129.406 236.729 129.326 236.393 129.164 236.102C129.003 235.81 128.779 235.581 128.492 235.414C128.206 235.242 127.872 235.156 127.492 235.156C127.112 235.156 126.779 235.237 126.492 235.398C126.211 235.555 125.99 235.779 125.828 236.07C125.672 236.362 125.594 236.708 125.594 237.109C125.594 237.5 125.672 237.841 125.828 238.133C125.99 238.424 126.214 238.651 126.5 238.812C126.786 238.974 127.12 239.055 127.5 239.055C127.88 239.055 128.211 238.974 128.492 238.812C128.779 238.651 129.003 238.424 129.164 238.133C129.326 237.841 129.406 237.5 129.406 237.109Z" fill="#2D2D2D"/>
<circle cx="123.5" cy="254.5" r="4" fill="#38BAE0"/>
<rect x="162" y="225" width="30" height="30" rx="8" fill="#F57272"/>
<path d="M176.398 244.312V245.5H168.953V244.461L172.68 240.312C173.138 239.802 173.492 239.37 173.742 239.016C173.997 238.656 174.174 238.336 174.273 238.055C174.378 237.768 174.43 237.477 174.43 237.18C174.43 236.805 174.352 236.466 174.195 236.164C174.044 235.857 173.82 235.612 173.523 235.43C173.227 235.247 172.867 235.156 172.445 235.156C171.94 235.156 171.518 235.255 171.18 235.453C170.846 235.646 170.596 235.917 170.43 236.266C170.263 236.615 170.18 237.016 170.18 237.469H168.734C168.734 236.828 168.875 236.242 169.156 235.711C169.438 235.18 169.854 234.758 170.406 234.445C170.958 234.128 171.638 233.969 172.445 233.969C173.164 233.969 173.779 234.096 174.289 234.352C174.799 234.602 175.19 234.956 175.461 235.414C175.737 235.867 175.875 236.398 175.875 237.008C175.875 237.341 175.818 237.68 175.703 238.023C175.594 238.362 175.44 238.701 175.242 239.039C175.049 239.378 174.823 239.711 174.562 240.039C174.307 240.367 174.034 240.69 173.742 241.008L170.695 244.312H176.398ZM179.383 244.289H179.531C180.365 244.289 181.042 244.172 181.562 243.938C182.083 243.703 182.484 243.388 182.766 242.992C183.047 242.596 183.24 242.151 183.344 241.656C183.448 241.156 183.5 240.643 183.5 240.117V238.375C183.5 237.859 183.44 237.401 183.32 237C183.206 236.599 183.044 236.263 182.836 235.992C182.633 235.721 182.401 235.516 182.141 235.375C181.88 235.234 181.604 235.164 181.312 235.164C180.979 235.164 180.68 235.232 180.414 235.367C180.154 235.497 179.932 235.682 179.75 235.922C179.573 236.161 179.438 236.443 179.344 236.766C179.25 237.089 179.203 237.44 179.203 237.82C179.203 238.159 179.245 238.487 179.328 238.805C179.411 239.122 179.539 239.409 179.711 239.664C179.883 239.919 180.096 240.122 180.352 240.273C180.612 240.419 180.917 240.492 181.266 240.492C181.589 240.492 181.891 240.43 182.172 240.305C182.458 240.174 182.711 240 182.93 239.781C183.154 239.557 183.331 239.305 183.461 239.023C183.596 238.742 183.674 238.448 183.695 238.141H184.383C184.383 238.573 184.297 239 184.125 239.422C183.958 239.839 183.724 240.219 183.422 240.562C183.12 240.906 182.766 241.182 182.359 241.391C181.953 241.594 181.51 241.695 181.031 241.695C180.469 241.695 179.982 241.586 179.57 241.367C179.159 241.148 178.82 240.857 178.555 240.492C178.294 240.128 178.099 239.721 177.969 239.273C177.844 238.82 177.781 238.362 177.781 237.898C177.781 237.357 177.857 236.849 178.008 236.375C178.159 235.901 178.383 235.484 178.68 235.125C178.977 234.76 179.344 234.477 179.781 234.273C180.224 234.07 180.734 233.969 181.312 233.969C181.964 233.969 182.518 234.099 182.977 234.359C183.435 234.62 183.807 234.969 184.094 235.406C184.385 235.844 184.599 236.336 184.734 236.883C184.87 237.43 184.938 237.992 184.938 238.57V239.094C184.938 239.682 184.898 240.281 184.82 240.891C184.747 241.495 184.604 242.073 184.391 242.625C184.182 243.177 183.878 243.672 183.477 244.109C183.076 244.542 182.552 244.885 181.906 245.141C181.266 245.391 180.474 245.516 179.531 245.516H179.383V244.289Z" fill="white"/>
<path d="M225.055 239.102H226.086C226.591 239.102 227.008 239.018 227.336 238.852C227.669 238.68 227.917 238.448 228.078 238.156C228.245 237.859 228.328 237.526 228.328 237.156C228.328 236.719 228.255 236.352 228.109 236.055C227.964 235.758 227.745 235.534 227.453 235.383C227.161 235.232 226.792 235.156 226.344 235.156C225.938 235.156 225.578 235.237 225.266 235.398C224.958 235.555 224.716 235.779 224.539 236.07C224.367 236.362 224.281 236.706 224.281 237.102H222.836C222.836 236.523 222.982 235.997 223.273 235.523C223.565 235.049 223.974 234.672 224.5 234.391C225.031 234.109 225.646 233.969 226.344 233.969C227.031 233.969 227.633 234.091 228.148 234.336C228.664 234.576 229.065 234.935 229.352 235.414C229.638 235.888 229.781 236.479 229.781 237.188C229.781 237.474 229.714 237.781 229.578 238.109C229.448 238.432 229.242 238.734 228.961 239.016C228.685 239.297 228.326 239.529 227.883 239.711C227.44 239.888 226.909 239.977 226.289 239.977H225.055V239.102ZM225.055 240.289V239.422H226.289C227.013 239.422 227.612 239.508 228.086 239.68C228.56 239.852 228.932 240.081 229.203 240.367C229.479 240.654 229.672 240.969 229.781 241.312C229.896 241.651 229.953 241.99 229.953 242.328C229.953 242.859 229.862 243.331 229.68 243.742C229.503 244.154 229.25 244.503 228.922 244.789C228.599 245.076 228.219 245.292 227.781 245.438C227.344 245.583 226.867 245.656 226.352 245.656C225.857 245.656 225.391 245.586 224.953 245.445C224.521 245.305 224.138 245.102 223.805 244.836C223.471 244.565 223.211 244.234 223.023 243.844C222.836 243.448 222.742 242.997 222.742 242.492H224.188C224.188 242.888 224.273 243.234 224.445 243.531C224.622 243.828 224.872 244.06 225.195 244.227C225.523 244.388 225.909 244.469 226.352 244.469C226.794 244.469 227.174 244.393 227.492 244.242C227.815 244.086 228.062 243.852 228.234 243.539C228.411 243.227 228.5 242.833 228.5 242.359C228.5 241.885 228.401 241.497 228.203 241.195C228.005 240.888 227.724 240.661 227.359 240.516C227 240.365 226.576 240.289 226.086 240.289H225.055ZM239.086 238.906V240.641C239.086 241.573 239.003 242.359 238.836 243C238.669 243.641 238.43 244.156 238.117 244.547C237.805 244.938 237.427 245.221 236.984 245.398C236.547 245.57 236.052 245.656 235.5 245.656C235.062 245.656 234.659 245.602 234.289 245.492C233.919 245.383 233.586 245.208 233.289 244.969C232.997 244.724 232.747 244.406 232.539 244.016C232.331 243.625 232.172 243.151 232.062 242.594C231.953 242.036 231.898 241.385 231.898 240.641V238.906C231.898 237.974 231.982 237.193 232.148 236.562C232.32 235.932 232.562 235.427 232.875 235.047C233.188 234.661 233.562 234.385 234 234.219C234.443 234.052 234.938 233.969 235.484 233.969C235.927 233.969 236.333 234.023 236.703 234.133C237.078 234.237 237.411 234.406 237.703 234.641C237.995 234.87 238.242 235.177 238.445 235.562C238.654 235.943 238.812 236.409 238.922 236.961C239.031 237.513 239.086 238.161 239.086 238.906ZM237.633 240.875V238.664C237.633 238.154 237.602 237.706 237.539 237.32C237.482 236.93 237.396 236.596 237.281 236.32C237.167 236.044 237.021 235.82 236.844 235.648C236.672 235.477 236.471 235.352 236.242 235.273C236.018 235.19 235.766 235.148 235.484 235.148C235.141 235.148 234.836 235.214 234.57 235.344C234.305 235.469 234.081 235.669 233.898 235.945C233.721 236.221 233.586 236.583 233.492 237.031C233.398 237.479 233.352 238.023 233.352 238.664V240.875C233.352 241.385 233.38 241.836 233.438 242.227C233.5 242.617 233.591 242.956 233.711 243.242C233.831 243.523 233.977 243.755 234.148 243.938C234.32 244.12 234.518 244.255 234.742 244.344C234.971 244.427 235.224 244.469 235.5 244.469C235.854 244.469 236.164 244.401 236.43 244.266C236.695 244.13 236.917 243.919 237.094 243.633C237.276 243.341 237.411 242.969 237.5 242.516C237.589 242.057 237.633 241.51 237.633 240.875Z" fill="#2D2D2D"/>
<circle cx="231.5" cy="254.5" r="4" fill="#38BAE0"/>
<path d="M279.055 239.102H280.086C280.591 239.102 281.008 239.018 281.336 238.852C281.669 238.68 281.917 238.448 282.078 238.156C282.245 237.859 282.328 237.526 282.328 237.156C282.328 236.719 282.255 236.352 282.109 236.055C281.964 235.758 281.745 235.534 281.453 235.383C281.161 235.232 280.792 235.156 280.344 235.156C279.938 235.156 279.578 235.237 279.266 235.398C278.958 235.555 278.716 235.779 278.539 236.07C278.367 236.362 278.281 236.706 278.281 237.102H276.836C276.836 236.523 276.982 235.997 277.273 235.523C277.565 235.049 277.974 234.672 278.5 234.391C279.031 234.109 279.646 233.969 280.344 233.969C281.031 233.969 281.633 234.091 282.148 234.336C282.664 234.576 283.065 234.935 283.352 235.414C283.638 235.888 283.781 236.479 283.781 237.188C283.781 237.474 283.714 237.781 283.578 238.109C283.448 238.432 283.242 238.734 282.961 239.016C282.685 239.297 282.326 239.529 281.883 239.711C281.44 239.888 280.909 239.977 280.289 239.977H279.055V239.102ZM279.055 240.289V239.422H280.289C281.013 239.422 281.612 239.508 282.086 239.68C282.56 239.852 282.932 240.081 283.203 240.367C283.479 240.654 283.672 240.969 283.781 241.312C283.896 241.651 283.953 241.99 283.953 242.328C283.953 242.859 283.862 243.331 283.68 243.742C283.503 244.154 283.25 244.503 282.922 244.789C282.599 245.076 282.219 245.292 281.781 245.438C281.344 245.583 280.867 245.656 280.352 245.656C279.857 245.656 279.391 245.586 278.953 245.445C278.521 245.305 278.138 245.102 277.805 244.836C277.471 244.565 277.211 244.234 277.023 243.844C276.836 243.448 276.742 242.997 276.742 242.492H278.188C278.188 242.888 278.273 243.234 278.445 243.531C278.622 243.828 278.872 244.06 279.195 244.227C279.523 244.388 279.909 244.469 280.352 244.469C280.794 244.469 281.174 244.393 281.492 244.242C281.815 244.086 282.062 243.852 282.234 243.539C282.411 243.227 282.5 242.833 282.5 242.359C282.5 241.885 282.401 241.497 282.203 241.195C282.005 240.888 281.724 240.661 281.359 240.516C281 240.365 280.576 240.289 280.086 240.289H279.055ZM290.695 234.062V245.5H289.25V235.867L286.336 236.93V235.625L290.469 234.062H290.695Z" fill="#2D2D2D"/>
<circle cx="285.5" cy="254.5" r="4" fill="#38BAE0"/>
<g opacity="0.4">
<rect x="324" y="225" width="31" height="30" rx="8" fill="#F57272"/>
<path d="M340.695 234.062V245.5H339.25V235.867L336.336 236.93V235.625L340.469 234.062H340.695Z" fill="white"/>
</g>
</svg>
