<svg width="32" height="32" viewBox="0 0 32 32" fill="none" xmlns="http://www.w3.org/2000/svg">
<circle cx="16" cy="16" r="15.5" fill="#F7F7F7" stroke="#E0E0E0"/>
<path d="M9.02205 17.765C8.86536 18.831 9.5659 19.5709 10.4236 19.9397C13.712 21.3534 18.288 21.3534 21.5763 19.9397C22.4341 19.5709 23.1346 18.831 22.978 17.765C22.8817 17.1099 22.4055 16.5643 22.0527 16.0316C21.5906 15.3253 21.5447 14.5549 21.5447 13.7353C21.5447 10.5678 19.0622 8 16 8C12.9378 8 10.4554 10.5678 10.4554 13.7353C10.4553 14.5549 10.4094 15.3253 9.94729 16.0316C9.59451 16.5643 9.11835 17.1099 9.02205 17.765Z" stroke="#2D2D2D" stroke-width="1.5" stroke-linecap="round" stroke-linejoin="round"/>
<path d="M13 21C13.3439 22.7252 14.5566 24 16 24C17.4434 24 18.6561 22.7252 19 21" stroke="#2D2D2D" stroke-width="1.5" stroke-linecap="round" stroke-linejoin="round"/>
<circle cx="20" cy="11" r="2.5" fill="#EF4444" stroke="#2D2D2D"/>
</svg>
