<svg width="21" height="20" viewBox="0 0 21 20" fill="none" xmlns="http://www.w3.org/2000/svg">
<path d="M14.1874 3.83757L15.0124 3.01258C15.6959 2.32914 16.804 2.32914 17.4874 3.01258C18.1708 3.69603 18.1708 4.80411 17.4874 5.48756L16.6624 6.31255M14.1874 3.83757L8.63794 9.387C8.21502 9.81 7.91499 10.3398 7.76993 10.9201L7.16663 13.3333L9.57988 12.73C10.1601 12.585 10.69 12.2849 11.113 11.862L16.6624 6.31255M14.1874 3.83757L16.6624 6.31255" stroke="#FDFDFD" stroke-width="2" stroke-linejoin="round"/>
<path d="M16.3333 11.25C16.3333 13.9896 16.3332 15.3593 15.5767 16.2813C15.4382 16.4501 15.2834 16.6048 15.1146 16.7433C14.1927 17.5 12.8228 17.5 10.0833 17.5H9.66667C6.52397 17.5 4.95263 17.5 3.97632 16.5237C3.00002 15.5474 3 13.976 3 10.8333V10.4167C3 7.67709 3 6.30731 3.75662 5.38536C3.89514 5.21657 4.04992 5.0618 4.2187 4.92327C5.14066 4.16666 6.51043 4.16666 9.25 4.16666" stroke="#FDFDFD" stroke-width="2" stroke-linecap="round" stroke-linejoin="round"/>
</svg>
