<svg width="46" height="47" viewBox="0 0 46 47" fill="none" xmlns="http://www.w3.org/2000/svg">
<rect y="0.5" width="46" height="46" rx="8" fill="#C1EAF5"/>
<rect width="28.3077" height="28.3077" transform="translate(8.84615 9.34619)" fill="#C1EAF5"/>
<path d="M31.2564 15.2437L23 11.7052L14.7436 15.2437L18.8718 17.0129V19.3719C18.8718 19.3719 20.2479 18.7821 23 18.7821C25.7521 18.7821 27.1282 19.3719 27.1282 19.3719V17.0129L31.2564 15.2437ZM31.2564 15.2437V19.9616" stroke="#184E5E" stroke-width="1.5" stroke-linecap="round" stroke-linejoin="round"/>
<path d="M27.1282 19.3718V20.5513C27.1282 22.8313 25.2799 24.6795 23 24.6795C20.7201 24.6795 18.8718 22.8313 18.8718 20.5513V19.3718" stroke="#184E5E" stroke-width="1.5" stroke-linecap="round" stroke-linejoin="round"/>
<path d="M18.0256 29.0475C16.7277 29.8548 13.3247 31.5033 15.3974 33.566C16.4098 34.5736 17.5375 35.2943 18.9552 35.2943H27.0448C28.4626 35.2943 29.5902 34.5736 30.6026 33.566C32.6752 31.5033 29.2723 29.8548 27.9744 29.0475C24.9309 27.1543 21.0691 27.1543 18.0256 29.0475Z" stroke="#184E5E" stroke-width="1.5" stroke-linecap="round" stroke-linejoin="round"/>
</svg>
