<svg width="46" height="47" viewBox="0 0 46 47" fill="none" xmlns="http://www.w3.org/2000/svg">
<rect y="0.5" width="46" height="46" rx="8" fill="#FABEBE"/>
<rect width="28.3077" height="28.3077" transform="translate(8.84613 9.34619)" fill="#FABEBE"/>
<path d="M11.2051 27.0385H26.5384C27.6376 27.0385 28.1871 27.0385 28.6207 27.218C29.1986 27.4574 29.6579 27.9167 29.8974 28.4946C30.0769 28.9282 30.0769 29.4777 30.0769 30.5769C30.0769 31.6761 30.0769 32.2256 29.8974 32.6592C29.6579 33.2371 29.1986 33.6964 28.6207 33.9359C28.1871 34.1154 27.6376 34.1154 26.5384 34.1154H11.2051" stroke="#651212" stroke-width="1.5" stroke-linecap="round" stroke-linejoin="round"/>
<path d="M11.2051 12.8846H26.5384C27.6376 12.8846 28.1871 12.8846 28.6207 13.0642C29.1986 13.3036 29.6579 13.7629 29.8974 14.3409C30.0769 14.7744 30.0769 15.324 30.0769 16.4231C30.0769 17.5222 30.0769 18.0718 29.8974 18.5053C29.6579 19.0833 29.1986 19.5426 28.6207 19.782C28.1871 19.9616 27.6376 19.9616 26.5384 19.9616H11.2051" stroke="#651212" stroke-width="1.5" stroke-linecap="round" stroke-linejoin="round"/>
<path d="M34.7948 19.9615H19.4615C18.3624 19.9615 17.8128 19.9615 17.3793 20.1411C16.8013 20.3805 16.342 20.8398 16.1026 21.4177C15.923 21.8513 15.923 22.4008 15.923 23.5C15.923 24.5992 15.923 25.1487 16.1026 25.5823C16.342 26.1602 16.8013 26.6195 17.3793 26.859C17.8128 27.0385 18.3624 27.0385 19.4615 27.0385H34.7948" stroke="#651212" stroke-width="1.5" stroke-linecap="round" stroke-linejoin="round"/>
<path d="M33.6154 27.0385C32.3125 27.0385 31.2564 25.4543 31.2564 23.5C31.2564 21.5457 32.3125 19.9615 33.6154 19.9615" stroke="#651212" stroke-width="1.5" stroke-linecap="round"/>
<path d="M12.3846 12.8846C13.6874 12.8846 14.7436 14.4689 14.7436 16.4231C14.7436 18.3773 13.6874 19.9616 12.3846 19.9616" stroke="#651212" stroke-width="1.5" stroke-linecap="round"/>
<path d="M12.3846 27.0385C13.6874 27.0385 14.7436 28.6226 14.7436 30.5769C14.7436 32.5312 13.6874 34.1154 12.3846 34.1154" stroke="#651212" stroke-width="1.5" stroke-linecap="round"/>
</svg>
