<svg width="46" height="47" viewBox="0 0 46 47" fill="none" xmlns="http://www.w3.org/2000/svg">
<rect y="0.5" width="46" height="46" rx="8" fill="#FDEDB0"/>
<path d="M24.1795 27.0385C21.4765 34.1154 13.9081 27.0385 11.2051 34.1154" stroke="#685300" stroke-width="1.5" stroke-linecap="round" stroke-linejoin="round"/>
<path d="M27.1282 27.0385H28.899C31.679 27.0385 33.0691 27.0385 33.9328 26.1749C34.7964 25.3111 34.7964 23.9211 34.7964 21.1411V18.7821C34.7964 16.002 34.7964 14.612 33.9328 13.7483C33.0691 12.8846 31.679 12.8846 28.899 12.8846H24.181C21.401 12.8846 20.0109 12.8846 19.1473 13.7483C18.4155 14.4801 18.3037 15.5897 18.2867 17.6026" stroke="#685300" stroke-width="1.5" stroke-linecap="round" stroke-linejoin="round"/>
<path d="M17.6923 27.0385C19.3208 27.0385 20.641 25.7184 20.641 24.0898C20.641 22.4613 19.3208 21.1411 17.6923 21.1411C16.0638 21.1411 14.7436 22.4613 14.7436 24.0898C14.7436 25.7184 16.0638 27.0385 17.6923 27.0385Z" stroke="#685300" stroke-width="1.5" stroke-linecap="round" stroke-linejoin="round"/>
<path d="M23 17.6027H30.0769M30.0769 22.3206H26.5385" stroke="#685300" stroke-width="1.5" stroke-linecap="round" stroke-linejoin="round"/>
</svg>
